<?xml version="1.0" encoding="iso-8859-1"?>
<!-- Generator: Adobe Illustrator 19.0.0, SVG Export Plug-In . SVG Version: 6.00 Build 0)  -->
<svg version="1.1" id="Capa_1" xmlns="http://www.w3.org/2000/svg" xmlns:xlink="http://www.w3.org/1999/xlink" x="0px" y="0px" width="320" height="320"
	 viewBox="0 0 511.745 511.745" style="enable-background:new 0 0 511.745 511.745;" xml:space="preserve">
<path style="fill:#AC92EC;" d="M507.66,347.911c0.898,8.746-5.567,15.906-14.359,15.906H18.438c-8.792,0-15.258-7.16-14.359-15.906
	l28.72-280.03c0.897-8.745,8.831-15.905,17.624-15.905h410.894c8.793,0,16.726,7.16,17.624,15.905L507.66,347.911z"/>
<g style="opacity:0.2;">
	<path d="M507.66,347.911l-28.72-280.03c-0.898-8.745-8.831-15.905-17.624-15.905h-7.996c8.793,0,16.727,7.16,17.624,15.905
		l28.72,280.03c0.898,8.746-5.567,15.906-14.359,15.906h7.996C502.093,363.817,508.559,356.657,507.66,347.911z"/>
</g>
<g style="opacity:0.3;">
	<path style="fill:#FFFFFF;" d="M12.075,347.911l28.72-280.03c0.897-8.745,8.831-15.905,17.624-15.905h-7.996
		c-8.793,0-16.727,7.16-17.624,15.905l-28.72,280.03c-0.898,8.746,5.567,15.906,14.359,15.906h7.996
		C17.643,363.817,11.177,356.657,12.075,347.911z"/>
</g>
<polygon style="fill:#5D9CEC;" points="491.575,347.825 20.164,347.825 50.423,67.967 463.034,67.967 "/>
<g style="opacity:0.2;">
	<polygon points="463.034,67.967 455.038,67.967 483.579,347.825 491.575,347.825 	"/>
</g>
<g style="opacity:0.3;">
	<polygon style="fill:#FFFFFF;" points="50.423,67.967 20.164,347.825 28.16,347.825 58.418,67.967 	"/>
</g>
<g>
	<path style="fill:#E6E9ED;" d="M363.819,107.947c0,16.312,15.991,23.987,15.991,23.987s-15.991,7.676-15.991,23.988
		c0-16.312-15.992-23.988-15.992-23.988S363.819,124.259,363.819,107.947z"/>
	<path style="fill:#E6E9ED;" d="M83.96,251.874c0,16.312,15.992,23.988,15.992,23.988s-15.992,7.676-15.992,23.987
		c0-16.312-15.991-23.987-15.991-23.987S83.96,268.186,83.96,251.874z"/>
</g>
<path style="fill:#656D78;" d="M347.827,435.781v23.987H163.92v-23.987c0-8.87,7.113-15.992,15.992-15.992h39.979v-23.987v-7.996
	h71.964v7.996v23.987h39.979C340.706,419.789,347.827,426.911,347.827,435.781z"/>
<g style="opacity:0.3;">
	<path style="fill:#FFFFFF;" d="M187.908,419.789h-7.996c-8.879,0-15.992,7.122-15.992,15.992v23.987h7.996v-23.987
		C171.916,426.911,179.029,419.789,187.908,419.789z"/>
	<rect x="219.892" y="395.802" style="fill:#FFFFFF;" width="7.996" height="23.987"/>
</g>
<g style="opacity:0.2;">
	<path d="M323.839,419.789h7.996c8.871,0,15.992,7.122,15.992,15.992v23.987h-7.996v-23.987
		C339.831,426.911,332.71,419.789,323.839,419.789z"/>
	<rect x="283.862" y="395.802" width="7.996" height="23.987"/>
</g>
<path style="fill:#967ADC;" d="M493.269,363.817l14.414-12.97l0.062,20.966c0,8.871-7.121,15.992-15.991,15.992H291.855h-71.963
	H19.993c-8.878,0-15.992-7.121-15.992-15.992l0.078-23.902c2.319,1.523,11.275,15.906,14.391,15.906H493.269z"/>
<g style="opacity:0.2;">
	<path d="M507.684,350.848l-7.973,7.176l0.039,13.79c0,8.871-7.121,15.992-15.991,15.992h7.996c8.87,0,15.991-7.121,15.991-15.992
		L507.684,350.848z"/>
</g>
<g style="opacity:0.3;">
	<path style="fill:#FFFFFF;" d="M11.997,371.813l0.047-14.04c-3.28-4.138-6.661-9.011-7.964-9.862l-0.078,23.902
		c0,8.871,7.113,15.992,15.992,15.992h7.996C19.11,387.806,11.997,380.684,11.997,371.813z"/>
</g>
<g style="opacity:0.2;">
	<rect x="219.892" y="387.802" width="71.964" height="7.996"/>
</g>
<g style="opacity:0.3;">
	<polygon style="fill:#FFFFFF;" points="181.403,347.825 222.796,347.825 297.782,67.967 256.389,67.967 	"/>
</g>
<g style="opacity:0.3;">
	<polygon style="fill:#FFFFFF;" points="231.073,347.825 239.351,347.825 314.344,67.967 306.06,67.967 	"/>
</g>
<g>
	<path style="fill:#212121;" d="M493.269,367.815h-474.8c-3.771,0-7.379-1.055-10.424-3.045c-5.685-3.873-8.629-10.308-7.949-17.258
		L28.809,67.483C29.894,56.73,39.6,47.977,50.455,47.977h410.831c10.854,0,20.567,8.753,21.653,19.51l28.704,280.01
		c0.539,5.373-1.085,10.448-4.583,14.321C503.56,365.684,498.665,367.815,493.269,367.815z M50.454,55.973
		c-6.747,0-13.017,5.643-13.688,12.318L8.054,348.31c-0.391,3.982,1.265,7.652,4.427,9.808c1.71,1.116,3.749,1.702,5.989,1.702
		h474.8c3.107,0,5.896-1.194,7.854-3.365c1.969-2.171,2.874-5.068,2.562-8.145L474.981,68.295
		c-0.672-6.68-6.941-12.322-13.696-12.322C461.285,55.973,50.454,55.973,50.454,55.973z"/>
	<path style="fill:#212121;" d="M491.591,351.823H20.149c-1.132,0-2.21-0.484-2.967-1.319c-0.758-0.835-1.125-1.96-1.007-3.085
		L44.715,69.08c0.398-2.714,3.178-5.111,5.739-5.111h410.831c2.569,0,5.349,2.397,5.716,4.936l28.572,278.515
		c0.109,1.125-0.258,2.25-1.016,3.085S492.723,351.823,491.591,351.823z M24.576,343.827h462.587L459.286,71.965H52.453
		L24.576,343.827z"/>
	<path style="fill:#212121;" d="M453.453,135.933h-57.65c-2.21,0-3.998-1.788-3.998-3.998s1.788-3.998,3.998-3.998h57.65
		c2.21,0,3.998,1.788,3.998,3.998S455.663,135.933,453.453,135.933z"/>
	<path style="fill:#212121;" d="M331.835,135.933H58.294c-2.21,0-3.998-1.788-3.998-3.998s1.788-3.998,3.998-3.998h273.541
		c2.21,0,3.998,1.788,3.998,3.998S334.045,135.933,331.835,135.933z"/>
	<path style="fill:#212121;" d="M460.81,207.896H50.938c-2.21,0-3.998-1.788-3.998-3.998s1.788-3.998,3.998-3.998H460.81
		c2.209,0,3.998,1.788,3.998,3.998S463.018,207.896,460.81,207.896z"/>
	<path style="fill:#212121;" d="M468.165,279.86H115.944c-2.21,0-3.998-1.789-3.998-3.998c0-2.21,1.788-3.998,3.998-3.998h352.221
		c2.209,0,3.998,1.788,3.998,3.998C472.163,278.071,470.374,279.86,468.165,279.86z"/>
	<path style="fill:#212121;" d="M51.976,279.86h-8.48c-2.209,0-3.998-1.789-3.998-3.998c0-2.21,1.789-3.998,3.998-3.998h8.48
		c2.21,0,3.998,1.788,3.998,3.998C55.975,278.071,54.186,279.86,51.976,279.86z"/>
	<path style="fill:#212121;" d="M138.737,335.831c-0.07,0-0.141,0-0.203,0c-2.21-0.116-3.904-1.99-3.795-4.2L147.132,83.76
		c0.109-2.21,1.976-3.939,4.193-3.795c2.202,0.109,3.904,1.987,3.795,4.193l-12.392,247.878
		C142.618,334.177,140.853,335.831,138.737,335.831z"/>
	<path style="fill:#212121;" d="M255.873,335.831c-2.21,0-3.998-1.787-3.998-3.997V83.959c0-2.21,1.788-3.998,3.998-3.998
		c2.209,0,3.999,1.788,3.999,3.998v247.875C259.872,334.044,258.083,335.831,255.873,335.831z"/>
	<path style="fill:#212121;" d="M361.016,95.953c-2.116,0-3.881-1.663-3.99-3.799l-0.398-7.996
		c-0.108-2.206,1.585-4.084,3.796-4.193c2.162-0.168,4.075,1.589,4.192,3.795l0.398,7.996c0.109,2.206-1.593,4.084-3.795,4.193
		C361.148,95.953,361.078,95.953,361.016,95.953z"/>
	<path style="fill:#212121;" d="M373.01,335.831c-2.116,0-3.881-1.654-3.99-3.795l-7.996-159.923
		c-0.109-2.205,1.585-4.079,3.795-4.192c2.132-0.184,4.076,1.585,4.193,3.795l7.996,159.915c0.109,2.21-1.593,4.084-3.795,4.2
		C373.143,335.831,373.072,335.831,373.01,335.831z"/>
	<path style="fill:#212121;" d="M19.993,391.804c-11.026,0-19.99-8.965-19.99-19.99c0-2.21,1.788-3.998,3.998-3.998
		c2.209,0,3.998,1.788,3.998,3.998c0,6.613,5.38,11.994,11.994,11.994c2.209,0,3.998,1.788,3.998,3.998
		C23.991,390.015,22.202,391.804,19.993,391.804z"/>
	<path style="fill:#212121;" d="M491.755,391.804c-2.211,0-3.998-1.789-3.998-3.998c0-2.21,1.787-3.998,3.998-3.998
		c6.613,0,11.993-5.381,11.993-11.994c0-2.21,1.788-3.998,3.998-3.998s3.998,1.788,3.998,3.998
		C511.744,382.839,502.772,391.804,491.755,391.804z"/>
	<path style="fill:#212121;" d="M491.755,391.804H19.993c-2.21,0-3.998-1.789-3.998-3.998c0-2.21,1.788-3.998,3.998-3.998h471.762
		c2.209,0,3.998,1.788,3.998,3.998C495.753,390.015,493.964,391.804,491.755,391.804z"/>
	<path style="fill:#212121;" d="M219.892,423.787c-2.21,0-3.998-1.788-3.998-3.998v-23.987c0-2.21,1.788-3.998,3.998-3.998
		s3.998,1.788,3.998,3.998v23.987C223.89,421.999,222.101,423.787,219.892,423.787z"/>
	<path style="fill:#212121;" d="M163.92,439.779c-2.21,0-3.998-1.788-3.998-3.998c0-11.026,8.964-19.99,19.99-19.99
		c2.209,0,3.998,1.788,3.998,3.998s-1.789,3.998-3.998,3.998c-6.614,0-11.994,5.38-11.994,11.994
		C167.918,437.991,166.13,439.779,163.92,439.779z"/>
	<path style="fill:#212121;" d="M227.888,423.787h-47.976c-2.21,0-3.998-1.788-3.998-3.998s1.788-3.998,3.998-3.998h47.976
		c2.21,0,3.998,1.788,3.998,3.998S230.098,423.787,227.888,423.787z"/>
	<path style="fill:#212121;" d="M347.827,463.767H163.92c-2.21,0-3.998-1.788-3.998-3.998c0-2.209,1.788-3.998,3.998-3.998h183.907
		c2.21,0,3.998,1.789,3.998,3.998S350.037,463.767,347.827,463.767z"/>
	<path style="fill:#212121;" d="M163.92,463.767c-2.21,0-3.998-1.788-3.998-3.998v-23.987c0-2.21,1.788-3.998,3.998-3.998
		s3.998,1.788,3.998,3.998v23.987C167.918,461.978,166.13,463.767,163.92,463.767z"/>
	<path style="fill:#212121;" d="M291.855,423.787c-2.21,0-3.998-1.788-3.998-3.998v-23.987c0-2.21,1.788-3.998,3.998-3.998
		s3.998,1.788,3.998,3.998v23.987C295.853,421.999,294.065,423.787,291.855,423.787z"/>
	<path style="fill:#212121;" d="M347.827,439.779c-2.21,0-3.998-1.788-3.998-3.998c0-6.614-5.38-11.994-11.994-11.994
		c-2.21,0-3.998-1.788-3.998-3.998s1.788-3.998,3.998-3.998c11.018,0,19.99,8.964,19.99,19.99
		C351.825,437.991,350.037,439.779,347.827,439.779z"/>
	<path style="fill:#212121;" d="M331.835,423.787h-47.976c-2.21,0-3.998-1.788-3.998-3.998s1.788-3.998,3.998-3.998h47.976
		c2.21,0,3.998,1.788,3.998,3.998S334.045,423.787,331.835,423.787z"/>
	<path style="fill:#212121;" d="M347.827,463.767c-2.21,0-3.998-1.788-3.998-3.998v-23.987c0-2.21,1.788-3.998,3.998-3.998
		s3.998,1.788,3.998,3.998v23.987C351.825,461.978,350.037,463.767,347.827,463.767z"/>
	<path style="fill:#212121;" d="M83.96,303.848c-2.209,0-3.998-1.788-3.998-3.998c0-18.615,17.515-27.236,18.256-27.595
		c1.999-0.953,4.365-0.109,5.325,1.873c0.961,1.977,0.125,4.365-1.851,5.334c-0.562,0.273-13.735,6.863-13.735,20.388
		C87.958,302.06,86.17,303.848,83.96,303.848z"/>
	<path style="fill:#212121;" d="M99.944,279.86c-0.578,0-1.163-0.125-1.726-0.391c-0.742-0.359-18.256-8.98-18.256-27.596
		c0-2.21,1.788-3.998,3.998-3.998s3.998,1.788,3.998,3.998c0,13.524,13.173,20.115,13.735,20.389
		c1.976,0.968,2.812,3.357,1.851,5.333C102.849,279.032,101.428,279.86,99.944,279.86z"/>
	<path style="fill:#212121;" d="M67.976,279.86c-1.492,0-2.913-0.828-3.6-2.265c-0.96-1.976-0.133-4.365,1.851-5.333
		c0.554-0.273,13.735-6.864,13.735-20.389c0-2.21,1.788-3.998,3.998-3.998s3.998,1.788,3.998,3.998
		c0,18.615-17.515,27.236-18.264,27.596C69.14,279.735,68.554,279.86,67.976,279.86z"/>
	<path style="fill:#212121;" d="M83.96,303.848c-2.209,0-3.998-1.788-3.998-3.998c0-13.524-13.181-20.114-13.735-20.388
		c-1.983-0.969-2.811-3.357-1.851-5.334c0.96-1.982,3.334-2.826,5.318-1.873c0.749,0.358,18.264,8.979,18.264,27.595
		C87.958,302.06,86.17,303.848,83.96,303.848z"/>
	<path style="fill:#212121;" d="M363.819,159.921c-2.21,0-3.998-1.788-3.998-3.998c0-18.616,17.515-27.236,18.256-27.592
		c1.999-0.952,4.365-0.113,5.326,1.866c0.96,1.979,0.125,4.369-1.852,5.337c-0.562,0.273-13.734,6.864-13.734,20.389
		C367.817,158.133,366.028,159.921,363.819,159.921z"/>
	<path style="fill:#212121;" d="M379.803,135.933c-0.577,0-1.163-0.125-1.726-0.395c-0.741-0.354-18.256-8.976-18.256-27.591
		c0-2.21,1.788-3.998,3.998-3.998c2.209,0,3.998,1.788,3.998,3.998c0,13.524,13.173,20.114,13.734,20.388
		c1.977,0.969,2.812,3.357,1.852,5.337C382.708,135.101,381.286,135.933,379.803,135.933z"/>
	<path style="fill:#212121;" d="M347.835,135.933c-1.491,0-2.912-0.831-3.6-2.261c-0.961-1.979-0.133-4.368,1.851-5.337
		c0.554-0.273,13.735-6.863,13.735-20.388c0-2.21,1.788-3.998,3.998-3.998c2.209,0,3.998,1.788,3.998,3.998
		c0,18.615-17.516,27.236-18.265,27.591C348.998,135.808,348.413,135.933,347.835,135.933z"/>
	<path style="fill:#212121;" d="M363.819,159.921c-2.21,0-3.998-1.788-3.998-3.998c0-13.524-13.182-20.115-13.735-20.389
		c-1.983-0.968-2.812-3.357-1.851-5.337c0.96-1.983,3.334-2.822,5.317-1.866c0.749,0.355,18.265,8.976,18.265,27.592
		C367.817,158.133,366.028,159.921,363.819,159.921z"/>
</g>
<g>
</g>
<g>
</g>
<g>
</g>
<g>
</g>
<g>
</g>
<g>
</g>
<g>
</g>
<g>
</g>
<g>
</g>
<g>
</g>
<g>
</g>
<g>
</g>
<g>
</g>
<g>
</g>
<g>
</g>
</svg>
