<svg xmlns="http://www.w3.org/2000/svg" width="536" height="401" fill="none" viewBox="0 0 536 401"><path fill="#C02519" fill-rule="evenodd" d="M-1.15951e-06 66.3257H88.6549V-7.83938e-06H-1.15951e-06V66.3257Z" clip-rule="evenodd" transform="translate(0 401) scale(6.04592 -6.04592)"/><path fill="#fff" d="M10.2877 12.9856H12.0586V-7.45383e-06H10.4555L1.75146 10.0015V-7.45383e-06H3.22087e-06V12.9856H1.50925L10.2877 2.8999V12.9856Z" transform="translate(107.586 343.851) scale(6.04592 -6.04592)"/><path fill="#fff" d="M-3.02762e-06 12.9672H7.38052V11.3133H1.86387V7.35322H7.19424V5.68928H1.86387V1.65446H7.5573V-5.52612e-06H-3.02762e-06V12.9672Z" transform="translate(200.799 343.74) scale(6.04592 -6.04592)"/><path fill="#fff" d="M18.0191 13.042H19.8777L14.6138 -4.62652e-06H14.2043L9.94781 10.5605L5.64699 -4.62652e-06H5.24699L3.22087e-06 13.042H1.87759L5.46493 4.09061L9.07709 13.042H10.8391L14.4676 4.09061L18.0191 13.042Z" transform="translate(256.741 344.192) scale(6.04592 -6.04592)"/><path fill="#fff" d="M3.87707 5.58927L2.4607 6.44781C1.57204 6.98894 0.939846 7.52113 0.564118 8.04489C0.18839 8.56865 -1.41718e-06 9.17137 -1.41718e-06 9.85305C-1.41718e-06 10.8758 0.355679 11.706 1.06756 12.3439C1.77838 12.9825 2.70292 13.302 3.84013 13.302C4.92668 13.302 5.92404 12.9972 6.8317 12.3887V10.2784C5.89344 11.1785 4.88341 11.6286 3.80266 11.6286C3.19369 11.6286 2.69342 11.488 2.30186 11.207C1.91083 10.9264 1.71452 10.5668 1.71452 10.1284C1.71452 9.73988 1.85911 9.37509 2.14724 9.03609C2.4359 8.69604 2.89922 8.33968 3.53828 7.96699L4.96203 7.12633C6.5499 6.17987 7.34358 4.97549 7.34358 3.51317C7.34358 2.47196 6.99424 1.62603 6.29555 0.97541C5.59634 0.324786 4.68763 1.7992e-06 3.56942 1.7992e-06C2.28392 1.7992e-06 1.11294 0.39322 0.0564685 1.18229V3.54369C1.06228 2.27139 2.22745 1.63551 3.55094 1.63551C4.13512 1.63551 4.62113 1.79764 5.00952 2.1219C5.39792 2.44616 5.59212 2.85201 5.59212 3.33998C5.59212 4.1301 5.02008 4.87969 3.87707 5.58927Z" transform="translate(384.012 344.749) scale(6.04592 -6.04592)"/><path fill="#fff" d="M18.0191 13.042H19.8782L14.6149 -3.72692e-06H14.2048L9.94834 10.5595L5.64753 -3.72692e-06H5.24752L-1.93252e-06 13.042H1.87864L5.46599 4.08956L9.07763 13.042H10.8396L14.4682 4.08956L18.0191 13.042Z" transform="translate(56.1077 237.233) scale(6.04592 -6.04592)"/><path fill="#fff" d="M7.0412 11.5544C5.55096 11.5544 4.32668 11.0896 3.36783 10.1605C2.40846 9.23033 1.92929 8.0433 1.92929 6.59993C1.92929 5.19919 2.41056 4.03376 3.37258 3.10415C4.33459 2.17506 5.53882 1.71026 6.98526 1.71026C8.43699 1.71026 9.64913 2.18454 10.6212 3.13258C11.5922 4.08062 12.0776 5.26132 12.0776 6.67416C12.0776 8.05016 11.5922 9.20716 10.6212 10.1463C9.64913 11.0853 8.45599 11.5544 7.0412 11.5544ZM6.96627 13.3209C8.97789 13.3209 10.6528 12.6856 11.9906 11.4149C13.3283 10.1447 13.998 8.55181 13.998 6.63731C13.998 4.72176 13.3225 3.13731 11.9721 1.88186C10.6217 0.627464 8.91931 -4.75503e-06 6.86336 -4.75503e-06C4.9024 -4.75503e-06 3.26757 0.627464 1.96096 1.88186C0.653833 3.13731 1.28835e-06 4.70965 1.28835e-06 6.59993C1.28835e-06 8.53969 0.658051 10.1447 1.97415 11.4149C3.29078 12.6856 4.95465 13.3209 6.96627 13.3209Z" transform="translate(178.064 237.796) scale(6.04592 -6.04592)"/><path fill="#fff" d="M2.42271 11.4059H1.86386V7.30636H2.57204C3.51611 7.30636 4.16361 7.3869 4.51507 7.5485C4.86599 7.70905 5.13934 7.95278 5.33512 8.27756C5.5309 8.60287 5.62853 8.97346 5.62853 9.38931C5.62853 9.79779 5.51982 10.1678 5.30241 10.5C5.08499 10.8316 4.77892 11.0653 4.38472 11.2012C3.99 11.338 3.33564 11.4059 2.42271 11.4059ZM4.50922e-07 2.05623e-06V12.9867H3.26123C4.57839 12.9867 5.62431 12.6614 6.3974 12.0107C7.17102 11.3596 7.5573 10.48 7.5573 9.37035C7.5573 8.61392 7.36838 7.96015 6.98948 7.40848C6.61006 6.85735 6.06652 6.44464 5.35834 6.1725C5.7747 5.8993 6.18156 5.52767 6.57893 5.05654C6.97682 4.58595 7.53566 3.76531 8.25651 2.59408C8.71034 1.85607 9.07393 1.30125 9.34676 0.930141L10.0365 2.05623e-06H7.81851L7.2507 0.855394C7.23171 0.886451 7.19476 0.939614 7.13883 1.01384L6.77629 1.5255L6.19898 2.47405L5.57523 3.4879C5.19106 4.02114 4.83855 4.4454 4.51823 4.76123C4.19791 5.07654 3.9082 5.30396 3.65068 5.44345C3.3921 5.58189 2.95833 5.6519 2.34883 5.6519H1.86386V2.05623e-06H4.50922e-07Z" transform="translate(275.737 236.899) scale(6.04592 -6.04592)"/><path fill="#fff" d="M-9.01844e-07 12.9867H1.86386V1.69183H7.72511V2.05623e-06H-9.01844e-07V12.9867Z" transform="translate(347.405 236.899) scale(6.04592 -6.04592)"/><path fill="#fff" d="M4.19369 11.3128H1.86386V1.65445H4.2491C5.18156 1.65445 5.90505 1.71762 6.42115 1.84501C6.93619 1.97187 7.36626 2.13347 7.71191 2.32824C8.05598 2.52406 8.37155 2.76358 8.65704 3.04888C9.57631 3.9785 10.0365 5.15235 10.0365 6.57204C10.0365 7.96646 9.56417 9.10348 8.6201 9.98308C8.27234 10.3116 7.87287 10.5816 7.42274 10.7921C6.97155 11.0027 6.54463 11.1422 6.14093 11.2106C5.73723 11.2785 5.08815 11.3128 4.19369 11.3128ZM2.31903e-06 7.71086e-06V12.9677H4.38894C6.15992 12.9677 7.56046 12.7024 8.59266 12.1724C9.6238 11.6428 10.4433 10.8637 11.0523 9.83463C11.6613 8.80606 11.9658 7.68431 11.9658 6.46992C11.9658 5.60189 11.798 4.77177 11.4623 3.97849C11.1267 3.18469 10.6486 2.48774 10.0275 1.88713C9.39371 1.26651 8.65705 0.799075 7.81852 0.483238C7.32775 0.291104 6.87762 0.162662 6.46706 0.0973895C6.05703 0.0321165 5.27444 7.71086e-06 4.11929 7.71086e-06H2.31903e-06Z" transform="translate(407.545 236.784) scale(6.04592 -6.04592)"/><path fill="#fff" d="M3.16044 1.15913C3.15939 0.88119 3.0739 0.601136 2.82482 0.383735C2.57627 0.165808 2.14619 7.1968e-06 1.43378 7.1968e-06H3.99388e-06V2.29351H1.36993C2.00898 2.29351 2.46228 2.16401 2.74671 1.96241C3.03009 1.75922 3.15833 1.49233 3.16044 1.15913Z" transform="translate(259.258 105.189) scale(6.04592 -6.04592)"/><path fill="#fff" d="M1.99896 0.300039C2.26598 0.491647 2.39473 0.763275 2.39632 1.17018C2.39526 1.44969 2.31505 1.68919 2.11347 1.86764C1.91135 2.04662 1.56835 2.17349 1.01426 2.17349H3.99388e-06V6.68275e-06H0.696042C1.29868 6.68275e-06 1.73035 0.106853 1.99896 0.300039Z" transform="translate(259.258 83.392) scale(6.04592 -6.04592)"/><path fill="#fff" d="M9.47763 3.9327C9.48132 4.99286 8.77367 5.79876 7.64068 6.10828C7.94675 6.2641 8.18843 6.45465 8.36574 6.68679C8.60216 6.99842 8.71562 7.38005 8.71403 7.82538C8.71562 8.37178 8.49978 8.92924 8.03698 9.34667C7.57365 9.76357 6.87075 10.0336 5.91138 10.0331H3.26176V1.62866H6.36996H6.37154C7.48078 1.62866 8.25968 1.92871 8.761 2.37351C9.26285 2.81621 9.47816 3.39735 9.47763 3.9327ZM12.4312 -3.21286e-06H-5.15339e-07V11.6691H12.4312V-3.21286e-06Z" transform="translate(230.416 122.976) scale(6.04592 -6.04592)"/><path fill="#fff" d="M1.99843 0.300039C2.26492 0.491647 2.39421 0.763275 2.39632 1.17018C2.39579 1.44969 2.31505 1.68919 2.11347 1.86764C1.91083 2.04662 1.56782 2.17349 1.0132 2.17349H-3.15645e-06V6.68275e-06H0.696043C1.29816 6.68275e-06 1.72982 0.106853 1.99843 0.300039Z" transform="translate(172.662 83.392) scale(6.04592 -6.04592)"/><path fill="#fff" d="M2.74619 1.96241C2.46228 2.16401 2.00846 2.29351 1.36993 2.29351H-3.15645e-06V7.1968e-06H1.43378C2.14619 7.1968e-06 2.57521 0.165808 2.82429 0.383735C3.07337 0.601136 3.15938 0.88119 3.15991 1.15913C3.1578 1.49233 3.02957 1.75922 2.74619 1.96241Z" transform="translate(172.662 105.189) scale(6.04592 -6.04592)"/><path fill="#fff" d="M9.4771 3.9327C9.4808 4.99286 8.77208 5.79876 7.64067 6.10828C7.94569 6.2641 8.18738 6.45465 8.36416 6.68679C8.60163 6.99842 8.71403 7.38005 8.71351 7.82538C8.71403 8.37178 8.49873 8.92924 8.03593 9.34667C7.57313 9.76357 6.87022 10.0336 5.91085 10.0331H3.2607V1.62866H6.36837H6.37048C7.48025 1.62866 8.25862 1.92871 8.75994 2.37351C9.26127 2.81621 9.47816 3.39735 9.4771 3.9327ZM12.4307 -3.21286e-06H-3.92946e-06V11.6691H12.4307V-3.21286e-06Z" transform="translate(143.823 122.976) scale(6.04592 -6.04592)"/><path fill="#fff" d="M9.96206 3.87848L9.76259 3.75687C8.80005 3.17047 7.75308 2.85622 6.80215 2.85674C4.76625 2.86464 3.42588 4.06798 3.4206 5.81877C3.42271 7.53219 4.82272 8.80027 6.75044 8.80448C7.7325 8.80396 8.62168 8.55075 9.67868 7.97277L9.87288 7.86644V9.43036L9.7895 9.46301C8.59794 9.93202 7.67498 10.141 6.76363 10.1405C5.35412 10.141 4.13142 9.67671 3.26018 8.88922C2.38946 8.10121 1.87178 6.98894 1.87284 5.71138C1.87337 4.82125 2.24117 3.77846 3.02957 2.95044C3.81532 2.12243 5.02641 1.51917 6.68711 1.51969H6.69291C8.07023 1.51969 9.02538 1.82553 9.88871 2.25033L9.96206 2.28614V3.87848ZM12.4307 -3.21286e-06H-1.99694e-06V11.6691H12.4307V-3.21286e-06Z" transform="translate(317.018 122.976) scale(6.04592 -6.04592)"/></svg>