<svg width="512" height="512" viewBox="0 0 512 512" fill="none" xmlns="http://www.w3.org/2000/svg">
<path d="M1.51367e-05 36.207C36.864 72.969 57.557 122.914 57.489 174.985H108.689C108.774 109.338 82.688 46.362 36.207 -6.10352e-07L1.51367e-05 36.207ZM69.802 99.209C66.67 90.565 63.001 82.125 58.811 73.942C63.001 82.125 66.671 90.565 69.802 99.209Z" transform="translate(394.778 81.015)" fill="#fda616"/>
<path d="M138.778 108.689L174.985 72.4822C128.623 26.0012 65.647 -0.0847929 0 0.000207069V51.2002C52.07 51.1322 102.016 71.8252 138.778 108.689ZM93.909 46.3962C85.58 42.4962 77.013 39.1262 68.266 36.3012C77.013 39.1262 85.581 42.4962 93.909 46.3962Z" transform="translate(256 8.53281)" fill="#fda616"/>
<path d="M174.985 51.2002V0.000207069C109.338 -0.0847929 46.362 26.0012 -6.10352e-07 72.4822L36.207 108.689C72.969 71.8252 122.915 51.1322 174.985 51.2002ZM73.942 49.8782C82.125 45.6882 90.565 42.0192 99.209 38.8872C90.565 42.0182 82.125 45.6882 73.942 49.8782Z" transform="translate(81.0149 8.53281)" fill="#fda616"/>
<path d="M1.51367e-05 138.778L36.207 174.985C82.688 128.623 108.774 65.647 108.689 0H57.489C57.557 52.07 36.864 102.016 1.51367e-05 138.778ZM72.388 68.267C69.563 77.014 66.193 85.581 62.293 93.91C66.193 85.581 69.563 77.013 72.388 68.267Z" transform="translate(394.778 256)" fill="#fda616"/>
<path d="M108.689 36.207L72.4822 -6.10352e-07C26.0012 46.362 -0.0847929 109.338 0.000207069 174.985H51.2002C51.1322 122.915 71.8252 72.969 108.689 36.207ZM36.3012 106.718C39.1342 97.98 42.5052 89.429 46.3962 81.118C42.5052 89.43 39.1342 97.98 36.3012 106.718Z" transform="translate(8.53271 81.015)" fill="#fda616"/>
<path d="M36.207 1.51367e-05L-6.10352e-07 36.207C46.362 82.688 109.338 108.774 174.985 108.689V57.489C122.915 57.557 72.969 36.864 36.207 1.51367e-05ZM81.118 62.293C89.429 66.184 97.98 69.555 106.718 72.388C97.98 69.555 89.43 66.184 81.118 62.293Z" transform="translate(81.0149 394.778)" fill="#fda616"/>
<path d="M51.2002 0H0.000207069C-0.0847929 65.647 26.0012 128.623 72.4822 174.985L108.689 138.778C71.8252 102.016 51.1322 52.07 51.2002 0ZM38.8872 75.776C42.0192 84.42 45.6882 92.86 49.8782 101.043C45.6882 92.86 42.0182 84.42 38.8872 75.776Z" transform="translate(8.53271 256)" fill="#fda616"/>
<path d="M0 57.489V108.689C65.647 108.774 128.623 82.688 174.985 36.207L138.778 1.51367e-05C102.016 36.864 52.07 57.557 0 57.489ZM101.043 58.811C92.86 63.001 84.42 66.67 75.776 69.802C84.42 66.671 92.86 63.001 101.043 58.811Z" transform="translate(256 394.778)" fill="#fda616"/>
<path d="M57.4785 57.4777C-19.1595 134.124 -19.1595 258.387 57.4785 335.033C134.125 411.671 258.388 411.671 335.034 335.033C411.672 258.387 411.672 134.124 335.034 57.4777C258.388 -19.1593 134.126 -19.1593 57.4785 57.4777ZM204.789 34.1227V76.7897H238.922C267.201 76.7897 290.122 99.7107 290.122 127.99V145.056C290.122 173.335 267.201 196.256 238.922 196.256C267.201 196.256 290.122 219.177 290.122 247.456V264.523C290.122 292.802 267.201 315.723 238.922 315.723H204.789H170.656H153.589V76.7888H170.656H204.789V34.1227Z" transform="translate(59.7434 59.7443)" fill="#fda616"/>
<path d="M-7.44629e-06 4.76074e-06V119.467H85.333C113.612 119.467 136.533 96.546 136.533 68.267V51.2C136.533 22.921 113.612 4.76074e-06 85.333 4.76074e-06H-7.44629e-06V4.76074e-06Z" transform="translate(213.333 136.533)" fill="#fda616"/>
<path d="M-7.44629e-06 119.467H85.333C113.612 119.467 136.533 96.546 136.533 68.267V51.2C136.533 22.921 113.612 0 85.333 0H-7.44629e-06V119.467Z" transform="translate(213.333 256)" fill="#fda616"/>
<path d="M256 0C114.611 0 0 114.611 0 256C0 397.389 114.611 512 256 512C397.389 512 512 397.389 512 256C511.838 114.679 397.321 0.162 256 0ZM256 443.733C152.32 443.733 68.267 359.68 68.267 256C68.267 152.32 152.32 68.267 256 68.267C359.68 68.267 443.733 152.32 443.733 256C443.614 359.637 359.637 443.614 256 443.733ZM394.573 105.361C358.998 72.516 312.909 53.402 264.534 51.413V17.28C321.955 19.294 376.713 42.018 418.697 81.237L394.573 105.361ZM247.467 51.413C199.092 53.401 153.003 72.516 117.428 105.361L93.303 81.237C135.287 42.018 190.045 19.294 247.466 17.28V51.413H247.467ZM105.361 117.427C72.516 153.002 53.402 199.091 51.413 247.466H17.28C19.294 190.045 42.018 135.287 81.237 93.303L105.361 117.427ZM51.413 264.533C53.401 312.908 72.516 358.997 105.361 394.572L81.237 418.696C42.018 376.712 19.294 321.954 17.28 264.533H51.413ZM117.427 406.639C153.002 439.484 199.091 458.598 247.466 460.587V494.72C190.037 492.689 135.287 469.956 93.303 430.72L117.427 406.639ZM264.533 460.587C312.908 458.599 358.997 439.484 394.572 406.639L418.696 430.763C376.712 469.982 321.954 492.706 264.533 494.72V460.587ZM406.639 394.573C439.484 358.998 458.598 312.909 460.587 264.534H494.72C492.689 321.963 469.956 376.713 430.72 418.697L406.639 394.573ZM460.587 247.467C458.599 199.092 439.484 153.003 406.639 117.428L430.763 93.304C469.982 135.288 492.706 190.046 494.72 247.467H460.587V247.467Z" fill="#212121"/>
<path d="M5.92565 42.2944C10.4056 43.7454 15.2186 41.2874 16.6776 36.8074V36.7984C19.3916 28.3844 22.6336 20.1584 26.3796 12.1544C28.3766 7.88735 26.5336 2.80135 22.2666 0.805354C17.9996 -1.19065 12.9136 0.651361 10.9176 4.91836C6.87265 13.5714 3.36565 22.4634 0.412648 31.5514C-1.02935 36.0404 1.42765 40.8444 5.91665 42.2944C5.91665 42.2944 5.92565 42.2944 5.92565 42.2944Z" transform="translate(36.2803 153.555)" fill="#212121"/>
<path d="M27.1014 29.9175C23.0904 22.0495 19.5664 13.9344 16.5624 5.63144C14.9584 1.20245 10.0604 -1.09255 5.63144 0.51145C1.20244 2.11545 -1.09255 7.01345 0.511446 11.4424C3.76245 20.4284 7.56845 29.2084 11.9124 37.7164C13.9344 41.9744 19.0204 43.7924 23.2784 41.7694C27.5364 39.7474 29.3544 34.6614 27.3314 30.4034C27.2634 30.2494 27.1864 30.1045 27.1014 29.9515V29.9175Z" transform="translate(38.9036 323.244)" fill="#212121"/>
<path d="M41.3944 4.64689C39.2524 0.456893 34.1155 -1.20711 29.9175 0.934888C22.0495 4.94589 13.9344 8.46989 5.63144 11.4739C1.20245 13.0779 -1.09255 17.9759 0.51145 22.4049C2.11545 26.8339 7.01345 29.1289 11.4424 27.5249C20.4284 24.2739 29.2084 20.4679 37.7164 16.1239C41.8974 13.9649 43.5444 8.82789 41.3944 4.64689Z" transform="translate(323.244 445.06)" fill="#212121"/>
<path d="M1.05674 12.6787C5.06774 20.5467 8.59174 28.6617 11.5957 36.9647C13.1997 41.3937 18.0977 43.6887 22.5267 42.0847C26.9557 40.4807 29.2507 35.5827 27.6467 31.1537C24.3957 22.1677 20.5897 13.3877 16.2457 4.87974C14.2237 0.621737 9.13774 -1.19626 4.87974 0.826742C0.621736 2.84974 -1.19624 7.93474 0.826758 12.1927C0.894758 12.3467 0.971738 12.4917 1.05674 12.6447V12.6787Z" transform="translate(444.938 146.16)" fill="#212121"/>
<path d="M0.943957 23.3894C2.40296 26.2484 5.33895 28.0404 8.54695 28.0404C9.89495 28.0404 11.226 27.7164 12.421 27.1014C20.289 23.0904 28.404 19.5664 36.707 16.5624C41.136 14.9584 43.431 10.0604 41.827 5.63144C40.223 1.20244 35.325 -1.09255 30.896 0.511446C21.91 3.76245 13.13 7.56845 4.62195 11.9124C0.44095 14.0714 -1.20604 19.2084 0.943957 23.3894Z" transform="translate(146.418 38.9036)" fill="#212121"/>
<path d="M36.7984 10.5078C28.3844 7.79378 20.1584 4.55178 12.1544 0.805783C7.88735 -1.19122 2.80135 0.65179 0.805354 4.91879C-1.19065 9.18579 0.651361 14.2718 4.91836 16.2678C13.5714 20.3128 22.4634 23.8198 31.5514 26.7728C32.4044 27.0458 33.2833 27.1828 34.1793 27.1908C38.8893 27.2078 42.7293 23.4018 42.7463 18.6918C42.7633 14.9628 40.3484 11.6518 36.7984 10.5258V10.5078V10.5078Z" transform="translate(153.555 448.534)" fill="#212121"/>
<path d="M21.2598 0.416909C16.7798 -1.03409 11.9668 1.42391 10.5078 5.90391V5.91291C7.79378 14.3269 4.55178 22.5529 0.805783 30.5569C-1.19122 34.8239 0.65179 39.9099 4.91879 41.9059C9.18579 43.9029 14.2718 42.0599 16.2678 37.7929C20.3128 29.1399 23.8198 20.2479 26.7728 11.1599C28.2148 6.67092 25.7578 1.86691 21.2688 0.416909C21.2688 0.416909 21.2598 0.416909 21.2598 0.416909Z" transform="translate(448.534 315.734)" fill="#212121"/>
<path d="M37.356 10.7902C28.703 6.74518 19.811 3.23818 10.723 0.285181C6.16598 -0.917819 1.49798 1.79518 0.286977 6.35218C-0.831023 10.5592 1.40496 14.9372 5.47496 16.4982C13.889 19.2122 22.115 22.4542 30.119 26.2002C34.386 28.1972 39.472 26.3542 41.468 22.0872C43.465 17.8202 41.622 12.7342 37.355 10.7382L37.356 10.7902Z" transform="translate(316.171 36.4078)" fill="#212121"/>
<path d="M23.1068 234.4C24.8819 239.727 47.0114 261.701 70.0131 261.701C104.135 261.701 124.069 241.958 124.069 213.396C124.069 186.929 110.264 171.808 75.3816 157.107C33.2129 140.725 7.14356 116.78 7.14356 76.8727C7.14356 32.7636 40.4987 -1.41437e-07 90.714 -1.41437e-07C117.167 -1.41437e-07 143.966 15.9801 152.854 26.6336L131.522 47.9466C123.092 42.9041 112.967 30.2424 89.5635 30.2424C54.3096 30.2424 40.876 53.3474 40.876 72.6707C40.876 99.1374 56.598 112.158 92.2478 127.279C135.95 145.762 158.185 168.867 158.185 210.455C158.185 254.143 128.498 293 67.5391 293C42.6201 293 15.9942 277.02 -1.50999e-06 257.487L23.1068 234.4Z" transform="translate(178.237 110)" fill="#212121"/>
<path d="M1.15808 2.42681C1.15808 2.42681 -2.39206 13.0802 2.93932 23.7337C2.93932 23.7337 91.804 11.3005 90.0289 84.1133C90.0289 84.1133 100.692 87.6603 111.354 107.194C111.354 107.194 136.236 -18.8862 1.15808 2.42681V2.42681Z" transform="translate(226.842 169.726)" fill="#212121"/>
<path d="M117.386 115.871C117.386 115.871 123.571 102.932 118.208 90.4985C118.208 90.4985 20.4868 110.032 23.3814 25.5521C23.3814 25.5521 13.2381 20.7013 5.08644 -3.77165e-07C5.11737 -3.77165e-07 -36.4204 134.892 117.386 115.871Z" transform="translate(172 218.388)" fill="#212121"/>
</svg>
