<svg width="512" height="512" viewBox="0 0 512 512" fill="none" xmlns="http://www.w3.org/2000/svg">
<path d="M76.279 -1.95312e-06C34.148 -1.95312e-06 -3.11279e-06 34.147 -3.11279e-06 76.279C-3.11279e-06 118.411 34.147 152.558 76.279 152.558C118.411 152.558 152.558 118.411 152.558 76.279C152.558 34.147 118.411 -1.95312e-06 76.279 -1.95312e-06ZM110.181 93.23C110.181 102.595 102.595 110.181 93.23 110.181H76.279H59.328V42.378H76.279H93.23C102.595 42.378 110.181 49.963 110.181 59.329C110.181 68.694 102.595 76.28 93.23 76.28C102.596 76.279 110.181 83.873 110.181 93.23Z" transform="translate(95.2134 298.626)" fill="#fda616"/>
<path d="M50.853 16.951C50.853 7.586 43.267 1.2207e-05 33.902 1.2207e-05H7.44629e-06V33.902H33.902C43.268 33.902 50.853 26.316 50.853 16.951Z" transform="translate(154.542 341.003)" fill="#fda616"/>
<path d="M-7.32422e-07 33.902H33.902C43.267 33.902 50.853 26.316 50.853 16.951C50.853 7.586 43.267 1.31836e-05 33.902 1.31836e-05H-7.32422e-07V33.902Z" transform="translate(154.542 374.904)" fill="#fda616"/>
<path d="M0 76.279C0 118.41 34.147 152.558 76.279 152.558C118.411 152.558 152.558 118.411 152.558 76.279C152.558 34.147 118.411 2.01416e-06 76.279 2.01416e-06C34.147 2.01416e-06 0 34.156 0 76.279ZM110.18 59.328C110.18 68.693 102.595 76.279 93.229 76.279C102.594 76.279 110.18 83.865 110.18 93.23C110.18 102.595 102.595 110.181 93.229 110.181H76.278H59.327V42.378H76.278H93.229C102.595 42.377 110.18 49.971 110.18 59.328Z" transform="translate(298.625 95.2161)" fill="#fda616"/>
<path d="M2.92969e-06 -6.71387e-06V33.902H33.902C43.267 33.902 50.853 26.317 50.853 16.951C50.853 7.586 43.268 -6.71387e-06 33.902 -6.71387e-06H2.92969e-06V-6.71387e-06Z" transform="translate(357.952 137.593)" fill="#fda616"/>
<path d="M2.92969e-06 33.902H33.902C43.267 33.902 50.853 26.317 50.853 16.951C50.853 7.586 43.268 -5.7373e-06 33.902 -5.7373e-06H2.92969e-06V33.902Z" transform="translate(357.952 171.494)" fill="#fda616"/>
<path d="M143.836 59.93L113.867 29.969L95.89 11.984L83.906 2.44141e-06L53.937 29.969L29.969 53.937L-3.23486e-06 83.907L11.984 95.891L47.945 131.852L59.929 143.836L89.898 113.867L113.867 89.899L143.836 59.93Z" transform="translate(88.8662 88.868)" fill="#414042"/>
<path d="M23.968 4.5166e-06L6.46973e-06 23.968L295.462 319.43C302.412 325.753 313.082 325.575 319.829 319.032C326.236 312.862 326.431 302.666 320.261 296.259C319.998 295.979 319.719 295.717 319.43 295.462L23.968 4.5166e-06Z" transform="translate(178.765 178.767)" fill="#58595B"/>
<path d="M33.901 -3.66211e-06H2.13623e-06V37.41H33.901V-3.66211e-06Z" transform="translate(142.798 118.84) rotate(135)" fill="#58595B"/>
<path d="M23.968 -3.41797e-06L-1.46484e-06 23.968L23.968 -3.41797e-06Z" transform="translate(118.835 118.837)" fill="#fda616"/>
<path d="M59.5669 32.706C15.8769 76.405 -5.58309 137.589 1.24791 199.002L2.43491 209.715L11.3849 188.823C29.2339 147.217 54.8469 109.391 86.8669 77.38L128.286 35.961L92.3249 -7.08008e-06L59.5669 32.706Z" transform="translate(8.52539 184.802)" fill="#E6E7E8"/>
<path d="M35.962 128.291L77.424 86.8723C109.436 54.8523 147.261 29.2313 188.867 11.3903L209.759 2.44032L199.046 1.24532C137.633 -5.57768 76.449 15.8823 32.749 59.5733L3.78418e-06 92.3223L17.976 110.307L35.962 128.291Z" transform="translate(184.756 8.52173)" fill="#E6E7E8"/>
<path d="M17.977 17.985L3.78418e-06 3.60107e-06L17.977 17.985Z" transform="translate(184.756 100.852)" fill="#fda616"/>
<path d="M84.754 -8.05664e-06C37.944 -8.05664e-06 -1.58691e-06 37.944 -1.58691e-06 84.754C-1.58691e-06 131.564 37.944 169.508 84.754 169.508C131.564 169.508 169.508 131.564 169.508 84.754C169.458 37.969 131.547 0.0499919 84.754 -8.05664e-06ZM84.754 152.557C47.31 152.557 16.951 122.198 16.951 84.754C16.951 47.31 47.31 16.951 84.754 16.951C122.198 16.951 152.557 47.31 152.557 84.754C152.515 122.19 122.182 152.515 84.754 152.557Z" transform="translate(86.7383 290.151)" fill="#37474F"/>
<path d="M84.754 3.54004e-06C37.944 3.54004e-06 -1.31836e-05 37.944 -1.31836e-05 84.754C-1.31836e-05 131.564 37.944 169.508 84.754 169.508C131.564 169.508 169.508 131.564 169.508 84.754C169.458 37.969 131.547 0.0500035 84.754 3.54004e-06ZM84.754 152.557C47.31 152.557 16.951 122.198 16.951 84.754C16.951 47.31 47.31 16.951 84.754 16.951C122.198 16.951 152.557 47.31 152.557 84.754C152.515 122.19 122.182 152.515 84.754 152.557Z" transform="translate(290.148 86.7411)" fill="#37474F"/>
<path d="M8.50909 21.4068C3.83109 21.4238 0.0170901 17.6518 9.01359e-05 12.9648C-0.0169099 9.09978 2.58509 5.71877 6.31409 4.73477L22.6881 0.352784C27.1721 -0.978216 31.8921 1.57278 33.2311 6.05678C34.5621 10.5398 32.0111 15.2608 27.5271 16.5998C27.3831 16.6418 27.2301 16.6848 27.0861 16.7188L10.7111 21.1088C9.99309 21.3138 9.25509 21.4068 8.50909 21.4068Z" transform="translate(472.819 130.052)" fill="#fda616"/>
<path d="M8.475 28.6905C3.797 28.6905 -8.54492e-06 24.8935 -8.54492e-06 20.2155C-8.54492e-06 17.9695 0.889993 15.8165 2.48299 14.2235L14.476 2.23948C17.917 -0.930518 23.282 -0.709518 26.452 2.73948C29.435 5.98548 29.435 10.9775 26.452 14.2155L14.475 26.2075C12.882 27.8005 10.729 28.6995 8.475 28.6905Z" transform="translate(444.334 73.3735)" fill="#fda616"/>
<path d="M20.4615 28.9375C18.2155 28.9375 16.0545 28.0475 14.4695 26.4545L2.48549 14.4785C-0.828507 11.1645 -0.828507 5.7995 2.48549 2.4855C5.79949 -0.828504 11.1645 -0.828504 14.4785 2.4855L26.4545 14.4785C29.7595 17.7925 29.7595 23.1575 26.4545 26.4625C24.8605 28.0565 22.7075 28.9465 20.4615 28.9375Z" transform="translate(444.332 240.922)" fill="#fda616"/>
<path d="M24.8365 21.3444C24.0905 21.3444 23.3535 21.2425 22.6415 21.0475L6.28345 16.6654C1.75745 15.4534 -0.920552 10.8085 0.291448 6.28346C1.50345 1.75746 6.14844 -0.920546 10.6734 0.291454L27.0475 4.68145C31.5735 5.89345 34.2515 10.5385 33.0395 15.0635C32.0475 18.7675 28.6835 21.3525 24.8525 21.3435L24.8365 21.3444Z" transform="translate(472.867 191.536)" fill="#fda616"/>
<path d="M12.8525 33.3274C9.02146 33.3274 5.66546 30.7504 4.67346 27.0474L0.291452 10.6735C-0.920548 6.14745 1.75746 1.50346 6.28346 0.291462C10.8095 -0.920538 15.4534 1.75747 16.6654 6.28347L21.0474 22.6585C22.2594 27.1755 19.5815 31.8285 15.0555 33.0405C14.3445 33.2335 13.6065 33.3274 12.8525 33.3274Z" transform="translate(191.542 472.854)" fill="#fda616"/>
<path d="M20.4615 28.9375C18.2155 28.9375 16.0545 28.0475 14.4695 26.4545L2.4855 14.4785C-0.828495 11.1645 -0.828495 5.79951 2.4855 2.48551C5.7995 -0.828485 11.1645 -0.828485 14.4785 2.48551L26.4545 14.4785C29.7595 17.7925 29.7595 23.1575 26.4545 26.4625C24.8695 28.0475 22.7085 28.9455 20.4625 28.9455V28.9375H20.4615Z" transform="translate(240.922 444.333)" fill="#fda616"/>
<path d="M8.47785 33.3284C7.74085 33.3284 7.00286 33.2264 6.28286 33.0404C1.76586 31.8284 -0.921147 27.1845 0.290853 22.6585L4.67286 6.28346C5.88486 1.75746 10.5299 -0.920545 15.0549 0.291455C19.5809 1.50346 22.2589 6.14844 21.0469 10.6734L16.6569 27.0474C15.6649 30.7514 12.3089 33.3284 8.47785 33.3284Z" transform="translate(130.114 472.853)" fill="#fda616"/>
<path d="M8.475 28.9365C3.797 28.9365 -1.64795e-06 25.1395 -1.64795e-06 20.4615C-1.64795e-06 18.2155 0.89 16.0625 2.483 14.4695L14.459 2.48549C17.773 -0.828509 23.138 -0.828509 26.452 2.48549C29.766 5.79949 29.766 11.1645 26.452 14.4785L14.459 26.4545C12.874 28.0475 10.721 28.9365 8.475 28.9365Z" transform="translate(73.1274 444.333)" fill="#fda616"/>
<path d="M504.187 468.236L214.717 178.767L238.694 154.79C241.999 151.485 241.999 146.111 238.694 142.806L232.702 136.814L268.129 101.387C299.369 70.0961 336.314 45.0851 376.962 27.7021L397.854 18.7521C402.16 16.9041 404.151 11.9211 402.304 7.62406C401.101 4.81906 398.482 2.87806 395.447 2.53906L384.743 1.35206C320.745 -5.92794 256.942 16.4551 211.514 62.1121L184.756 88.8681L178.764 82.8761C175.459 79.5711 170.085 79.5711 166.78 82.8761L142.803 106.853L122.335 86.3851C119.021 83.0801 113.665 83.0801 110.351 86.3851L86.3744 110.362C83.0694 113.676 83.0694 119.032 86.3744 122.346L106.842 142.806L82.8654 166.783C79.5604 170.088 79.5604 175.462 82.8654 178.767L88.8574 184.759L62.1094 211.516C16.4604 256.944 -5.92255 320.756 1.34945 384.745L2.53645 395.449C2.96045 399.28 5.90945 402.34 9.72345 402.899C10.1384 402.958 10.5544 402.984 10.9694 402.984C14.3514 402.984 17.4104 400.967 18.7494 397.856L27.6994 376.964C45.0824 336.307 70.0934 299.355 101.384 268.114L136.811 232.687L142.803 238.679C146.108 241.984 151.482 241.984 154.787 238.679L178.764 214.719L468.623 504.578C473.496 508.934 479.802 511.35 486.345 511.358C493.185 511.383 499.762 508.688 504.61 503.857C509.5 498.967 512.17 492.288 511.992 485.372C511.874 478.83 509.051 472.626 504.187 468.236ZM116.351 104.369L130.81 118.837L118.834 130.813L104.366 116.354L116.351 104.369ZM223.498 74.0951C259.519 37.9051 308.362 17.3781 359.418 16.9881C321.033 34.9141 286.08 59.4161 256.145 89.4021L220.718 124.829L196.741 100.861L223.498 74.0951ZM89.4004 256.147C59.4144 286.082 34.9124 321.035 16.9864 359.42C17.3764 308.364 37.9034 259.52 74.0934 223.5L100.858 196.743L124.826 220.72L89.4004 256.147ZM148.795 220.72L100.858 172.775L172.772 100.861L220.717 148.798L148.795 220.72ZM492.601 491.798C489.194 495.103 483.837 495.281 480.218 492.205L190.749 202.744L202.742 190.751L492.601 480.61C494.118 481.932 495.008 483.831 495.059 485.848C495.092 488.086 494.202 490.238 492.601 491.798Z" fill="#37474F"/>
<path d="M8.80259 88.8C9.4788 90.818 17.9091 99.1427 26.6717 99.1427C39.6705 99.1427 47.2644 91.6631 47.2644 80.8428C47.2644 70.8162 42.0055 65.0877 28.7168 59.5184C12.6525 53.3123 2.72136 44.2408 2.72136 29.1224C2.72136 12.4121 15.4281 -5.3582e-08 34.5577 -5.3582e-08C44.635 -5.3582e-08 54.8442 6.05391 58.23 10.0898L50.1036 18.1641C46.8922 16.2538 43.0351 11.457 34.1194 11.457C20.6894 11.457 15.5718 20.2101 15.5718 27.5305C15.5718 37.5572 21.5612 42.4897 35.142 48.2182C51.7906 55.2202 60.261 63.9734 60.261 79.7285C60.261 96.2796 48.9514 111 25.7292 111C16.2362 111 6.09301 104.946 -5.75233e-07 97.5461L8.80259 88.8Z" transform="translate(141.376 320)" fill="#37474F"/>
<path d="M0.441172 0.919373C0.441172 0.919373 -0.911262 4.95531 1.11974 8.99125C1.11974 8.99125 34.9729 4.28109 34.2967 31.8655C34.2967 31.8655 38.3587 33.2092 42.4207 40.6092C42.4207 40.6092 51.8996 -7.15484 0.441172 0.919373V0.919373Z" transform="translate(159.892 342.627)" fill="#37474F"/>
<path d="M44.7184 43.8967C44.7184 43.8967 47.0745 38.9946 45.0317 34.2844C45.0317 34.2844 7.80451 41.6844 8.90719 9.68017C8.90719 9.68017 5.0431 7.84245 1.93769 -1.42885e-07C1.94947 -1.42885e-07 -13.8744 51.1024 44.7184 43.8967Z" transform="translate(139 361.062)" fill="#37474F"/>
<path d="M8.80259 88.8C9.4788 90.818 17.9091 99.1427 26.6717 99.1427C39.6705 99.1427 47.2644 91.6631 47.2644 80.8428C47.2644 70.8162 42.0055 65.0877 28.7168 59.5184C12.6525 53.3123 2.72136 44.2408 2.72136 29.1224C2.72136 12.4121 15.4281 -5.3582e-08 34.5577 -5.3582e-08C44.635 -5.3582e-08 54.8442 6.05391 58.23 10.0898L50.1036 18.1641C46.8922 16.2538 43.0351 11.457 34.1194 11.457C20.6894 11.457 15.5718 20.2101 15.5718 27.5305C15.5718 37.5572 21.5612 42.4897 35.142 48.2182C51.7906 55.2202 60.261 63.9734 60.261 79.7285C60.261 96.2796 48.9514 111 25.7292 111C16.2362 111 6.09301 104.946 -5.75233e-07 97.5461L8.80259 88.8Z" transform="translate(345.376 119)" fill="#37474F"/>
<path d="M0.441172 0.919373C0.441172 0.919373 -0.911262 4.95531 1.11974 8.99125C1.11974 8.99125 34.9729 4.28109 34.2967 31.8655C34.2967 31.8655 38.3587 33.2092 42.4207 40.6092C42.4207 40.6092 51.8996 -7.15484 0.441172 0.919373V0.919373Z" transform="translate(363.892 141.627)" fill="#37474F"/>
<path d="M44.7184 43.8967C44.7184 43.8967 47.0745 38.9946 45.0317 34.2844C45.0317 34.2844 7.80451 41.6844 8.90719 9.68017C8.90719 9.68017 5.0431 7.84245 1.93769 -1.42885e-07C1.94947 -1.42885e-07 -13.8744 51.1024 44.7184 43.8967Z" transform="translate(343 160.062)" fill="#37474F"/>
</svg>
