<svg width="512" height="512" viewBox="0 0 512 512" fill="none" xmlns="http://www.w3.org/2000/svg">
<path d="M136.533 273.067C211.942 273.067 273.066 211.943 273.066 136.534C273.066 61.125 211.942 -7.62939e-09 136.533 -7.62939e-09C61.124 -7.62939e-09 6.10352e-06 61.125 6.10352e-06 136.534C6.10352e-06 211.943 61.124 273.067 136.533 273.067ZM136.533 34.134C193.083 34.134 238.933 79.984 238.933 136.534C238.933 193.084 193.083 238.934 136.533 238.934C79.983 238.934 34.133 193.084 34.133 136.534C34.133 79.984 79.983 34.134 136.533 34.134Z" transform="translate(153.6 8.53296)" fill="#FFAF46"/>
<path d="M102.4 204.8C158.95 204.8 204.8 158.95 204.8 102.4C204.8 45.85 158.95 -1.83105e-07 102.4 -1.83105e-07C45.85 -1.83105e-07 1.70898e-06 45.85 1.70898e-06 102.4C1.70898e-06 158.95 45.85 204.8 102.4 204.8ZM51.2 51.2H85.333H110.933H128C137.429 51.2 145.067 58.837 145.067 68.267V85.333C145.067 94.762 137.43 102.4 128 102.4C137.429 102.4 145.067 110.037 145.067 119.467V136.533C145.067 145.962 137.43 153.6 128 153.6H110.933H85.333H76.8V51.2H51.2V51.2Z" transform="translate(187.733 42.667)" fill="#FFAF46"/>
<path d="M51.2 51.201C60.629 51.201 68.267 43.564 68.267 34.134V17.067C68.267 7.638 60.63 -2.68555e-06 51.2 -2.68555e-06H-1.0498e-05V51.2H51.2V51.201Z" transform="translate(264.533 93.866)" fill="#FFAF46"/>
<path d="M-1.0498e-05 51.201H51.2C60.629 51.201 68.267 43.564 68.267 34.134V17.067C68.267 7.638 60.63 -5.7373e-06 51.2 -5.7373e-06H-1.0498e-05V51.201Z" transform="translate(264.533 145.066)" fill="#FFAF46"/>
<path d="M418.133 366.933H93.867C89.634 366.933 86.042 363.827 85.428 359.637L35.294 17.067H8.533C3.823 17.067 0 13.244 0 8.533C0 3.822 3.823 3.8147e-07 8.533 3.8147e-07H42.666C46.899 3.8147e-07 50.491 3.106 51.105 7.296L101.238 349.867H418.132C422.842 349.867 426.665 353.69 426.665 358.4C426.665 363.11 422.844 366.933 418.133 366.933Z" transform="translate(0 25.6)" fill="#231F20"/>
<path d="M51.2 102.4C22.921 102.4 0 79.479 0 51.2C0 22.921 22.921 6.10352e-06 51.2 6.10352e-06C79.479 6.10352e-06 102.4 22.921 102.4 51.2C102.374 79.462 79.462 102.374 51.2 102.4ZM51.2 17.067C32.35 17.067 17.067 32.35 17.067 51.2C17.067 70.05 32.35 85.333 51.2 85.333C70.05 85.333 85.333 70.05 85.333 51.2C85.333 32.35 70.05 17.067 51.2 17.067Z" transform="translate(128 409.6)" fill="#231F20"/>
<path d="M51.2 102.4C22.921 102.4 1.2207e-05 79.479 1.2207e-05 51.2C1.2207e-05 22.921 22.921 6.10352e-06 51.2 6.10352e-06C79.479 6.10352e-06 102.4 22.921 102.4 51.2C102.374 79.462 79.462 102.374 51.2 102.4ZM51.2 17.067C32.35 17.067 17.067 32.35 17.067 51.2C17.067 70.05 32.35 85.333 51.2 85.333C70.05 85.333 85.333 70.05 85.333 51.2C85.333 32.35 70.05 17.067 51.2 17.067Z" transform="translate(307.2 409.6)" fill="#231F20"/>
<path d="M319.076 238.933H42.6644C38.4574 238.933 34.8734 235.861 34.2334 231.697L0.100409 9.83C-0.616591 5.171 2.58341 0.819 7.23441 0.102C7.66941 0.0340002 8.09641 2.86865e-06 8.53141 2.86865e-06H34.1314C38.8414 2.86865e-06 42.6644 3.823 42.6644 8.533C42.6644 13.243 38.8414 17.066 34.1314 17.066H18.4814L49.9864 221.866H319.076C347.705 221.832 372.298 201.523 377.734 173.414L407.797 17.066H375.464C370.754 17.066 366.931 13.243 366.931 8.533C366.931 3.823 370.754 2.86865e-06 375.464 2.86865e-06H418.131C422.841 2.86865e-06 426.664 3.823 426.664 8.533C426.664 9.071 426.613 9.61701 426.51 10.146L394.493 176.64C387.496 212.778 355.88 238.89 319.076 238.933Z" transform="translate(85.3357 119.467)" fill="#231F20"/>
<path d="M110.933 221.867C49.664 221.867 -3.05176e-06 172.203 -3.05176e-06 110.934C-3.05176e-06 49.665 49.664 -5.79834e-07 110.933 -5.79834e-07C172.202 -5.79834e-07 221.866 49.664 221.866 110.933C221.798 172.169 172.169 221.799 110.933 221.867ZM110.933 17.067C59.093 17.067 17.066 59.094 17.066 110.934C17.066 162.774 59.093 204.801 110.933 204.801C162.773 204.801 204.8 162.774 204.8 110.934C204.74 59.119 162.748 17.127 110.933 17.067Z" transform="translate(179.2 34.1331)" fill="#231F20"/>
<path d="M145.067 290.133C64.948 290.133 -5.7373e-06 225.186 -5.7373e-06 145.066C-5.7373e-06 64.946 64.948 0 145.067 0C225.186 0 290.134 64.947 290.134 145.067C290.049 225.152 225.153 290.048 145.067 290.133ZM145.067 17.067C74.377 17.067 17.067 74.377 17.067 145.067C17.067 215.757 74.377 273.067 145.067 273.067C215.757 273.067 273.067 215.757 273.067 145.067C272.991 74.411 215.723 17.143 145.067 17.067Z" transform="translate(145.066)" fill="#231F20"/>
<path d="M10.7282 108.8C11.5523 111.272 21.8267 121.472 32.5061 121.472C48.3485 121.472 57.6035 112.308 57.6035 99.0507C57.6035 86.7658 51.1942 79.7471 34.9986 72.9234C15.4203 65.3196 3.31665 54.205 3.31665 35.6815C3.31665 15.2077 18.803 -6.565e-08 42.1172 -6.565e-08C54.3989 -6.565e-08 66.8413 7.4174 70.9678 12.3623L61.0638 22.2551C57.1498 19.9145 52.4491 14.0374 41.5831 14.0374C25.2152 14.0374 18.9781 24.762 18.9781 33.7311C18.9781 46.016 26.2777 52.0595 42.8293 59.0782C63.1198 67.6572 73.4431 78.3818 73.4431 97.6854C73.4431 117.964 59.6596 136 31.3574 136C19.7879 136 7.42586 128.583 -7.01065e-07 119.516L10.7282 108.8Z" transform="translate(253.896 77)" fill="#231F20"/>
<path d="M0.537678 1.12644C0.537678 1.12644 -1.1106 6.07137 1.36469 11.0163C1.36469 11.0163 42.6233 5.2453 41.7991 39.0424C41.7991 39.0424 46.7497 40.6888 51.7003 49.7554C51.7003 49.7554 63.2526 -8.76629 0.537678 1.12644V1.12644Z" transform="translate(276.462 104.723)" fill="#231F20"/>
<path d="M54.5005 53.7833C54.5005 53.7833 57.3721 47.7771 54.8824 42.0061C54.8824 42.0061 9.51175 51.0728 10.8556 11.8604C10.8556 11.8604 6.14628 9.60877 2.36156 -1.75067e-07C2.37592 -1.75067e-07 -16.9095 62.6119 54.5005 53.7833Z" transform="translate(251 127.31)" fill="#231F20"/>
</svg>
