<svg width="512" height="512" viewBox="0 0 512 512" fill="none" xmlns="http://www.w3.org/2000/svg">
<path d="M136.467 7.32422e-07C61.094 7.32422e-07 -1.83105e-07 61.095 -1.83105e-07 136.467C-1.83105e-07 211.839 61.095 272.934 136.467 272.934C211.839 272.934 272.934 211.839 272.934 136.467C272.934 61.095 211.831 7.32422e-07 136.467 7.32422e-07ZM136.467 238.817C79.944 238.817 34.116 192.99 34.116 136.466C34.116 79.942 79.943 34.115 136.467 34.115C192.991 34.115 238.818 79.942 238.818 136.466C238.818 192.99 192.99 238.817 136.467 238.817Z" transform="translate(119.447 93.9568)" fill="#fda616"/>
<path d="M102.351 -1.95313e-06C45.828 -1.95313e-06 4.76074e-06 45.827 4.76074e-06 102.351C4.76074e-06 158.875 45.827 204.702 102.351 204.702C158.875 204.702 204.702 158.875 204.702 102.351C204.702 45.827 158.874 -1.95313e-06 102.351 -1.95313e-06ZM144.997 85.293C144.997 94.718 137.363 102.351 127.939 102.351C137.364 102.351 144.997 109.985 144.997 119.409V136.467C144.997 145.892 137.363 153.525 127.939 153.525H110.881H85.292L85.505 179.113L85.292 153.525H76.763V51.176H85.292L85.505 25.588L85.292 51.176H110.88H127.938C137.363 51.176 144.996 58.81 144.996 68.234V85.293H144.997Z" transform="translate(153.563 128.073)" fill="#fda616"/>
<path d="M51.175 -7.08008e-06H5.24902e-06V51.175H51.175C60.6 51.175 68.233 43.541 68.233 34.117V17.059C68.234 7.633 60.592 -7.08008e-06 51.175 -7.08008e-06Z" transform="translate(230.326 179.249)" fill="#fda616"/>
<path d="M5.24902e-06 51.174H51.175C60.6 51.174 68.233 43.54 68.233 34.116V17.058C68.233 7.633 60.599 3.05176e-06 51.175 3.05176e-06H5.24902e-06V51.174Z" transform="translate(230.326 230.425)" fill="#fda616"/>
<path d="M17.058 34.116C26.4789 34.116 34.116 26.4789 34.116 17.058C34.116 7.63714 26.4789 0 17.058 0C7.63713 0 0 7.63714 0 17.058C0 26.4789 7.63713 34.116 17.058 34.116Z" transform="translate(238.89 469.276)" fill="#fda616"/>
<path d="M17.058 34.116C26.4789 34.116 34.116 26.4789 34.116 17.058C34.116 7.63714 26.4789 0 17.058 0C7.63712 0 1.24512e-05 7.63714 1.24512e-05 17.058C1.24512e-05 26.4789 7.63712 34.116 17.058 34.116Z" transform="translate(358.299 469.276)" fill="#fda616"/>
<path d="M17.058 34.116C26.4789 34.116 34.116 26.4789 34.116 17.058C34.116 7.63714 26.4789 0 17.058 0C7.63713 0 -1.31836e-05 7.63714 -1.31836e-05 17.058C-1.31836e-05 26.4789 7.63713 34.116 17.058 34.116Z" transform="translate(469.179 469.276)" fill="#fda616"/>
<path d="M17.058 34.116C26.4789 34.116 34.116 26.4789 34.116 17.058C34.116 7.63714 26.4789 0 17.058 0C7.63713 0 -3.60107e-06 7.63714 -3.60107e-06 17.058C-3.60107e-06 26.4789 7.63713 34.116 17.058 34.116Z" transform="translate(119.481 469.276)" fill="#fda616"/>
<path d="M17.058 34.116C26.4789 34.116 34.116 26.4789 34.116 17.058C34.116 7.63714 26.4789 0 17.058 0C7.63713 0 0 7.63714 0 17.058C0 26.4789 7.63713 34.116 17.058 34.116Z" transform="translate(8.60107 469.276)" fill="#fda616"/>
<path d="M110.88 221.76C49.64 221.76 -2.19727e-06 172.12 -2.19727e-06 110.88C-2.19727e-06 49.64 49.64 -1.28174e-06 110.88 -1.28174e-06C172.12 -1.28174e-06 221.76 49.64 221.76 110.88C221.683 172.086 172.085 221.683 110.88 221.76ZM110.88 17.059C59.065 17.059 17.059 59.065 17.059 110.88C17.059 162.695 59.065 204.701 110.88 204.701C162.695 204.701 204.701 162.695 204.701 110.88C204.633 59.082 162.669 17.118 110.88 17.059Z" transform="translate(145.034 119.544)" fill="#37474F"/>
<path d="M10.7282 108.8C11.5523 111.272 21.8267 121.472 32.5061 121.472C48.3485 121.472 57.6035 112.308 57.6035 99.0507C57.6035 86.7658 51.1942 79.7471 34.9986 72.9234C15.4203 65.3196 3.31665 54.205 3.31665 35.6815C3.31665 15.2077 18.803 -6.565e-08 42.1172 -6.565e-08C54.3989 -6.565e-08 66.8413 7.4174 70.9678 12.3623L61.0638 22.2551C57.1498 19.9145 52.4491 14.0374 41.5831 14.0374C25.2152 14.0374 18.9781 24.762 18.9781 33.7311C18.9781 46.016 26.2777 52.0595 42.8293 59.0782C63.1198 67.6572 73.4431 78.3818 73.4431 97.6854C73.4431 117.964 59.6596 136 31.3574 136C19.7879 136 7.42586 128.583 -7.01065e-07 119.516L10.7282 108.8Z" transform="translate(219.896 162)" fill="#37474F"/>
<path d="M0.537678 1.12644C0.537678 1.12644 -1.1106 6.07137 1.36469 11.0163C1.36469 11.0163 42.6233 5.2453 41.7991 39.0424C41.7991 39.0424 46.7497 40.6888 51.7003 49.7554C51.7003 49.7554 63.2526 -8.76629 0.537678 1.12644V1.12644Z" transform="translate(242.462 189.723)" fill="#37474F"/>
<path d="M54.5005 53.7833C54.5005 53.7833 57.3721 47.7771 54.8824 42.0061C54.8824 42.0061 9.51175 51.0728 10.8556 11.8604C10.8556 11.8604 6.14628 9.60877 2.36156 -1.75067e-07C2.37592 -1.75067e-07 -16.9095 62.6119 54.5005 53.7833Z" transform="translate(217 212.31)" fill="#37474F"/>
<path d="M144.997 289.994C64.916 289.994 1.0376e-06 225.078 1.0376e-06 144.997C1.0376e-06 64.916 64.916 1.95313e-06 144.997 1.95313e-06C225.078 1.95313e-06 289.994 64.916 289.994 144.997C289.9 225.035 225.035 289.9 144.997 289.994ZM144.997 17.059C74.341 17.059 17.059 74.341 17.059 144.997C17.059 215.653 74.341 272.935 144.997 272.935C215.653 272.935 272.935 215.653 272.935 144.997C272.85 74.367 215.619 17.136 144.997 17.059Z" transform="translate(110.917 85.4268)" fill="#37474F"/>
<path d="M34.1223 69.803V8.529C34.1223 3.821 30.3013 3.90625e-06 25.5933 3.90625e-06C20.8853 3.90625e-06 17.0643 3.821 17.0643 8.529V69.803C3.74131 74.511 -3.24367 89.13 1.47333 102.453C6.18133 115.776 20.8003 122.761 34.1233 118.044C47.4463 113.336 54.4313 98.717 49.7143 85.394C47.1383 78.11 41.4063 72.379 34.1223 69.803ZM25.5933 102.35C20.8853 102.35 17.0643 98.529 17.0643 93.821C17.0643 89.113 20.8853 85.292 25.5933 85.292C30.3013 85.292 34.1223 89.113 34.1223 93.821C34.1223 98.529 30.3013 102.35 25.5933 102.35Z" transform="translate(230.321 392.479)" fill="#37474F"/>
<path d="M68.233 76.763C64.429 76.78 60.676 77.65 57.256 79.322L57.205 79.245L17.058 39.115V8.529C17.058 3.821 13.237 1.2207e-05 8.52899 1.2207e-05C3.82099 1.2207e-05 -2.44141e-06 3.821 -2.44141e-06 8.529V42.646C-2.44141e-06 44.906 0.89599 47.081 2.49899 48.676L45.145 91.322L45.222 91.373C43.55 94.793 42.663 98.546 42.646 102.35C42.646 116.483 54.101 127.938 68.234 127.938C82.367 127.938 93.822 116.483 93.822 102.35C93.822 88.217 82.357 76.763 68.233 76.763ZM68.233 110.879C63.525 110.879 59.704 107.058 59.704 102.35C59.704 97.642 63.525 93.821 68.233 93.821C72.941 93.821 76.762 97.642 76.762 102.35C76.762 107.058 72.941 110.879 68.233 110.879Z" transform="translate(307.09 383.95)" fill="#37474F"/>
<path d="M110.879 127.938C107.075 127.955 103.322 128.825 99.902 130.497L99.851 130.42L17.058 47.644V8.52899C17.058 3.82099 13.237 -6.10352e-06 8.52899 -6.10352e-06C3.82099 -6.10352e-06 -7.32422e-07 3.82099 -7.32422e-07 8.52899V51.175C-7.32422e-07 53.435 0.895992 55.61 2.49899 57.205L87.791 142.497L87.868 142.548C86.196 145.968 85.309 149.721 85.292 153.525C85.292 167.658 96.747 179.113 110.88 179.113C125.013 179.113 136.468 167.658 136.468 153.525C136.468 139.392 125.004 127.938 110.879 127.938ZM110.879 162.054C106.171 162.054 102.35 158.233 102.35 153.525C102.35 148.817 106.171 144.996 110.879 144.996C115.587 144.996 119.408 148.817 119.408 153.525C119.408 158.233 115.588 162.054 110.879 162.054Z" transform="translate(375.323 332.775)" fill="#37474F"/>
<path d="M85.292 1.2207e-05C80.584 1.2207e-05 76.763 3.821 76.763 8.529V39.115L36.616 79.262L36.565 79.339C33.145 77.667 29.392 76.78 25.588 76.763C11.455 76.763 1.0376e-06 88.218 1.0376e-06 102.351C1.0376e-06 116.484 11.455 127.939 25.588 127.939C39.721 127.939 51.176 116.484 51.176 102.351C51.159 98.547 50.289 94.794 48.617 91.374L48.694 91.323L91.34 48.677C92.935 47.074 93.822 44.907 93.822 42.647V8.53001C93.822 3.81201 90 1.2207e-05 85.292 1.2207e-05ZM25.588 110.879C20.88 110.879 17.059 107.058 17.059 102.35C17.059 97.642 20.88 93.821 25.588 93.821C30.296 93.821 34.117 97.642 34.117 102.35C34.117 107.058 30.296 110.879 25.588 110.879Z" transform="translate(110.917 383.95)" fill="#37474F"/>
<path d="M48.676 142.497L133.968 57.205C135.571 55.61 136.467 53.435 136.467 51.175V8.52899C136.467 3.82099 132.646 -6.10352e-06 127.938 -6.10352e-06C123.23 -6.10352e-06 119.409 3.82099 119.409 8.52899V47.644L36.616 130.437L36.565 130.514C33.145 128.842 29.392 127.955 25.588 127.938C11.455 127.938 1.31131e-09 139.393 1.31131e-09 153.526C1.31131e-09 167.659 11.455 179.114 25.588 179.114C39.721 179.114 51.176 167.659 51.176 153.526C51.159 149.722 50.289 145.969 48.617 142.549L48.676 142.497ZM25.587 162.054C20.879 162.054 17.058 158.233 17.058 153.525C17.058 148.817 20.879 144.996 25.587 144.996C30.295 144.996 34.116 148.817 34.116 153.525C34.116 158.233 30.295 162.054 25.587 162.054Z" transform="translate(0.0380859 332.775)" fill="#37474F"/>
<path d="M457.868 182.72C469.212 141.874 445.296 99.5598 404.45 88.2158C391.358 84.5828 377.532 84.4798 364.388 87.9348C351.697 28.0258 292.854 -10.2622 232.945 2.42977C190.043 11.5138 156.523 45.0328 147.44 87.9348C106.338 77.2558 64.365 101.923 53.687 143.017C50.301 156.05 50.395 169.739 53.96 182.72C13.48 195.318 -9.11403 238.356 3.49297 278.827C13.489 310.914 43.196 332.774 76.802 332.766H102.39C107.098 332.766 110.919 328.945 110.919 324.237C110.919 319.529 107.098 315.708 102.39 315.708H76.8C43.826 315.674 17.13 288.909 17.164 255.935C17.198 226.961 38.026 202.192 66.565 197.194C71.205 196.392 74.318 191.983 73.525 187.343C73.414 186.686 73.226 186.055 72.962 185.441C69.832 178.089 68.237 170.174 68.271 162.182C68.305 129.225 95.019 102.512 127.975 102.478C135.856 102.461 143.669 104.03 150.927 107.101C155.268 108.926 160.266 106.896 162.1 102.555C162.416 101.804 162.62 101.011 162.714 100.201C168.676 48.7268 215.228 11.8298 266.702 17.7918C309.971 22.7988 344.096 56.9328 349.111 100.201C349.64 104.884 353.862 108.244 358.544 107.715C359.354 107.621 360.147 107.416 360.898 107.101C368.156 104.03 375.969 102.461 383.85 102.478C416.807 102.512 443.52 129.226 443.554 162.182C443.588 170.174 441.993 178.089 438.863 185.441C437.012 189.774 439.025 194.78 443.358 196.631C443.964 196.887 444.603 197.083 445.26 197.194C477.739 202.883 499.455 233.827 493.766 266.306C488.768 294.845 463.999 315.673 435.025 315.707H409.437C404.729 315.707 400.908 319.528 400.908 324.236C400.908 328.944 404.729 332.765 409.437 332.765H435.025C477.424 332.774 511.796 298.418 511.805 256.019C511.816 222.415 489.955 192.708 457.868 182.72Z" fill="#37474F"/>
</svg>
