<svg width="56" height="56" xmlns="http://www.w3.org/2000/svg"><g fill="none" fill-rule="evenodd"><circle fill="#FFF" cx="28" cy="28" r="28"/><path d="M28 0C12.539 0 0 12.537 0 27.999c0 3.091.5 6.064 1.426 8.844H9.8V13.285l18.2 18.2 18.2-18.2v23.558h8.374A27.95 27.95 0 0 0 56 28C56 12.537 43.461 0 28 0" fill="#F60" fill-rule="nonzero"/><path d="M15.715 27.563V42.47H3.763A28.394 28.394 0 0 0 28 55.998 28.393 28.393 0 0 0 52.238 42.47H40.286V27.563L28 39.76 15.715 27.563z" fill="#707070" fill-rule="nonzero"/></g></svg>