<svg width="512" height="512" fill="none" xmlns="http://www.w3.org/2000/svg"><path d="M290.133 281.6c75.409 0 136.533-61.124 136.533-136.533 0-75.409-61.124-136.534-136.533-136.534-75.409 0-136.533 61.125-136.533 136.534 0 75.409 61.124 136.533 136.533 136.533zm0-238.933c56.55 0 102.4 45.85 102.4 102.4 0 56.55-45.85 102.4-102.4 102.4-56.55 0-102.4-45.85-102.4-102.4 0-56.55 45.85-102.4 102.4-102.4z" fill="#FFAF46"/><path d="M290.133 247.467c56.55 0 102.4-45.85 102.4-102.4 0-56.55-45.85-102.4-102.4-102.4-56.55 0-102.4 45.85-102.4 102.4 0 56.55 45.85 102.4 102.4 102.4zm-51.2-153.6H315.733c9.429 0 17.067 7.637 17.067 17.067V128c0 9.429-7.637 17.067-17.067 17.067 9.429 0 17.067 7.637 17.067 17.067V179.2c0 9.429-7.637 17.067-17.067 17.067h-51.2v-102.4h-25.6z" fill="#FFAF46"/><path d="M315.733 145.067c9.429 0 17.067-7.637 17.067-17.067v-17.067c0-9.429-7.637-17.067-17.067-17.067h-51.2v51.2h51.2v.001z" fill="#FFAF46"/><path d="M264.533 196.267h51.2c9.429 0 17.067-7.637 17.067-17.067v-17.067c0-9.429-7.637-17.067-17.067-17.067h-51.2v51.201z" fill="#FFAF46"/><path d="M418.133 392.533H93.867a8.53 8.53 0 0 1-8.439-7.296L35.294 42.667H8.533C3.823 42.667 0 38.844 0 34.133A8.536 8.536 0 0 1 8.533 25.6h34.133a8.53 8.53 0 0 1 8.439 7.296l50.133 342.571h316.894a8.536 8.536 0 0 1 8.533 8.533c0 4.71-3.821 8.533-8.532 8.533zM179.2 512c-28.279 0-51.2-22.921-51.2-51.2 0-28.279 22.921-51.2 51.2-51.2 28.279 0 51.2 22.921 51.2 51.2-.026 28.262-22.938 51.174-51.2 51.2zm0-85.333c-18.85 0-34.133 15.283-34.133 34.133s15.283 34.133 34.133 34.133 34.133-15.283 34.133-34.133-15.283-34.133-34.133-34.133zM358.4 512c-28.279 0-51.2-22.921-51.2-51.2 0-28.279 22.921-51.2 51.2-51.2 28.279 0 51.2 22.921 51.2 51.2-.026 28.262-22.938 51.174-51.2 51.2zm0-85.333c-18.85 0-34.133 15.283-34.133 34.133s15.283 34.133 34.133 34.133 34.133-15.283 34.133-34.133-15.283-34.133-34.133-34.133z" fill="#231F20"/><path d="M404.412 358.4H128a8.533 8.533 0 0 1-8.43-7.236L85.435 129.297c-.717-4.659 2.483-9.011 7.134-9.728a8.335 8.335 0 0 1 1.297-.102h25.6A8.536 8.536 0 0 1 128 128a8.536 8.536 0 0 1-8.533 8.533h-15.65l31.505 204.8h269.09c28.629-.034 53.222-20.343 58.658-48.452l30.063-156.348H460.8a8.536 8.536 0 0 1-8.533-8.533 8.536 8.536 0 0 1 8.533-8.533h42.667a8.536 8.536 0 0 1 8.379 10.146l-32.017 166.494c-6.997 36.138-38.613 62.25-75.417 62.293z" fill="#231F20"/><path d="M290.133 256C228.864 256 179.2 206.336 179.2 145.067c0-61.269 49.664-110.934 110.933-110.934 61.269 0 110.933 49.664 110.933 110.933-.068 61.236-49.697 110.866-110.933 110.934zm0-204.8c-51.84 0-93.867 42.027-93.867 93.867s42.027 93.867 93.867 93.867S384 196.907 384 145.067c-.06-51.815-42.052-93.807-93.867-93.867z" fill="#231F20"/><path d="M290.133 290.133c-80.119 0-145.067-64.947-145.067-145.067S210.014 0 290.133 0C370.252 0 435.2 64.947 435.2 145.067c-.085 80.085-64.981 144.981-145.067 145.066zm0-273.066c-70.69 0-128 57.31-128 128s57.31 128 128 128 128-57.31 128-128c-.076-70.656-57.344-127.924-128-128z" fill="#231F20"/><path d="M264.624 185.8c.824 2.472 11.099 12.672 21.778 12.672 15.842 0 25.097-9.164 25.097-22.421 0-12.285-6.409-19.304-22.604-26.128-19.579-7.603-31.682-18.718-31.682-37.241 0-20.474 15.486-35.682 38.8-35.682 12.282 0 24.724 7.417 28.85 12.362l-9.903 9.893c-3.914-2.34-8.615-8.218-19.48-8.218-16.369 0-22.606 10.725-22.606 19.694 0 12.285 7.3 18.329 23.851 25.347 20.29 8.58 30.614 19.304 30.614 38.607 0 20.279-13.783 38.315-42.086 38.315-11.57 0-23.931-7.417-31.357-16.484l10.728-10.716z" fill="#231F20"/><path d="M277 105.85s-1.649 4.944.827 9.89c0 0 41.258-5.772 40.434 28.025 0 0 4.95 1.647 9.901 10.713 0 0 11.553-58.521-51.162-48.629zM305.5 181.093s2.872-6.006.382-11.777c0 0-45.37 9.067-44.026-30.146 0 0-4.71-2.251-8.494-11.86.014 0-19.272 62.612 52.138 53.783z" fill="#231F20"/></svg>