<svg width="512" height="512" fill="none" xmlns="http://www.w3.org/2000/svg"><path d="M255.914 93.957c-75.373 0-136.467 61.095-136.467 136.467 0 75.372 61.095 136.467 136.467 136.467 75.372 0 136.467-61.095 136.467-136.467 0-75.372-61.103-136.467-136.467-136.467zm0 238.817c-56.523 0-102.351-45.827-102.351-102.351s45.827-102.351 102.351-102.351 102.351 45.827 102.351 102.35c0 56.525-45.828 102.352-102.351 102.352z" fill="#FFAF46"/><path d="M255.914 128.073c-56.523 0-102.351 45.827-102.351 102.351s45.827 102.351 102.351 102.351 102.351-45.827 102.351-102.351-45.828-102.351-102.351-102.351zm42.646 85.293c0 9.425-7.634 17.058-17.058 17.058 9.425 0 17.058 7.634 17.058 17.058v17.058c0 9.425-7.634 17.058-17.058 17.058h-42.647l.213 25.588-.213-25.588h-8.529V179.249h8.529l.213-25.588-.213 25.588h42.646c9.425 0 17.058 7.634 17.058 17.058v17.059h.001z" fill="#FFAF46"/><path d="M281.501 179.249h-51.175v51.175h51.175c9.425 0 17.058-7.634 17.058-17.058v-17.058c.001-9.426-7.641-17.059-17.058-17.059zM230.326 281.599h51.175c9.425 0 17.058-7.634 17.058-17.058v-17.058c0-9.425-7.634-17.058-17.058-17.058h-51.175v51.174zM255.948 503.392c9.42 0 17.058-7.637 17.058-17.058 0-9.42-7.637-17.058-17.058-17.058-9.42 0-17.058 7.637-17.058 17.058 0 9.42 7.637 17.058 17.058 17.058zM375.357 503.392c9.42 0 17.058-7.637 17.058-17.058 0-9.42-7.637-17.058-17.058-17.058-9.42 0-17.058 7.637-17.058 17.058 0 9.42 7.637 17.058 17.058 17.058zM486.237 503.392c9.42 0 17.058-7.637 17.058-17.058 0-9.42-7.637-17.058-17.058-17.058-9.42 0-17.058 7.637-17.058 17.058 0 9.42 7.637 17.058 17.058 17.058zM136.539 503.392c9.42 0 17.058-7.637 17.058-17.058 0-9.42-7.637-17.058-17.058-17.058-9.42 0-17.058 7.637-17.058 17.058 0 9.42 7.637 17.058 17.058 17.058zM25.66 503.392c9.42 0 17.057-7.637 17.057-17.058 0-9.42-7.637-17.058-17.058-17.058-9.42 0-17.058 7.637-17.058 17.058 0 9.42 7.637 17.058 17.058 17.058z" fill="#FFAF46"/><path d="M255.914 341.304c-61.24 0-110.88-49.64-110.88-110.88 0-61.24 49.64-110.88 110.88-110.88 61.24 0 110.88 49.64 110.88 110.88-.077 61.206-49.675 110.803-110.88 110.88zm0-204.701c-51.815 0-93.821 42.006-93.821 93.821s42.006 93.821 93.821 93.821 93.821-42.006 93.821-93.821c-.068-51.798-42.032-93.762-93.821-93.821z" fill="#231F20"/><path d="M230.624 270.8c.824 2.472 11.099 12.672 21.778 12.672 15.842 0 25.097-9.164 25.097-22.421 0-12.285-6.409-19.304-22.604-26.128-19.579-7.603-31.682-18.718-31.682-37.241 0-20.474 15.486-35.682 38.8-35.682 12.282 0 24.724 7.417 28.85 12.362l-9.903 9.893c-3.914-2.34-8.615-8.218-19.48-8.218-16.369 0-22.606 10.725-22.606 19.694 0 12.285 7.3 18.329 23.851 25.347 20.29 8.58 30.614 19.304 30.614 38.607 0 20.279-13.783 38.315-42.086 38.315-11.57 0-23.931-7.417-31.357-16.484l10.728-10.716z" fill="#231F20"/><path d="M243 190.85s-1.649 4.944.827 9.89c0 0 41.258-5.772 40.434 28.025 0 0 4.95 1.647 9.901 10.713 0 0 11.553-58.521-51.162-48.629zM271.5 266.093s2.872-6.006.382-11.777c0 0-45.37 9.067-44.026-30.146 0 0-4.71-2.251-8.494-11.86.014 0-19.272 62.612 52.138 53.783z" fill="#231F20"/><path d="M255.914 375.42c-80.081 0-144.997-64.915-144.997-144.996S175.833 85.427 255.914 85.427c80.081 0 144.997 64.916 144.997 144.997-.094 80.038-64.959 144.903-144.997 144.997zm0-272.934c-70.656 0-127.938 57.282-127.938 127.938s57.282 127.938 127.938 127.938 127.938-57.282 127.938-127.938c-.085-70.63-57.316-127.861-127.938-127.938zM264.443 462.282v-61.274a8.532 8.532 0 0 0-8.529-8.529 8.532 8.532 0 0 0-8.529 8.529v61.274c-13.323 4.708-20.308 19.327-15.59 32.65 4.707 13.323 19.326 20.308 32.65 15.591 13.322-4.708 20.307-19.327 15.59-32.65a25.59 25.59 0 0 0-15.592-15.591zm-8.529 32.547a8.532 8.532 0 0 1-8.529-8.529 8.532 8.532 0 0 1 8.53-8.529 8.532 8.532 0 0 1 8.528 8.529 8.532 8.532 0 0 1-8.529 8.529zM375.323 460.713a25.244 25.244 0 0 0-10.977 2.559l-.051-.077-40.147-40.13v-30.586a8.532 8.532 0 0 0-8.529-8.529 8.532 8.532 0 0 0-8.529 8.529v34.117c0 2.26.896 4.435 2.499 6.03l42.646 42.646.077.051a25.261 25.261 0 0 0-2.576 10.977c0 14.133 11.455 25.588 25.588 25.588 14.133 0 25.588-11.455 25.588-25.588 0-14.133-11.465-25.587-25.589-25.587zm0 34.116a8.532 8.532 0 0 1-8.529-8.529 8.532 8.532 0 0 1 8.529-8.529 8.532 8.532 0 0 1 8.529 8.529 8.532 8.532 0 0 1-8.529 8.529zM486.202 460.713a25.244 25.244 0 0 0-10.977 2.559l-.051-.077-82.793-82.776v-39.115a8.532 8.532 0 0 0-8.529-8.529 8.532 8.532 0 0 0-8.529 8.529v42.646c0 2.26.896 4.435 2.499 6.03l85.292 85.292.077.051a25.261 25.261 0 0 0-2.576 10.977c0 14.133 11.455 25.588 25.588 25.588 14.133 0 25.588-11.455 25.588-25.588 0-14.133-11.464-25.587-25.589-25.587zm0 34.116a8.532 8.532 0 0 1-8.529-8.529 8.532 8.532 0 0 1 8.529-8.529 8.532 8.532 0 0 1 8.529 8.529 8.531 8.531 0 0 1-8.529 8.529zM196.209 383.95a8.532 8.532 0 0 0-8.529 8.529v30.586l-40.147 40.147-.051.077a25.261 25.261 0 0 0-10.977-2.576c-14.133 0-25.588 11.455-25.588 25.588 0 14.133 11.455 25.588 25.588 25.588 14.133 0 25.588-11.455 25.588-25.588a25.244 25.244 0 0 0-2.559-10.977l.077-.051 42.646-42.646a8.54 8.54 0 0 0 2.482-6.03V392.48a8.527 8.527 0 0 0-8.53-8.53zm-59.704 110.879a8.532 8.532 0 0 1-8.529-8.529 8.532 8.532 0 0 1 8.529-8.529 8.532 8.532 0 0 1 8.529 8.529 8.532 8.532 0 0 1-8.529 8.529zM48.714 475.272l85.292-85.292a8.509 8.509 0 0 0 2.5-6.03v-42.646a8.532 8.532 0 0 0-8.53-8.529 8.532 8.532 0 0 0-8.529 8.529v39.115l-82.793 82.793-.05.077a25.261 25.261 0 0 0-10.978-2.576c-14.133 0-25.588 11.455-25.588 25.588 0 14.133 11.455 25.588 25.588 25.588 14.133 0 25.588-11.455 25.588-25.588a25.244 25.244 0 0 0-2.559-10.977l.06-.052zm-23.089 19.557a8.532 8.532 0 0 1-8.529-8.529 8.532 8.532 0 0 1 8.53-8.529 8.532 8.532 0 0 1 8.528 8.529 8.532 8.532 0 0 1-8.529 8.529z" fill="#231F20"/><path d="M457.868 182.72c11.344-40.846-12.572-83.16-53.418-94.504a76.809 76.809 0 0 0-40.062-.281c-12.691-59.91-71.534-98.197-131.443-85.505-42.902 9.084-76.422 42.603-85.505 85.505-41.102-10.68-83.075 13.988-93.753 55.082a76.897 76.897 0 0 0 .273 39.703c-40.48 12.598-63.074 55.636-50.467 96.107 9.996 32.087 39.703 53.947 73.309 53.939h25.588a8.532 8.532 0 0 0 8.529-8.529 8.532 8.532 0 0 0-8.529-8.529H76.8c-32.974-.034-59.67-26.799-59.636-59.773.034-28.974 20.862-53.743 49.401-58.741a8.538 8.538 0 0 0 6.96-9.851 8.283 8.283 0 0 0-.563-1.902 58.74 58.74 0 0 1-4.691-23.259c.034-32.957 26.748-59.67 59.704-59.704a58.594 58.594 0 0 1 22.952 4.623 8.535 8.535 0 0 0 11.173-4.546c.316-.751.52-1.544.614-2.354 5.962-51.474 52.514-88.371 103.988-82.41 43.269 5.008 77.394 39.142 82.409 82.41a8.524 8.524 0 0 0 9.433 7.514 8.668 8.668 0 0 0 2.354-.614 58.594 58.594 0 0 1 22.952-4.623c32.957.034 59.67 26.748 59.704 59.704a58.74 58.74 0 0 1-4.691 23.259 8.524 8.524 0 0 0 4.495 11.19 8.572 8.572 0 0 0 1.902.563c32.479 5.689 54.195 36.633 48.506 69.112-4.998 28.539-29.767 49.367-58.741 49.401h-25.588a8.532 8.532 0 0 0-8.529 8.529 8.532 8.532 0 0 0 8.529 8.529h25.588c42.399.009 76.771-34.347 76.78-76.746.011-33.604-21.85-63.311-53.937-73.299z" fill="#231F20"/></svg>