<svg width="512" height="512" fill="none" xmlns="http://www.w3.org/2000/svg"><path d="M394.778 117.222A195.63 195.63 0 0 1 452.267 256h51.2a246.701 246.701 0 0 0-72.482-174.985l-36.207 36.207zm69.802 63.002z" fill="#FFAF46"/><path d="M394.778 117.222l36.207-36.207A246.701 246.701 0 0 0 256 8.533v51.2a195.632 195.632 0 0 1 138.778 57.489zm-44.869-62.293zM256 59.733v-51.2A246.701 246.701 0 0 0 81.015 81.015l36.207 36.207A195.632 195.632 0 0 1 256 59.733zm-101.043-1.322zM394.778 394.778l36.207 36.207A246.701 246.701 0 0 0 503.467 256h-51.2a195.632 195.632 0 0 1-57.489 138.778zm72.388-70.511z" fill="#FFAF46"/><path d="M117.222 117.222L81.015 81.015A246.701 246.701 0 0 0 8.533 256h51.2a195.632 195.632 0 0 1 57.489-138.778zm-72.388 70.511zM117.222 394.778l-36.207 36.207A246.701 246.701 0 0 0 256 503.467v-51.2a195.632 195.632 0 0 1-138.778-57.489zm44.91 62.293z" fill="#FFAF46"/><path d="M59.733 256h-51.2a246.701 246.701 0 0 0 72.482 174.985l36.207-36.207A195.632 195.632 0 0 1 59.732 256zM47.42 331.776zM256 452.267v51.2a246.701 246.701 0 0 0 174.985-72.482l-36.207-36.207A195.632 195.632 0 0 1 256 452.267zm101.043 1.322z" fill="#FFAF46"/><path d="M117.222 117.222c-76.638 76.646-76.638 200.91 0 277.555 76.646 76.638 200.91 76.638 277.555 0 76.638-76.646 76.638-200.909 0-277.555-76.646-76.637-200.908-76.637-277.555 0zm147.31-23.355v42.667h34.133c28.28 0 51.2 22.921 51.2 51.2V204.8c0 28.28-22.92 51.2-51.2 51.2 28.28 0 51.2 22.921 51.2 51.2v17.067c0 28.28-22.92 51.2-51.2 51.2h-85.333V136.533h51.2V93.867z" fill="#FFAF46"/><path d="M213.333 136.533V256h85.333c28.279 0 51.2-22.921 51.2-51.2v-17.067c0-28.279-22.921-51.2-51.2-51.2h-85.333zM213.333 375.467h85.333c28.279 0 51.2-22.921 51.2-51.2V307.2c0-28.279-22.921-51.2-51.2-51.2h-85.333v119.467z" fill="#FFAF46"/><path d="M256 0C114.611 0 0 114.611 0 256s114.611 256 256 256 256-114.611 256-256C511.838 114.679 397.321.162 256 0zm0 443.733C152.32 443.733 68.267 359.68 68.267 256S152.32 68.267 256 68.267 443.733 152.32 443.733 256C443.614 359.637 359.637 443.614 256 443.733zm138.573-338.372a204.04 204.04 0 0 0-130.039-53.948V17.28a238.076 238.076 0 0 1 154.163 63.957l-24.124 24.124zM247.467 51.413a204.035 204.035 0 0 0-130.039 53.948L93.303 81.237A238.076 238.076 0 0 1 247.466 17.28v34.133h.001zm-142.106 66.014a204.04 204.04 0 0 0-53.948 130.039H17.28A238.076 238.076 0 0 1 81.237 93.303l24.124 24.124zM51.413 264.533a204.035 204.035 0 0 0 53.948 130.039l-24.124 24.124A238.076 238.076 0 0 1 17.28 264.533h34.133zm66.014 142.106a204.04 204.04 0 0 0 130.039 53.948v34.133a238.104 238.104 0 0 1-154.163-64l24.124-24.081zm147.106 53.948a204.035 204.035 0 0 0 130.039-53.948l24.124 24.124a238.076 238.076 0 0 1-154.163 63.957v-34.133zm142.106-66.014a204.04 204.04 0 0 0 53.948-130.039h34.133a238.104 238.104 0 0 1-64 154.163l-24.081-24.124zm53.948-147.106a204.035 204.035 0 0 0-53.948-130.039l24.124-24.124a238.076 238.076 0 0 1 63.957 154.163h-34.133z" fill="#231F20"/><path d="M42.206 195.85c4.48 1.45 9.293-1.008 10.752-5.488v-.009a210.77 210.77 0 0 1 9.702-24.644c1.997-4.267.154-9.353-4.113-11.349-4.267-1.996-9.353-.154-11.35 4.113a232.676 232.676 0 0 0-10.504 26.633 8.537 8.537 0 0 0 5.504 10.743h.009zM66.005 353.162a213.19 213.19 0 0 1-10.539-24.287c-1.604-4.429-6.502-6.724-10.931-5.12-4.429 1.604-6.724 6.502-5.12 10.931a229.443 229.443 0 0 0 11.401 26.274c2.022 4.258 7.108 6.076 11.366 4.053 4.258-2.022 6.076-7.108 4.053-11.366a5.495 5.495 0 0 0-.23-.451v-.035zM364.638 449.707c-2.142-4.19-7.278-5.854-11.476-3.712a213.192 213.192 0 0 1-24.287 10.539c-4.429 1.604-6.724 6.502-5.12 10.93 1.604 4.43 6.502 6.725 10.931 5.12a229.434 229.434 0 0 0 26.274-11.4c4.181-2.16 5.828-7.296 3.678-11.477zM445.995 158.839a213.18 213.18 0 0 1 10.539 24.286c1.604 4.429 6.502 6.724 10.93 5.12 4.43-1.604 6.725-6.502 5.12-10.931a229.43 229.43 0 0 0-11.4-26.274c-2.022-4.258-7.108-6.076-11.366-4.053-4.258 2.023-6.076 7.108-4.053 11.366.068.154.145.299.23.452v.034zM147.362 62.293a8.529 8.529 0 0 0 7.603 4.651 8.477 8.477 0 0 0 3.874-.939 213.187 213.187 0 0 1 24.286-10.539c4.429-1.604 6.724-6.502 5.12-10.931-1.604-4.429-6.502-6.724-10.931-5.12a229.447 229.447 0 0 0-26.274 11.401c-4.181 2.159-5.828 7.296-3.678 11.477zM190.353 459.042a210.773 210.773 0 0 1-24.644-9.702c-4.267-1.997-9.353-.154-11.349 4.113-1.996 4.267-.154 9.353 4.113 11.349a232.667 232.667 0 0 0 26.633 10.505c.853.273 1.732.41 2.628.418 4.71.017 8.55-3.79 8.567-8.5a8.532 8.532 0 0 0-5.948-8.165v-.018zM469.794 316.15c-4.48-1.45-9.293 1.008-10.752 5.488v.009a210.774 210.774 0 0 1-9.702 24.644c-1.997 4.267-.154 9.353 4.113 11.349 4.267 1.997 9.353.154 11.349-4.113a232.663 232.663 0 0 0 10.505-26.633 8.537 8.537 0 0 0-5.504-10.743h-.01zM353.527 47.198a232.66 232.66 0 0 0-26.633-10.505 8.54 8.54 0 0 0-10.436 6.067 8.524 8.524 0 0 0 5.188 10.146 210.767 210.767 0 0 1 24.644 9.702c4.267 1.997 9.353.154 11.349-4.113 1.997-4.267.154-9.353-4.113-11.349l.001.052zM201.344 344.4c1.775 5.327 23.904 27.301 46.906 27.301 34.122 0 54.056-19.743 54.056-48.305 0-26.467-13.805-41.588-48.687-56.289-42.17-16.382-68.238-40.327-68.238-80.234 0-44.11 33.355-76.873 83.57-76.873 26.453 0 53.252 15.98 62.14 26.634l-21.332 21.313c-8.43-5.043-18.555-17.705-41.958-17.705-35.254 0-48.688 23.105-48.688 42.429 0 26.466 15.722 39.487 51.372 54.608 43.702 18.483 65.937 41.588 65.937 83.176 0 43.688-29.687 82.545-90.646 82.545-24.919 0-51.545-15.98-67.539-35.513l23.107-23.087z" fill="#231F20"/><path d="M228 172.153s-3.55 10.653 1.781 21.307c0 0 88.865-12.434 87.09 60.38 0 0 10.663 3.546 21.325 23.08 0 0 24.882-126.08-110.196-104.767zM289.386 334.259s6.185-12.939.822-25.372c0 0-97.721 19.533-94.827-64.947 0 0-10.143-4.85-18.295-25.552.031 0-41.506 134.892 112.3 115.871z" fill="#231F20"/></svg>