<svg width="512" height="512" viewBox="0 0 512 512" fill="none" xmlns="http://www.w3.org/2000/svg">
<path d="M-6.10352e-06 136.533C-6.10352e-06 211.942 61.124 273.066 136.533 273.066C211.942 273.066 273.066 211.942 273.066 136.533C273.066 61.124 211.942 -6.10352e-06 136.533 -6.10352e-06C61.124 -6.10352e-06 -6.10352e-06 61.124 -6.10352e-06 136.533ZM238.933 136.533C238.933 193.083 193.083 238.933 136.533 238.933C79.983 238.933 34.133 193.083 34.133 136.533C34.133 79.983 79.983 34.133 136.533 34.133C193.083 34.133 238.933 79.983 238.933 136.533Z" transform="translate(230.4 230.4)" fill="#fda616"/>
<path d="M-1.0498e-05 102.4C-1.0498e-05 158.95 45.85 204.8 102.4 204.8C158.95 204.8 204.8 158.95 204.8 102.4C204.8 45.85 158.95 -1.0498e-05 102.4 -1.0498e-05C45.85 -1.0498e-05 -1.0498e-05 45.85 -1.0498e-05 102.4ZM110.934 25.6V51.2H128.001C137.43 51.2 145.068 58.837 145.068 68.267V85.334C145.068 94.763 137.431 102.401 128.001 102.401C137.43 102.401 145.068 110.038 145.068 119.468V136.535C145.068 145.964 137.431 153.602 128.001 153.602H110.934H85.334L85.547 179.202L85.334 153.602H76.801V51.202H85.334L85.547 25.602L85.334 51.202H110.934V25.6Z" transform="translate(264.533 264.533)" fill="#fda616"/>
<path d="M7.8125e-06 1.70898e-06V51.2H51.2C60.629 51.2 68.267 43.563 68.267 34.133V17.067C68.267 7.63799 60.63 1.70898e-06 51.2 1.70898e-06H7.8125e-06Z" transform="translate(341.333 315.733)" fill="#fda616"/>
<path d="M7.8125e-06 51.2H51.2C60.629 51.2 68.267 43.563 68.267 34.133V17.067C68.267 7.638 60.63 1.3916e-05 51.2 1.3916e-05H7.8125e-06V51.2Z" transform="translate(341.333 366.933)" fill="#fda616"/>
<path d="M136.534 273.067C211.943 273.067 273.067 211.943 273.067 136.534C273.067 61.125 211.943 -7.62939e-09 136.534 -7.62939e-09C61.125 -7.62939e-09 -7.62939e-09 61.125 -7.62939e-09 136.534C-7.62939e-09 211.943 61.125 273.067 136.534 273.067ZM136.534 34.134C193.084 34.134 238.934 79.984 238.934 136.534C238.934 193.084 193.084 238.934 136.534 238.934C79.984 238.934 34.134 193.084 34.134 136.534C34.134 79.984 79.983 34.134 136.534 34.134Z" transform="translate(8.53296 8.53302)" fill="#fda616"/>
<path d="M102.4 204.8C158.95 204.8 204.8 158.95 204.8 102.4C204.8 45.85 158.95 -1.83105e-07 102.4 -1.83105e-07C45.85 -1.83105e-07 -1.83105e-07 45.85 -1.83105e-07 102.4C-1.83105e-07 158.95 45.849 204.8 102.4 204.8ZM102.4 102.4C83.55 102.4 68.267 90.94 68.267 76.8C68.267 62.66 83.55 51.2 102.4 51.2C121.25 51.2 136.533 62.66 136.533 76.8C136.533 62.66 121.25 51.2 102.4 51.2C83.55 51.2 68.267 62.66 68.267 76.8C68.267 90.94 83.55 102.4 102.4 102.4C121.25 102.4 136.533 113.86 136.533 128C136.533 142.14 121.25 153.6 102.4 153.6C83.55 153.6 68.267 142.14 68.267 128C68.267 142.14 83.55 153.6 102.4 153.6C121.25 153.6 136.533 142.14 136.533 128C136.533 113.86 121.25 102.4 102.4 102.4Z" transform="translate(42.667 42.667)" fill="#fda616"/>
<path d="M110.933 221.867C49.664 221.867 0 172.203 0 110.933C0 49.663 49.664 0 110.933 0C172.202 0 221.866 49.664 221.866 110.933C221.798 172.169 172.169 221.798 110.933 221.867ZM110.933 17.067C59.093 17.067 17.066 59.094 17.066 110.934C17.066 162.774 59.093 204.801 110.933 204.801C162.773 204.801 204.8 162.774 204.8 110.934C204.74 59.119 162.748 17.126 110.933 17.067Z" transform="translate(256 256)" fill="#FFE082"/>
<path d="M145.067 290.134C64.948 290.134 -2.68555e-06 225.187 -2.68555e-06 145.067C-2.68555e-06 64.947 64.947 -2.68555e-06 145.067 -2.68555e-06C225.187 -2.68555e-06 290.134 64.948 290.134 145.067C290.049 225.153 225.153 290.049 145.067 290.134ZM145.067 17.067C74.377 17.067 17.067 74.377 17.067 145.067C17.067 215.757 74.377 273.067 145.067 273.067C215.757 273.067 273.067 215.757 273.067 145.067C272.991 74.411 215.723 17.144 145.067 17.067Z" transform="translate(221.866 221.866)" fill="#FFE082"/>
<path d="M110.933 221.867C49.664 221.867 -1.12915e-06 172.203 -1.12915e-06 110.934C-1.12915e-06 49.665 49.663 -5.79834e-07 110.933 -5.79834e-07C172.203 -5.79834e-07 221.866 49.664 221.866 110.934C221.798 172.169 172.168 221.799 110.933 221.867ZM110.933 17.067C59.093 17.067 17.066 59.094 17.066 110.934C17.066 162.774 59.093 204.801 110.933 204.801C162.773 204.801 204.8 162.774 204.8 110.934C204.74 59.119 162.747 17.127 110.933 17.067Z" transform="translate(34.134 34.133)" fill="#FFE082"/>
<path d="M145.067 290.133C64.947 290.133 0 225.186 0 145.067C0 64.948 64.947 0 145.067 0C225.187 0 290.134 64.947 290.134 145.067C290.048 225.152 225.152 290.048 145.067 290.133ZM145.067 17.067C74.377 17.067 17.067 74.377 17.067 145.067C17.067 215.757 74.377 273.067 145.067 273.067C215.757 273.067 273.067 215.757 273.067 145.067C272.99 74.411 215.723 17.143 145.067 17.067Z" fill="#FFE082"/>
<path d="M71.799 33.707H32.665L54.297 12.066L42.231 -5.49316e-07L2.68555e-06 42.24L42.231 84.48L54.297 72.414L32.665 50.774H71.799C114.193 50.825 148.548 85.18 148.599 127.574V170.241H165.666V127.574C165.606 75.76 123.614 33.767 71.799 33.707Z" transform="translate(295.134 51.626)" fill="#FFE082"/>
<path d="M114.901 85.76L102.835 97.826L124.467 119.467H93.866C51.472 119.416 17.117 85.061 17.066 42.667V-4.39453e-06H7.62939e-07V42.667C0.0600008 94.481 42.052 136.474 93.867 136.534H124.468L102.836 158.175L114.902 170.241L157.133 128.001L114.901 85.76Z" transform="translate(51.2 290.133)" fill="#FFE082"/>
<path d="M42.667 68.266C28.792 68.266 17.067 60.449 17.067 51.199C17.067 41.949 28.792 34.132 42.667 34.132C56.542 34.132 68.267 41.949 68.267 51.199C68.267 55.909 72.09 59.732 76.8 59.732C81.51 59.732 85.333 55.909 85.333 51.199C85.333 34.713 70.647 20.931 51.2 17.757V-1.70898e-06H34.133V17.758C14.686 20.932 1.52588e-06 34.714 1.52588e-06 51.2C1.52588e-06 70.025 19.14 85.333 42.667 85.333C56.542 85.333 68.267 93.15 68.267 102.4C68.267 111.65 56.542 119.467 42.667 119.467C28.792 119.467 17.067 111.65 17.067 102.4C17.067 97.69 13.244 93.867 8.534 93.867C3.824 93.867 0.00100098 97.69 0.00100098 102.4C0.00100098 118.886 14.687 132.668 34.134 135.842V153.6H51.2V135.842C70.647 132.668 85.333 118.886 85.333 102.4C85.333 83.575 66.193 68.266 42.667 68.266Z" transform="translate(102.4 68.267)" fill="#FFE082"/>
<path d="M10.7282 108.8C11.5523 111.272 21.8267 121.472 32.5061 121.472C48.3485 121.472 57.6035 112.308 57.6035 99.0507C57.6035 86.7658 51.1942 79.7471 34.9986 72.9234C15.4203 65.3196 3.31665 54.205 3.31665 35.6815C3.31665 15.2077 18.803 -6.565e-08 42.1172 -6.565e-08C54.3989 -6.565e-08 66.8413 7.4174 70.9678 12.3623L61.0638 22.2551C57.1498 19.9145 52.4491 14.0374 41.5831 14.0374C25.2152 14.0374 18.9781 24.762 18.9781 33.7311C18.9781 46.016 26.2777 52.0595 42.8293 59.0782C63.1198 67.6572 73.4431 78.3818 73.4431 97.6854C73.4431 117.964 59.6596 136 31.3574 136C19.7879 136 7.42586 128.583 -7.01065e-07 119.516L10.7282 108.8Z" transform="translate(330.896 299)" fill="#FFE082"/>
<path d="M0.537678 1.12644C0.537678 1.12644 -1.1106 6.07137 1.36469 11.0163C1.36469 11.0163 42.6233 5.2453 41.7991 39.0424C41.7991 39.0424 46.7497 40.6888 51.7003 49.7554C51.7003 49.7554 63.2526 -8.76629 0.537678 1.12644V1.12644Z" transform="translate(353.463 326.723)" fill="#FFE082"/>
<path d="M54.5005 53.7833C54.5005 53.7833 57.3721 47.7771 54.8824 42.0061C54.8824 42.0061 9.51175 51.0728 10.8556 11.8604C10.8556 11.8604 6.14628 9.60877 2.36156 -1.75067e-07C2.37592 -1.75067e-07 -16.9095 62.6119 54.5005 53.7833Z" transform="translate(328 349.31)" fill="#FFE082"/>
</svg>
