<svg xmlns="http://www.w3.org/2000/svg" width="512" height="359" fill="none" viewBox="0 0 512 359"><path fill="#FFFDE7" d="M477.867 1.83105e-07H17.067C7.638 1.83105e-07 -7.6294e-09 7.637 -7.6294e-09 17.067V324.267C-7.6294e-09 333.696 7.637 341.334 17.067 341.334H477.867C487.296 341.334 494.934 333.697 494.934 324.267V17.067C494.934 7.638 487.296 1.83105e-07 477.867 1.83105e-07ZM68.267 51.2C77.696 51.2 85.334 58.837 85.334 68.267C85.334 58.838 92.971 51.2 102.401 51.2C111.831 51.2 119.467 58.838 119.467 68.267C119.467 77.696 111.83 85.334 102.4 85.334C92.97 85.334 85.333 77.697 85.333 68.267C85.333 77.696 77.696 85.334 68.266 85.334C58.836 85.334 51.199 77.697 51.199 68.267C51.2 58.838 58.838 51.2 68.267 51.2ZM366.934 264.534C315.094 264.534 273.067 222.507 273.067 170.667C273.067 118.827 315.094 76.8 366.934 76.8C418.774 76.8 460.8 118.827 460.8 170.667C460.8 222.507 418.774 264.534 366.934 264.534Z" transform="translate(8.53296 8.53296)"/><path fill="#FFFDE7" d="M17.067 34.134C26.4928 34.134 34.134 26.4928 34.134 17.067C34.134 7.64116 26.4928 4.76074e-06 17.067 4.76074e-06C7.64116 4.76074e-06 0 7.64116 0 17.067C0 26.4928 7.64116 34.134 17.067 34.134Z" transform="translate(59.7329 59.7329)"/><path fill="#E6E7E8" d="M17.067 34.134C26.4928 34.134 34.134 26.4928 34.134 17.067C34.134 7.64116 26.4928 4.76074e-06 17.067 4.76074e-06C7.64116 4.76074e-06 -2.68555e-06 7.64116 -2.68555e-06 17.067C-2.68555e-06 26.4928 7.64116 34.134 17.067 34.134Z" transform="translate(93.866 59.7329)"/><path fill="#fda616" d="M93.867 -4.39453e-06C42.027 -4.39453e-06 6.10352e-06 42.027 6.10352e-06 93.867C6.10352e-06 145.707 42.027 187.734 93.867 187.734C145.707 187.734 187.733 145.707 187.733 93.867C187.733 42.027 145.707 -4.39453e-06 93.867 -4.39453e-06ZM93.867 162.134C56.167 162.134 25.6 131.568 25.6 93.867C25.6 56.166 56.166 25.6 93.867 25.6C131.568 25.6 162.133 56.167 162.133 93.867C162.133 131.567 131.567 162.134 93.867 162.134Z" transform="translate(281.6 85.333)"/><path fill="#fda616" d="M68.267 1.70898e-06C30.567 1.70898e-06 1.2207e-05 30.566 1.2207e-05 68.267C1.2207e-05 105.968 30.566 136.534 68.267 136.534C105.968 136.534 136.533 105.967 136.533 68.267C136.533 30.567 105.967 1.70898e-06 68.267 1.70898e-06ZM102.4 85.334C102.332 94.729 94.729 102.332 85.333 102.401H68.266H51.2V34.134H68.267H85.334C94.746 34.16 102.375 41.788 102.401 51.201C102.333 60.596 94.73 68.199 85.334 68.268C94.746 68.293 102.374 75.921 102.4 85.334Z" transform="translate(307.2 110.933)"/><path fill="#fda616" d="M51.2 17.067C51.174 7.655 43.546 0.0259973 34.133 -2.68555e-06H-6.10352e-06V34.134H34.133C43.529 34.066 51.132 26.463 51.2 17.067Z" transform="translate(358.4 145.066)"/><path fill="#fda616" d="M-6.10352e-06 34.134H34.133C43.528 34.066 51.131 26.463 51.2 17.067C51.174 7.65501 43.546 0.0259929 34.133 -7.08008e-06H-6.10352e-06V34.134Z" transform="translate(358.4 179.199)"/><path fill="#fda616" d="M25.6 51.2C11.46 51.2 1.83105e-07 39.74 1.83105e-07 25.6C1.83105e-07 11.46 11.46 0 25.6 0C39.74 0 51.2 11.46 51.2 25.6C51.2 39.74 39.74 51.2 25.6 51.2ZM25.6 17.067C20.89 17.067 17.067 20.89 17.067 25.6C17.067 30.31 20.89 34.133 25.6 34.133C30.31 34.133 34.133 30.31 34.133 25.6C34.133 20.89 30.311 17.067 25.6 17.067Z" transform="translate(85.333 51.2)"/><path fill="#FFE082" d="M486.4 358.4H25.6C11.46 358.4 0 346.94 0 332.8V25.6C0 11.46 11.46 3.05176e-06 25.6 3.05176e-06H486.4C500.54 3.05176e-06 512 11.46 512 25.6V332.8C512 346.94 500.54 358.4 486.4 358.4ZM25.6 17.067C20.89 17.067 17.067 20.89 17.067 25.6V332.8C17.067 337.51 20.89 341.333 25.6 341.333H486.4C491.11 341.333 494.933 337.51 494.933 332.8V25.6C494.933 20.89 491.11 17.067 486.4 17.067H25.6Z"/><path fill="#FFE082" d="M25.6 17.066H8.533C3.823 17.066 7.62939e-07 13.243 7.62939e-07 8.533C7.62939e-07 3.823 3.823 8.78906e-06 8.533 8.78906e-06H25.6C30.31 8.78906e-06 34.133 3.823 34.133 8.533C34.133 13.243 30.31 17.066 25.6 17.066Z" transform="translate(51.2 238.934)"/><path fill="#FFE082" d="M25.6 17.066H8.533C3.823 17.066 1.52588e-06 13.243 1.52588e-06 8.533C1.52588e-06 3.823 3.823 8.78906e-06 8.533 8.78906e-06H25.6C30.31 8.78906e-06 34.133 3.823 34.133 8.533C34.133 13.243 30.31 17.066 25.6 17.066Z" transform="translate(102.4 238.934)"/><path fill="#FFE082" d="M25.6 17.066H8.533C3.823 17.066 6.10352e-06 13.243 6.10352e-06 8.533C6.10352e-06 3.823 3.823 8.78906e-06 8.533 8.78906e-06H25.6C30.31 8.78906e-06 34.133 3.823 34.133 8.533C34.133 13.243 30.31 17.066 25.6 17.066Z" transform="translate(153.6 238.934)"/><path fill="#FFE082" d="M25.6 17.066H8.53299C3.82299 17.066 3.05176e-06 13.243 3.05176e-06 8.533C3.05176e-06 3.823 3.82299 8.78906e-06 8.53299 8.78906e-06H25.6C30.31 8.78906e-06 34.133 3.823 34.133 8.533C34.133 13.243 30.31 17.066 25.6 17.066Z" transform="translate(204.8 238.934)"/><path fill="#FFE082" d="M179.2 17.066H8.533C3.823 17.066 7.62939e-07 13.243 7.62939e-07 8.53299C7.62939e-07 3.82299 3.823 4.39453e-06 8.533 4.39453e-06H179.2C183.91 4.39453e-06 187.733 3.82299 187.733 8.53299C187.733 13.243 183.91 17.066 179.2 17.066Z" transform="translate(51.2 273.067)"/><path fill="#FFE082" d="M179.2 17.067H8.533C3.823 17.067 7.62939e-07 13.244 7.62939e-07 8.534C7.62939e-07 3.824 3.823 0 8.533 0H179.2C183.91 0 187.733 3.82299 187.733 8.53299C187.733 13.243 183.91 17.067 179.2 17.067Z" transform="translate(51.2 307.2)"/><path fill="#FF5023" d="M25.6 17.067C20.89 17.067 17.067 20.89 17.067 25.6C17.067 30.31 20.89 34.133 25.6 34.133C30.31 34.133 34.133 30.31 34.133 25.6C34.133 20.89 30.31 17.067 25.6 17.067ZM25.6 51.2C11.46 51.2 7.62939e-07 39.74 7.62939e-07 25.6C7.62939e-07 11.46 11.46 0 25.6 0C39.74 0 51.2 11.46 51.2 25.6C51.2 39.74 39.74 51.2 25.6 51.2Z" transform="translate(51.2 51.2)"/><path fill="#FFE082" d="M162.133 17.066H8.533C3.823 17.066 7.62939e-07 13.243 7.62939e-07 8.533C7.62939e-07 3.823 3.823 -3.66211e-07 8.533 -3.66211e-07H162.133C166.843 -3.66211e-07 170.666 3.823 170.666 8.533C170.667 13.243 166.844 17.066 162.133 17.066Z" transform="translate(51.2 136.534)"/><path fill="#FFE082" d="M76.8 -3.05176e-06C34.381 -3.05176e-06 -7.8125e-06 34.381 -7.8125e-06 76.8C-7.8125e-06 119.219 34.381 153.6 76.8 153.6C119.219 153.6 153.6 119.219 153.6 76.8C153.548 34.406 119.193 0.0509969 76.8 -3.05176e-06ZM76.8 136.533C43.81 136.533 17.067 109.79 17.067 76.8C17.067 43.81 43.81 17.067 76.8 17.067C109.79 17.067 136.533 43.81 136.533 76.8C136.49 109.773 109.772 136.491 76.8 136.533Z" transform="translate(298.667 102.4)"/><path fill="#FFE082" d="M102.4 204.8C45.85 204.8 -1.3916e-05 158.95 -1.3916e-05 102.4C-1.3916e-05 45.85 45.85 6.10352e-06 102.4 6.10352e-06C158.95 6.10352e-06 204.8 45.85 204.8 102.4C204.74 158.925 158.924 204.74 102.4 204.8ZM102.4 17.067C55.27 17.067 17.067 55.271 17.067 102.4C17.067 149.529 55.271 187.733 102.4 187.733C149.529 187.733 187.733 149.53 187.733 102.4C187.682 55.296 149.504 17.118 102.4 17.067Z" transform="translate(273.067 76.8)"/><path fill="#FFE082" d="M6.73948 68C7.25721 69.5453 13.7117 75.9201 20.4205 75.9201C30.3728 75.9201 36.1868 70.1925 36.1868 61.9067C36.1868 54.2286 32.1605 49.8419 21.9863 45.5771C9.6871 40.8247 2.08354 33.8781 2.08354 22.301C2.08354 9.5048 11.8121 -4.10312e-08 26.4582 -4.10312e-08C34.1736 -4.10312e-08 41.9901 4.63587 44.5823 7.72646L38.3606 13.9094C35.9018 12.4466 32.9488 8.77338 26.1227 8.77338C15.8403 8.77338 11.9222 15.4762 11.9222 21.0819C11.9222 28.76 16.5078 32.5372 26.9056 36.9239C39.6522 42.2858 46.1373 48.9886 46.1373 61.0534C46.1373 73.7276 37.4784 85 19.6989 85C12.4309 85 4.66496 80.3641 -4.40412e-07 74.6975L6.73948 68Z" transform="translate(352.819 136)"/><path fill="#FFE082" d="M0.337772 0.704025C0.337772 0.704025 -0.697685 3.79461 0.857302 6.88519C0.857302 6.88519 26.7762 3.27832 26.2584 24.4015C26.2584 24.4015 29.3684 25.4305 32.4784 31.0971C32.4784 31.0971 39.7356 -5.47893 0.337772 0.704025V0.704025Z" transform="translate(366.996 153.327)"/><path fill="#FFE082" d="M34.2375 33.6146C34.2375 33.6146 36.0414 29.8607 34.4774 26.2538C34.4774 26.2538 5.97533 31.9205 6.81957 7.41274C6.81957 7.41274 3.86112 6.00548 1.48355 -1.09417e-07C1.49256 -1.09417e-07 -10.6226 39.1324 34.2375 33.6146Z" transform="translate(351 167.444)"/></svg>