<svg xmlns="http://www.w3.org/2000/svg" width="400" height="309" fill="none" viewBox="0 0 500 386"><path fill="#FEFEFE" d="M20.1363 15.5676L108.119 -1.17423e-05L76.7084 99.6238L1.91426e-07 81.2509L20.1363 15.5676Z" transform="translate(442.506 253.149) scale(-1 1)"/><path fill="#8597B1" d="M4.38041 12.295L-3.6371e-06 27.7423L73.2145 20.6324L79.9304 1.12318e-05L4.38041 12.295Z" transform="translate(425.554 259.512) scale(-1 1)"/><path fill="#8597B1" d="M3.77928 6.5589L1.97807e-06 19.9685L71.1382 19.8284L77.1067 9.70019e-06L3.77928 6.5589Z" transform="translate(429.978 282.081) scale(-1 1)"/><path fill="#8597B1" d="M4.1525 2.04215e-06L2.9352e-06 14.086L68.2821 22.367L74.9227 0.771646L4.1525 2.04215e-06Z" transform="translate(434.51 303.443) scale(-1 1)"/><path fill="#8597B1" d="M3.82946 -1.14871e-05L-1.91426e-06 12.5731L66.1996 27.5207L71.8711 8.66679L3.82946 -1.14871e-05Z" transform="translate(439.017 319.485) scale(-1 1)"/><path fill="#ECF0F1" d="M13.0335 8.37612L14.7941 6.81822L16.5849 0.0888673L17.1108 2.04215e-06L15.2562 6.83704L16.3382 7.81255L14.4898 9.71133L10.9008 23.1585L11.9954 24.3871L10.1345 26.0516L6.55179 39.4863L7.68505 40.9543L5.77293 42.3982L2.1463 56.0158L3.15306 57.7065L1.36117 58.9539L0.430726 62.4357L7.65706e-07 62.3154L0.955538 58.7322L7.65706e-07 57.3584L1.66539 56.067L5.36208 42.1954L4.42536 40.8476L6.07716 39.5114L9.71008 25.8749L8.76709 24.5763L10.4388 23.1648L14.0654 9.54719L13.0335 8.37612Z" transform="translate(431.922 270.768) scale(-1 1)"/><path fill="#ECF0F1" d="M14.4449 8.48383L16.357 6.52126L18.0977 0.0763124L18.6235 -1.27634e-05L16.8567 6.53383L18.0276 7.5909L16.0151 9.66115L12.0466 24.317L13.2238 25.6909L11.1915 27.4694L7.23551 42.1002L8.38132 43.6205L6.37407 45.2725L2.47456 59.6879L3.57646 61.5741L1.60789 62.8853L0.468357 67.1011L2.55235e-07 66.9683L1.1709 62.6448L0.234179 61.0043L1.94975 59.7381L5.92453 45.0571L5.02022 43.4866L6.7222 42.1264L10.7419 27.2676L9.7613 26.0391L11.5396 24.3233L15.5531 9.48968L14.4449 8.48383Z" transform="translate(421.35 268.806) scale(-1 1)"/><path fill="#ECF0F1" d="M15.2237 8.42633L17.2812 6.2996L18.8891 0.0951431L19.4452 -8.16858e-06L17.8248 6.31842L19.0156 7.55954L16.9393 9.69878L12.6342 26.0767L13.9264 27.229L11.8302 29.1225L7.77914 44.595L9.14031 46.292L6.88634 48.0266L2.73384 63.8284L3.91205 65.5881L1.82953 67.2851L0.505991 72.331L3.57329e-06 72.1846L1.35385 67.0258L0.201767 65.0946L2.17766 63.8849L6.39289 47.7861L5.20317 46.2533L7.22192 44.6263L11.3305 28.9071L10.2161 27.4632L12.0843 26.083L16.4386 9.50848L15.2237 8.42633Z" transform="translate(410.089 266.837) scale(-1 1)"/><path fill="#ECF0F1" d="M17.9848 8.42632L20.2063 6.14696L21.9156 0.107702L22.5544 1.09765e-05L20.7761 6.16579L22.0798 7.39433L19.7317 9.79395L14.7627 27.0648L16.104 28.9197L13.7047 30.717L8.89463 47.4379L10.1732 49.299L7.83037 51.1225L2.94397 68.0703L4.23509 69.9251L1.88075 71.78L0.532132 76.4517L-1.33998e-06 76.3001L1.37998 71.5009L0.424447 69.3166L2.35538 68.1268L7.32438 50.8622L6.27998 49.3304L8.30605 47.4693L13.1987 30.4828L12.0466 29.0713L14.1867 27.0774L19.2184 9.59736L17.9848 8.42632Z" transform="translate(398.246 264.406) scale(-1 1)"/><path fill="#ECF0F1" d="M20.0537 8.46397L22.4018 6.36863L24.2574 0.0888701L24.9087 4.8501e-06L23.0165 6.39371L24.4027 7.7174L21.9658 9.98319L16.4271 28.6603L17.807 30.7494L15.2614 32.6106L9.83658 50.9322L11.1915 52.8509L8.6594 54.9075L3.38619 72.7419L4.6909 74.8822L2.20275 76.7434L0.576041 82.2452L-8.29514e-07 82.08L1.67062 76.4391L0.58231 74.2173L2.74742 72.8057L8.121 54.6357L7.01388 52.8509L9.21035 50.9699L14.7115 32.3638L13.7612 30.7494L15.8061 28.6666L21.4149 9.76883L20.0537 8.46397Z" transform="translate(384.25 261.76) scale(-1 1)"/><path fill="#ECF0F1" d="M0.171451 12.8136L75.8281 1.25081e-05L75.4047 1.285L-3.57329e-06 13.4022L0.171451 12.8136Z" transform="translate(423.87 266.799) scale(-1 1)"/><path fill="#ECF0F1" d="M0.171451 4.08927L72.8664 -2.80795e-06L72.4356 1.28502L-2.9352e-06 4.67166L0.171451 4.08927Z" transform="translate(428.459 291.224) scale(-1 1)"/><path fill="#ECF0F1" d="M0.16518 -1.53161e-05L70.397 3.39917L69.9349 4.93199L3.44567e-06 0.563553L0.16518 -1.53161e-05Z" transform="translate(432.928 311.084) scale(-1 1)"/><path fill="#ECF0F1" d="M0.176681 1.22529e-05L67.5984 10.8573L67.175 12.1423L-1.69093e-06 0.588661L0.176681 1.22529e-05Z" transform="translate(437.631 326.848) scale(-1 1)"/><path fill="#FEFEFE" d="M57.5402 45.4367L309.01 -3.19085e-06L219.224 290.766L-4.59423e-06 237.156L57.5402 45.4367Z" transform="translate(320.79 74.877) scale(-1 1)"/><path fill="#C6CBD6" d="M308.187 -1.08489e-06L320.79 10.9148L230.523 310.532L6.41902 247.887L-4.59423e-06 237.378L219.224 290.988L308.187 -1.08489e-06Z" transform="translate(320.79 74.6554) scale(-1 1)"/><path fill="#FCD34E" d="M114.934 29.1549C120.846 30.0092 126.544 31.5545 131.931 33.7C141.249 29.2114 149.37 22.7978 155.985 13.9417C151.618 24.0964 150.124 34.3462 150.902 44.6723C155.511 48.3193 159.676 52.4912 163.322 57.0938C173.647 57.8665 183.896 56.3786 194.049 52.0102C185.193 58.6193 178.78 66.7424 174.293 76.0617C176.439 81.4495 177.984 87.1469 178.845 93.0607C187.39 98.8919 197.013 102.722 207.983 104.013C197.006 105.311 187.384 109.142 178.839 114.972C177.978 120.885 176.433 126.577 174.294 131.964C178.782 141.283 185.195 149.411 194.057 156.028C183.898 151.659 173.649 150.165 163.324 150.944C159.678 155.553 155.513 159.718 150.911 163.365C150.138 173.685 151.626 183.941 155.994 194.102C149.385 185.245 141.257 178.832 131.945 174.344C126.552 176.491 120.855 178.035 114.942 178.896C109.112 187.449 105.289 197.066 103.991 208.038C102.7 197.06 98.8634 187.443 93.0403 178.89C87.1283 178.03 81.4369 176.484 76.0508 174.338C66.7327 178.826 58.6055 185.24 51.9962 194.103C56.364 183.942 57.858 173.693 57.0791 163.366C52.4771 159.719 48.3058 155.548 44.6655 150.945C34.3407 150.172 24.0922 151.66 13.9326 156.029C22.7886 149.419 29.194 141.29 33.6884 131.977C31.5421 126.583 29.998 120.892 29.1438 114.972C20.5921 109.147 10.9761 105.317 6.18148e-08 104.019C10.9761 102.728 20.5984 98.8908 29.1438 93.0607C30.0042 87.1479 31.5494 81.4558 33.6884 76.069C29.1992 66.7476 22.7865 58.6193 13.9305 52.0029C24.0902 56.3713 34.3386 57.8655 44.6634 57.0865C48.3099 52.4839 52.475 48.3183 57.077 44.6713C57.8559 34.3452 56.3682 24.0954 51.9941 13.9344C58.6023 22.7915 66.7306 29.2051 76.0424 33.6927C81.4296 31.5462 87.1262 30.0018 93.0392 29.1476C98.8697 20.5948 102.699 10.9775 103.99 -1.1168e-07C105.288 10.9775 109.118 20.601 114.948 29.1476L114.934 29.1549Z" transform="translate(500) scale(-1 1)"/><path fill="#FFE356" d="M60.5918 121.199C94.0557 121.199 121.184 94.0679 121.184 60.5996C121.184 27.1314 94.0557 0 60.5918 0C27.1279 0 0 27.1314 0 60.5996C0 94.0679 27.1279 121.199 60.5918 121.199Z" transform="translate(456.615 43.425) scale(-1 1)"/><path fill="#8597B1" d="M13.1099 35.878L-1.40379e-06 80.9728L219.231 60.2201L239.334 -3.82902e-06L13.1099 35.878Z" transform="translate(270.295 93.4517) scale(-1 1)"/><path fill="#8597B1" d="M11.318 19.1383L-5.74279e-06 58.2764L213.002 57.8644L230.872 -4.97773e-06L11.318 19.1383Z" transform="translate(283.544 159.325) scale(-1 1)"/><path fill="#8597B1" d="M12.4261 -3.82902e-07L3.31806e-06 41.1257L204.463 65.2901L224.352 2.25949L12.4261 -3.82902e-07Z" transform="translate(297.122 221.66) scale(-1 1)"/><path fill="#8597B1" d="M11.4769 9.70019e-06L6.89135e-06 36.7071L198.234 80.3266L215.211 25.3051L11.4769 9.70019e-06Z" transform="translate(310.618 268.489) scale(-1 1)"/><path fill="#ECF0F1" d="M39.0316 24.4435L44.3111 19.911L49.6795 0.246764L51.2487 -6.38171e-07L45.6911 19.9486L48.932 22.7915L43.3995 28.3373L32.6638 67.5956L35.9235 71.1851L30.3534 76.0407L19.6303 115.235L23.029 119.522L17.301 123.744L6.42529 163.496L9.45812 168.416L4.08978 172.063L1.30472 182.23L0.00627126 181.869L2.86765 171.416L2.04188e-06 167.402L4.99513 163.629L16.0664 123.156L13.2625 119.212L18.2116 115.318L29.0999 75.5159L26.2699 71.7173L31.2588 67.6082L42.1335 27.8751L39.0316 24.4435Z" transform="translate(289.381 126.309) scale(-1 1)"/><path fill="#ECF0F1" d="M43.2605 24.7593L48.9884 19.0243L54.1927 0.220614L55.7681 -1.27634e-06L50.4887 19.0745L53.9898 22.1704L47.9566 28.2097L36.0814 70.976L39.6077 74.9889L33.5242 80.1739L21.6741 122.876L25.1053 127.301L19.0982 132.144L7.4195 174.207L10.7106 179.728L4.82368 183.539L1.40508 195.853L-7.78467e-06 195.467L3.5012 182.836L0.702543 178.057L5.8618 174.353L17.7558 131.506L15.0471 126.928L20.13 122.959L32.1693 79.5978L29.239 76.0146L34.5561 70.9885L46.5766 27.6974L43.2605 24.7593Z" transform="translate(257.724 120.574) scale(-1 1)"/><path fill="#ECF0F1" d="M45.6022 24.5826L51.7609 18.3781L56.5595 0.265585L58.2301 -5.87117e-06L53.3939 18.4356L56.9327 22.0628L50.7354 28.3111L37.8471 76.1098L41.709 79.4776L35.429 84.9919L23.3134 130.163L27.3645 135.108L20.6235 140.166L8.20988 186.3L11.7299 191.428L5.49484 196.391L1.53784 211.117L1.32722e-05 210.699L4.05111 195.625L0.613662 189.997L6.51939 186.464L19.1609 139.476L15.5844 135L21.6428 130.252L33.9487 84.3719L30.5928 80.1551L36.1953 76.1286L49.2352 27.7612L45.6022 24.5826Z" transform="translate(224.003 114.832) scale(-1 1)"/><path fill="#ECF0F1" d="M53.8435 24.5962L60.5155 17.9359L65.6235 0.304264L67.5294 0L62.2185 17.9923L66.1117 21.5818L59.0853 28.5966L44.1961 79.0039L48.2284 84.4169L41.0441 89.6458L26.6243 138.451L30.4538 143.883L23.4399 149.207L8.81728 198.677L12.6854 204.083L5.62135 209.509L1.59534 223.14L-1.14856e-05 222.69L4.13997 208.692L1.26602 202.305L7.04525 198.848L21.9397 148.461L18.8065 143.985L24.8711 138.546L39.5188 88.9808L36.0751 84.8466L42.4617 79.0227L57.5339 28.0016L53.8435 24.5962Z" transform="translate(188.529 107.734) scale(-1 1)"/><path fill="#ECF0F1" d="M60.0471 24.7227L67.0673 18.6061L72.6311 0.278121L74.5746 -2.16978e-06L68.9094 18.6699L73.0619 22.5385L65.7688 29.1539L49.1777 83.663L53.3113 89.7535L45.6775 95.1916L29.4533 148.662L33.4981 154.278L25.928 160.274L10.1282 212.32L14.0403 218.575L6.58315 224.007L1.70825 240.055L-2.80759e-06 239.574L4.99409 223.12L1.72185 216.638L8.21615 212.503L24.3139 159.47L20.9841 154.278L27.561 148.77L44.0382 94.4639L41.1894 89.7598L47.3105 83.6818L64.1045 28.5213L60.0471 24.7227Z" transform="translate(146.611 99.9981) scale(-1 1)"/><path fill="#ECF0F1" d="M0.518539 37.3962L227.061 -2.55268e-06L225.789 3.74108L-2.80759e-06 39.112L0.518539 37.3962Z" transform="translate(265.269 114.724) scale(-1 1)"/><path fill="#ECF0F1" d="M0.518544 11.9206L218.173 -5.10536e-06L216.9 3.74108L1.78665e-06 13.6364L0.518544 11.9206Z" transform="translate(278.998 186.017) scale(-1 1)"/><path fill="#ECF0F1" d="M0.50077 -7.01988e-06L210.805 9.93403L209.413 14.4091L-1.91426e-06 1.65933L0.50077 -7.01988e-06Z" transform="translate(292.394 243.963) scale(-1 1)"/><path fill="#ECF0F1" d="M0.519586 4.33956e-06L202.418 31.6988L201.139 35.4399L7.01897e-06 1.71579L0.519586 4.33956e-06Z" transform="translate(306.465 289.977) scale(-1 1)"/><path fill="#E4E7ED" d="M-1.97807e-06 5.10536e-07L11.7299 2.87429V11.263L-1.97807e-06 5.10536e-07Z" transform="translate(391.827 350.322) scale(-1 1)"/><path fill="#C6CBD6" d="M108.119 -1.17423e-05L111.556 2.96943L79.7851 104.948L1.74694 84.1126L1.91426e-07 81.2509L76.7084 99.6238L108.119 -1.17423e-05Z" transform="translate(442.506 253.149) scale(-1 1)"/></svg>