<svg width="512" height="512" fill="none" xmlns="http://www.w3.org/2000/svg"><path d="M171.492 298.626c-42.13 0-76.279 34.147-76.279 76.279s34.147 76.279 76.28 76.279c42.131 0 76.278-34.147 76.278-76.279s-34.147-76.279-76.279-76.279zm33.902 93.23c0 9.365-7.586 16.951-16.95 16.951h-33.902v-67.803H188.442c9.365 0 16.951 7.585 16.951 16.951 0 9.365-7.586 16.951-16.95 16.951 9.365-.001 16.95 7.593 16.95 16.95z" fill="#FFAF46"/><path d="M205.395 357.954c0-9.365-7.586-16.951-16.951-16.951h-33.902v33.902h33.902c9.366 0 16.951-7.586 16.951-16.951z" fill="#FFAF46"/><path d="M154.542 408.806h33.902c9.365 0 16.951-7.586 16.951-16.951s-7.586-16.951-16.951-16.951h-33.902v33.902zM298.625 171.495c0 42.131 34.147 76.28 76.279 76.28s76.279-34.148 76.279-76.28-34.147-76.279-76.279-76.279-76.279 34.156-76.279 76.28zm110.18-16.95c0 9.364-7.585 16.95-16.951 16.95 9.365 0 16.951 7.586 16.951 16.951s-7.585 16.951-16.951 16.951h-33.902v-67.803h33.902c9.366 0 16.951 7.593 16.951 16.95z" fill="#FFAF46"/><path d="M357.952 137.593v33.902h33.902c9.365 0 16.951-7.585 16.951-16.951 0-9.365-7.585-16.951-16.951-16.951h-33.902z" fill="#FFAF46"/><path d="M357.952 205.396h33.902c9.365 0 16.951-7.585 16.951-16.951 0-9.365-7.585-16.951-16.951-16.951h-33.902v33.902z" fill="#FFAF46"/><path d="M232.702 148.798l-29.969-29.961-17.977-17.985-11.984-11.984-29.969 29.969-23.968 23.968-29.969 29.97 11.984 11.984 35.961 35.961 11.984 11.984 29.97-29.969 23.968-23.968 29.97-29.969z" fill="#414042"/><path d="M202.733 178.767l-23.968 23.968 295.462 295.462c6.95 6.323 17.62 6.145 24.367-.398 6.407-6.17 6.602-16.366.432-22.773-.263-.28-.542-.542-.831-.797L202.733 178.767zM118.826 142.812l23.972-23.972-26.453-26.453-23.971 23.972 26.452 26.453z" fill="#58595B"/><path d="M142.803 118.837l-23.968 23.968 23.968-23.968z" fill="#FFAF46"/><path d="M68.092 217.508A203.398 203.398 0 0 0 9.773 383.804l1.187 10.713 8.95-20.892a356.084 356.084 0 0 1 75.482-111.443l41.42-41.419-35.962-35.961-32.758 32.706zM220.718 136.813l41.462-41.419a355.96 355.96 0 0 1 111.443-75.482l20.892-8.95-10.713-1.195a203.43 203.43 0 0 0-166.297 58.328l-32.749 32.749 17.976 17.985 17.986 17.984z" fill="#E6E7E8"/><path d="M202.733 118.837l-17.977-17.985 17.977 17.985z" fill="#FFAF46"/><path d="M171.492 290.151c-46.81 0-84.754 37.944-84.754 84.754s37.944 84.754 84.754 84.754 84.754-37.944 84.754-84.754c-.05-46.785-37.96-84.704-84.754-84.754zm0 152.557c-37.444 0-67.803-30.359-67.803-67.803 0-37.444 30.36-67.803 67.803-67.803 37.444 0 67.803 30.359 67.803 67.803-.042 37.436-30.375 67.761-67.803 67.803zM374.902 86.741c-46.81 0-84.754 37.944-84.754 84.754s37.944 84.754 84.754 84.754 84.754-37.944 84.754-84.754c-.05-46.785-37.961-84.704-84.754-84.754zm0 152.557c-37.444 0-67.803-30.359-67.803-67.803 0-37.444 30.359-67.803 67.803-67.803 37.444 0 67.803 30.36 67.803 67.803-.042 37.436-30.375 67.761-67.803 67.803z" fill="#231F20"/><path d="M481.328 151.459c-4.678.017-8.492-3.755-8.509-8.442a8.476 8.476 0 0 1 6.314-8.23l16.374-4.382c4.484-1.331 9.204 1.22 10.543 5.704 1.331 4.483-1.22 9.204-5.704 10.543a9.006 9.006 0 0 1-.44.119l-16.376 4.39a7.994 7.994 0 0 1-2.202.298zM452.809 102.064a8.478 8.478 0 0 1-8.475-8.475c0-2.246.89-4.399 2.483-5.992l11.993-11.984a8.472 8.472 0 0 1 11.976.5c2.983 3.246 2.983 8.238 0 11.476l-11.977 11.992a8.435 8.435 0 0 1-6 2.483zM464.793 269.86a8.454 8.454 0 0 1-5.992-2.483L446.817 255.4a8.476 8.476 0 0 1 0-11.993 8.476 8.476 0 0 1 11.993 0l11.976 11.993c3.305 3.314 3.305 8.679 0 11.984a8.423 8.423 0 0 1-5.993 2.475zM497.704 212.88a8.305 8.305 0 0 1-2.195-.296L479.15 208.2a8.471 8.471 0 0 1-5.992-10.382 8.471 8.471 0 0 1 10.382-5.992l16.375 4.39a8.471 8.471 0 0 1 5.992 10.382 8.47 8.47 0 0 1-8.187 6.28l-.016.001zM204.394 506.181a8.471 8.471 0 0 1-8.179-6.28l-4.382-16.373a8.47 8.47 0 0 1 5.992-10.383 8.47 8.47 0 0 1 10.382 5.992l4.382 16.376a8.475 8.475 0 0 1-8.194 10.668zM261.384 473.27a8.454 8.454 0 0 1-5.992-2.482l-11.984-11.976a8.476 8.476 0 0 1 0-11.993 8.476 8.476 0 0 1 11.993 0l11.976 11.992c3.305 3.315 3.305 8.68 0 11.985a8.488 8.488 0 0 1-5.992 2.483v-.008h-.001zM138.592 506.181a8.788 8.788 0 0 1-2.195-.288 8.478 8.478 0 0 1-5.992-10.381l4.382-16.376a8.471 8.471 0 0 1 10.382-5.992 8.471 8.471 0 0 1 5.992 10.382l-4.39 16.374a8.471 8.471 0 0 1-8.18 6.281zM81.602 473.27a8.478 8.478 0 0 1-8.475-8.475c0-2.246.89-4.4 2.483-5.992l11.976-11.985a8.476 8.476 0 0 1 11.993 0 8.476 8.476 0 0 1 0 11.994l-11.993 11.976a8.435 8.435 0 0 1-5.984 2.482z" fill="#FF5023"/><path d="M504.187 468.236l-289.47-289.469 23.977-23.977c3.305-3.305 3.305-8.679 0-11.984l-5.992-5.992 35.427-35.427a346.07 346.07 0 0 1 108.833-73.685l20.892-8.95c4.306-1.848 6.297-6.83 4.45-11.128a8.483 8.483 0 0 0-6.857-5.085l-10.704-1.187a210.758 210.758 0 0 0-173.229 60.76l-26.758 26.756-5.992-5.992c-3.305-3.305-8.679-3.305-11.984 0l-23.977 23.977-20.468-20.468a8.482 8.482 0 0 0-11.984 0l-23.977 23.977a8.482 8.482 0 0 0 0 11.984l20.468 20.46-23.977 23.977c-3.305 3.305-3.305 8.679 0 11.984l5.992 5.992-26.748 26.757A210.82 210.82 0 0 0 1.35 384.745l1.187 10.704a8.465 8.465 0 0 0 7.187 7.45c.415.059.831.085 1.246.085a8.474 8.474 0 0 0 7.78-5.128l8.95-20.892a346.057 346.057 0 0 1 73.685-108.85l35.427-35.427 5.992 5.992c3.305 3.305 8.679 3.305 11.984 0l23.977-23.96 289.859 289.859a26.64 26.64 0 0 0 17.722 6.78 25.744 25.744 0 0 0 18.265-7.501 25.22 25.22 0 0 0 7.382-18.485 23.657 23.657 0 0 0-7.805-17.136zM116.351 104.369l14.459 14.468-11.976 11.976-14.468-14.459 11.985-11.985zm107.147-30.274a193.872 193.872 0 0 1 135.92-57.107 362.882 362.882 0 0 0-103.273 72.414l-35.427 35.427-23.977-23.968 26.757-26.766zM89.4 256.147A362.882 362.882 0 0 0 16.986 359.42 193.87 193.87 0 0 1 74.093 223.5l26.765-26.757 23.968 23.977L89.4 256.147zm59.395-35.427l-47.937-47.945 71.914-71.914 47.945 47.937-71.922 71.922zm343.806 271.078a9.211 9.211 0 0 1-12.383.407L190.749 202.744l11.993-11.993L492.601 480.61a7.183 7.183 0 0 1 2.458 5.238 8.14 8.14 0 0 1-2.458 5.95z" fill="#231F20"/><path d="M150.179 408.8c.676 2.018 9.106 10.343 17.869 10.343 12.999 0 20.592-7.48 20.592-18.3 0-10.027-5.258-15.755-18.547-21.325-16.064-6.206-25.996-15.277-25.996-30.396 0-16.71 12.707-29.122 31.837-29.122 10.077 0 20.286 6.054 23.672 10.09l-8.126 8.074c-3.212-1.91-7.069-6.707-15.985-6.707-13.43 0-18.547 8.753-18.547 16.073 0 10.027 5.99 14.96 19.57 20.688 16.649 7.002 25.119 15.755 25.119 31.51 0 16.552-11.31 31.272-34.532 31.272-9.493 0-19.636-6.054-25.729-13.454l8.803-8.746z" fill="#231F20"/><path d="M160.333 343.546s-1.352 4.036.679 8.072c0 0 33.853-4.71 33.177 22.874 0 0 4.062 1.344 8.124 8.744 0 0 9.479-47.764-41.98-39.69zM183.718 404.959s2.357-4.902.314-9.613c0 0-37.227 7.4-36.125-24.604 0 0-3.864-1.838-6.97-9.68.012 0-15.811 51.102 42.781 43.897zM354.179 207.8c.676 2.018 9.106 10.343 17.869 10.343 12.998 0 20.592-7.48 20.592-18.3 0-10.027-5.259-15.755-18.547-21.325-16.065-6.206-25.996-15.277-25.996-30.396 0-16.71 12.707-29.122 31.837-29.122 10.077 0 20.286 6.054 23.672 10.09l-8.126 8.074c-3.212-1.91-7.069-6.707-15.985-6.707-13.43 0-18.547 8.753-18.547 16.074 0 10.026 5.99 14.959 19.57 20.687 16.649 7.002 25.119 15.755 25.119 31.51 0 16.552-11.31 31.272-34.532 31.272-9.493 0-19.636-6.054-25.729-13.454l8.803-8.746z" fill="#231F20"/><path d="M364.333 142.546s-1.352 4.036.679 8.072c0 0 33.853-4.71 33.177 22.875 0 0 4.062 1.343 8.124 8.743 0 0 9.479-47.764-41.98-39.69zM387.718 203.959s2.356-4.902.314-9.613c0 0-37.227 7.4-36.125-24.604 0 0-3.864-1.838-6.97-9.68.012 0-15.811 51.102 42.781 43.897z" fill="#231F20"/></svg>