<svg width="512" height="359" fill="none" xmlns="http://www.w3.org/2000/svg"><path d="M486.4 8.533H25.6c-9.429 0-17.067 7.637-17.067 17.067v307.2c0 9.429 7.637 17.067 17.067 17.067h460.8c9.429 0 17.067-7.637 17.067-17.067V25.6c0-9.429-7.638-17.067-17.067-17.067zm-409.6 51.2c9.429 0 17.067 7.637 17.067 17.067 0-9.429 7.637-17.067 17.067-17.067S128 67.371 128 76.8s-7.637 17.067-17.067 17.067S93.866 86.23 93.866 76.8c0 9.429-7.637 17.067-17.067 17.067S59.732 86.23 59.732 76.8c.001-9.429 7.639-17.067 17.068-17.067zm298.667 213.334c-51.84 0-93.867-42.027-93.867-93.867s42.027-93.867 93.867-93.867 93.866 42.027 93.866 93.867-42.026 93.867-93.866 93.867z" fill="#E6E7E8"/><path d="M76.8 93.867c9.426 0 17.067-7.641 17.067-17.067S86.226 59.733 76.8 59.733 59.733 67.374 59.733 76.8 67.374 93.867 76.8 93.867z" fill="#E6E7E8"/><path d="M110.933 93.867c9.426 0 17.067-7.641 17.067-17.067s-7.641-17.067-17.067-17.067S93.866 67.374 93.866 76.8s7.641 17.067 17.067 17.067z" fill="#E6E7E8"/><path d="M375.467 85.333c-51.84 0-93.867 42.027-93.867 93.867s42.027 93.867 93.867 93.867 93.866-42.027 93.866-93.867-42.026-93.867-93.866-93.867zm0 162.134c-37.7 0-68.267-30.566-68.267-68.267 0-37.701 30.566-68.267 68.267-68.267 37.701 0 68.266 30.567 68.266 68.267 0 37.7-30.566 68.267-68.266 68.267z" fill="#FFAF46"/><path d="M375.467 110.933c-37.7 0-68.267 30.566-68.267 68.267 0 37.701 30.566 68.267 68.267 68.267 37.701 0 68.266-30.567 68.266-68.267 0-37.7-30.566-68.267-68.266-68.267zm34.133 85.334c-.068 9.395-7.671 16.998-17.067 17.067H358.4v-68.267h34.134c9.412.026 17.041 7.654 17.067 17.067-.068 9.395-7.671 16.998-17.067 17.067 9.412.025 17.04 7.653 17.066 17.066z" fill="#FFAF46"/><path d="M409.6 162.133c-.026-9.412-7.654-17.041-17.067-17.067H358.4V179.2h34.133c9.396-.068 16.999-7.671 17.067-17.067z" fill="#FFAF46"/><path d="M358.4 213.333h34.133c9.395-.068 16.998-7.671 17.067-17.067-.026-9.412-7.654-17.041-17.067-17.067H358.4v34.134z" fill="#FFAF46"/><path d="M110.933 102.4c-14.14 0-25.6-11.46-25.6-25.6s11.46-25.6 25.6-25.6 25.6 11.46 25.6 25.6-11.46 25.6-25.6 25.6zm0-34.133A8.536 8.536 0 0 0 102.4 76.8a8.536 8.536 0 0 0 8.533 8.533 8.536 8.536 0 0 0 8.533-8.533 8.536 8.536 0 0 0-8.533-8.533z" fill="#FF9811"/><path d="M486.4 358.4H25.6C11.46 358.4 0 346.94 0 332.8V25.6C0 11.46 11.46 0 25.6 0h460.8C500.54 0 512 11.46 512 25.6v307.2c0 14.14-11.46 25.6-25.6 25.6zM25.6 17.067a8.536 8.536 0 0 0-8.533 8.533v307.2a8.536 8.536 0 0 0 8.533 8.533h460.8a8.536 8.536 0 0 0 8.533-8.533V25.6a8.536 8.536 0 0 0-8.533-8.533H25.6z" fill="#231F20"/><path d="M76.8 256H59.733a8.536 8.536 0 0 1-8.533-8.533 8.536 8.536 0 0 1 8.533-8.533H76.8a8.536 8.536 0 0 1 8.533 8.533A8.536 8.536 0 0 1 76.8 256zM128 256h-17.067a8.536 8.536 0 0 1-8.533-8.533 8.536 8.536 0 0 1 8.533-8.533H128a8.536 8.536 0 0 1 8.533 8.533A8.536 8.536 0 0 1 128 256zM179.2 256h-17.067a8.536 8.536 0 0 1-8.533-8.533 8.536 8.536 0 0 1 8.533-8.533H179.2a8.536 8.536 0 0 1 8.533 8.533A8.536 8.536 0 0 1 179.2 256zM230.4 256h-17.067a8.536 8.536 0 0 1-8.533-8.533 8.536 8.536 0 0 1 8.533-8.533H230.4a8.536 8.536 0 0 1 8.533 8.533A8.536 8.536 0 0 1 230.4 256zM230.4 290.133H59.733A8.536 8.536 0 0 1 51.2 281.6a8.536 8.536 0 0 1 8.533-8.533H230.4a8.536 8.536 0 0 1 8.533 8.533 8.536 8.536 0 0 1-8.533 8.533zM230.4 324.267H59.733a8.536 8.536 0 0 1-8.533-8.533c0-4.71 3.823-8.534 8.533-8.534H230.4a8.536 8.536 0 0 1 8.533 8.533c0 4.71-3.823 8.534-8.533 8.534z" fill="#231F20"/><path d="M76.8 68.267a8.536 8.536 0 0 0-8.533 8.533 8.536 8.536 0 0 0 8.533 8.533 8.536 8.536 0 0 0 8.533-8.533 8.536 8.536 0 0 0-8.533-8.533zm0 34.133c-14.14 0-25.6-11.46-25.6-25.6s11.46-25.6 25.6-25.6 25.6 11.46 25.6 25.6-11.46 25.6-25.6 25.6z" fill="#FF5023"/><path d="M213.333 153.6h-153.6a8.536 8.536 0 0 1-8.533-8.533 8.536 8.536 0 0 1 8.533-8.533h153.6a8.536 8.536 0 0 1 8.533 8.533c.001 4.71-3.822 8.533-8.533 8.533zM375.467 102.4c-42.419 0-76.8 34.381-76.8 76.8s34.381 76.8 76.8 76.8 76.8-34.381 76.8-76.8c-.052-42.394-34.407-76.749-76.8-76.8zm0 136.533c-32.99 0-59.733-26.743-59.733-59.733 0-32.99 26.743-59.733 59.733-59.733 32.99 0 59.733 26.743 59.733 59.733-.043 32.973-26.761 59.691-59.733 59.733z" fill="#231F20"/><path d="M375.467 281.6c-56.55 0-102.4-45.85-102.4-102.4 0-56.55 45.85-102.4 102.4-102.4 56.55 0 102.4 45.85 102.4 102.4-.06 56.525-45.876 102.34-102.4 102.4zm0-187.733c-47.13 0-85.333 38.204-85.333 85.333s38.204 85.333 85.333 85.333S460.8 226.33 460.8 179.2c-.051-47.104-38.229-85.282-85.333-85.333z" fill="#231F20"/><path d="M359.558 204c.518 1.545 6.973 7.92 13.682 7.92 9.952 0 15.766-5.728 15.766-14.013 0-7.678-4.026-12.065-14.2-16.33-12.3-4.752-19.903-11.699-19.903-23.276 0-12.796 9.728-22.301 24.374-22.301 7.716 0 15.532 4.636 18.124 7.726l-6.221 6.183c-2.46-1.462-5.412-5.136-12.238-5.136-10.283 0-14.2 6.703-14.2 12.309 0 7.678 4.585 11.455 14.983 15.842 12.746 5.362 19.231 12.065 19.231 24.13 0 12.674-8.659 23.946-26.438 23.946-7.268 0-15.034-4.636-19.699-10.302l6.74-6.698z" fill="#231F20"/><path d="M367.334 154.031s-1.036 3.09.52 6.181c0 0 25.918-3.607 25.4 17.517 0 0 3.11 1.028 6.22 6.695 0 0 7.258-36.576-32.14-30.393zM385.238 201.059s1.803-3.754.24-7.361c0 0-28.503 5.666-27.658-18.841 0 0-2.959-1.408-5.336-7.413.009 0-12.107 39.132 32.753 33.615z" fill="#231F20"/></svg>