<svg width="512" height="512" fill="none" xmlns="http://www.w3.org/2000/svg"><path d="M230.4 366.933c0 75.409 61.124 136.533 136.533 136.533 75.409 0 136.533-61.124 136.533-136.533 0-75.409-61.124-136.533-136.533-136.533-75.409 0-136.533 61.124-136.533 136.533zm238.933 0c0 56.55-45.85 102.4-102.4 102.4-56.55 0-102.4-45.85-102.4-102.4 0-56.55 45.85-102.4 102.4-102.4 56.55 0 102.4 45.85 102.4 102.4z" fill="#FFAF46"/><path d="M264.533 366.933c0 56.55 45.85 102.4 102.4 102.4 56.55 0 102.4-45.85 102.4-102.4 0-56.55-45.85-102.4-102.4-102.4-56.55 0-102.4 45.85-102.4 102.4zm110.934-76.8v25.6h17.067c9.429 0 17.067 7.637 17.067 17.067v17.067c0 9.429-7.637 17.067-17.067 17.067 9.429 0 17.067 7.637 17.067 17.067v17.067c0 9.429-7.637 17.067-17.067 17.067h-42.667l.213 25.6-.213-25.6h-8.533v-102.4h8.533l.213-25.6-.213 25.6h25.6v-25.602z" fill="#FFAF46"/><path d="M341.333 315.733v51.2h51.2c9.429 0 17.067-7.637 17.067-17.067V332.8c0-9.429-7.637-17.067-17.067-17.067h-51.2zM341.333 418.133h51.2c9.429 0 17.067-7.637 17.067-17.067V384c0-9.429-7.637-17.067-17.067-17.067h-51.2v51.2z" fill="#FFAF46"/><path d="M145.067 281.6c75.409 0 136.533-61.124 136.533-136.533 0-75.409-61.124-136.534-136.533-136.534-75.409 0-136.534 61.125-136.534 136.534 0 75.409 61.125 136.533 136.534 136.533zm0-238.933c56.55 0 102.4 45.85 102.4 102.4 0 56.55-45.85 102.4-102.4 102.4-56.55 0-102.4-45.85-102.4-102.4 0-56.55 45.849-102.4 102.4-102.4z" fill="#FF9811"/><path d="M145.067 247.467c56.55 0 102.4-45.85 102.4-102.4 0-56.55-45.85-102.4-102.4-102.4-56.55 0-102.4 45.85-102.4 102.4 0 56.55 45.849 102.4 102.4 102.4zm0-102.4c-18.85 0-34.133-11.46-34.133-25.6s15.283-25.6 34.133-25.6 34.133 11.46 34.133 25.6c0-14.14-15.283-25.6-34.133-25.6s-34.133 11.46-34.133 25.6 15.283 25.6 34.133 25.6 34.133 11.46 34.133 25.6-15.283 25.6-34.133 25.6-34.133-11.46-34.133-25.6c0 14.14 15.283 25.6 34.133 25.6s34.133-11.46 34.133-25.6-15.283-25.6-34.133-25.6z" fill="#FF9811"/><path d="M366.933 477.867C305.664 477.867 256 428.203 256 366.933 256 305.663 305.664 256 366.933 256c61.269 0 110.933 49.664 110.933 110.933-.068 61.236-49.697 110.865-110.933 110.934zm0-204.8c-51.84 0-93.867 42.027-93.867 93.867s42.027 93.867 93.867 93.867 93.867-42.027 93.867-93.867c-.06-51.815-42.052-93.808-93.867-93.867z" fill="#231F20"/><path d="M366.933 512c-80.119 0-145.067-64.947-145.067-145.067s64.947-145.067 145.067-145.067S512 286.814 512 366.933c-.085 80.086-64.981 144.982-145.067 145.067zm0-273.067c-70.69 0-128 57.31-128 128s57.31 128 128 128 128-57.31 128-128c-.076-70.656-57.344-127.923-128-128zM145.067 256c-61.269 0-110.933-49.664-110.933-110.933 0-61.269 49.663-110.934 110.933-110.934C206.337 34.133 256 83.797 256 145.067c-.068 61.235-49.698 110.865-110.933 110.933zm0-204.8c-51.84 0-93.867 42.027-93.867 93.867s42.027 93.867 93.867 93.867 93.867-42.027 93.867-93.867c-.06-51.815-42.053-93.807-93.867-93.867z" fill="#231F20"/><path d="M145.067 290.133C64.947 290.133 0 225.186 0 145.067S64.947 0 145.067 0s145.067 64.947 145.067 145.067c-.086 80.085-64.982 144.981-145.067 145.066zm0-273.066c-70.69 0-128 57.31-128 128s57.31 128 128 128 128-57.31 128-128c-.077-70.656-57.344-127.924-128-128zM366.933 85.333h-39.134l21.632-21.641-12.066-12.066-42.231 42.24 42.231 42.24 12.066-12.066-21.632-21.64h39.134c42.394.051 76.749 34.406 76.8 76.8v42.667H460.8V179.2c-.06-51.814-42.052-93.807-93.867-93.867zM166.101 375.893l-12.066 12.066 21.632 21.641h-30.601c-42.394-.051-76.749-34.406-76.8-76.8v-42.667H51.2V332.8c.06 51.814 42.052 93.807 93.867 93.867h30.601l-21.632 21.641 12.066 12.066 42.231-42.24-42.232-42.241z" fill="#231F20"/><path d="M145.067 136.533c-13.875 0-25.6-7.817-25.6-17.067s11.725-17.067 25.6-17.067c13.875 0 25.6 7.817 25.6 17.067a8.536 8.536 0 0 0 8.533 8.533 8.536 8.536 0 0 0 8.533-8.533c0-16.486-14.686-30.268-34.133-33.442V68.267h-17.067v17.758c-19.447 3.174-34.133 16.956-34.133 33.442 0 18.825 19.14 34.133 42.667 34.133 13.875 0 25.6 7.817 25.6 17.067s-11.725 17.067-25.6 17.067c-13.875 0-25.6-7.817-25.6-17.067a8.536 8.536 0 0 0-8.533-8.533 8.536 8.536 0 0 0-8.533 8.533c0 16.486 14.686 30.268 34.133 33.442v17.758H153.6v-17.758c19.447-3.174 34.133-16.956 34.133-33.442 0-18.825-19.14-34.134-42.666-34.134zM341.624 407.8c.824 2.472 11.099 12.672 21.778 12.672 15.843 0 25.098-9.164 25.098-22.421 0-12.285-6.41-19.304-22.605-26.128-19.579-7.603-31.682-18.718-31.682-37.241 0-20.474 15.486-35.682 38.8-35.682 12.282 0 24.724 7.417 28.85 12.362l-9.903 9.893c-3.914-2.34-8.615-8.218-19.48-8.218-16.369 0-22.606 10.725-22.606 19.694 0 12.285 7.3 18.329 23.851 25.347 20.29 8.58 30.614 19.304 30.614 38.607 0 20.279-13.783 38.315-42.086 38.315-11.57 0-23.931-7.417-31.357-16.484l10.728-10.716z" fill="#231F20"/><path d="M354 327.85s-1.648 4.944.828 9.89c0 0 41.258-5.772 40.434 28.025 0 0 4.95 1.647 9.901 10.713 0 0 11.553-58.521-51.162-48.629zM382.5 403.093s2.872-6.006.382-11.777c0 0-45.37 9.067-44.026-30.146 0 0-4.71-2.251-8.494-11.86.014 0-19.272 62.612 52.138 53.783z" fill="#231F20"/></svg>