<svg width="530" height="122" viewBox="0 0 530 122" fill="none" xmlns="http://www.w3.org/2000/svg">
<ellipse cx="21.7254" cy="8.5" rx="21.7254" ry="8.5" transform="translate(-2 34.4315) rotate(-15.3303)" fill="#757575"/>
<ellipse cx="19.4607" cy="8.35236" rx="19.4607" ry="8.35236" transform="translate(39.1733 20.7537) rotate(-32.2233)" fill="#1A237E"/>
<ellipse cx="13" cy="9.5" rx="13" ry="9.5" transform="translate(18.3991 100.944)" fill="#757575"/>
<path d="M0 14.8605C20.9259 10.5277 41.0028 -16.2939 64.0078 14.8605" transform="translate(60.7577 37.1877) rotate(90.9094)" stroke="#7E827E" stroke-width="3"/>
<path d="M16.2656 20.75L41.4375 80.9844L66.7031 20.75H74.3906V89H68.625V59.2812L69.0938 28.8125L43.6875 89H39.2344L13.9219 29.0469L14.3906 59.0938V89H8.625V20.75H16.2656ZM122.391 89C121.828 87.4062 121.469 85.0469 121.312 81.9219C119.344 84.4844 116.828 86.4688 113.766 87.875C110.734 89.25 107.516 89.9375 104.109 89.9375C99.2344 89.9375 95.2812 88.5781 92.25 85.8594C89.25 83.1406 87.75 79.7031 87.75 75.5469C87.75 70.6094 89.7969 66.7031 93.8906 63.8281C98.0156 60.9531 103.75 59.5156 111.094 59.5156H121.266V53.75C121.266 50.125 120.141 47.2812 117.891 45.2188C115.672 43.125 112.422 42.0781 108.141 42.0781C104.234 42.0781 101 43.0781 98.4375 45.0781C95.875 47.0781 94.5938 49.4844 94.5938 52.2969L88.9688 52.25C88.9688 48.2188 90.8438 44.7344 94.5938 41.7969C98.3438 38.8281 102.953 37.3438 108.422 37.3438C114.078 37.3438 118.531 38.7656 121.781 41.6094C125.062 44.4219 126.75 48.3594 126.844 53.4219V77.4219C126.844 82.3281 127.359 86 128.391 88.4375V89H122.391ZM104.766 84.9688C108.516 84.9688 111.859 84.0625 114.797 82.25C117.766 80.4375 119.922 78.0156 121.266 74.9844V63.8281H111.234C105.641 63.8906 101.266 64.9219 98.1094 66.9219C94.9531 68.8906 93.375 71.6094 93.375 75.0781C93.375 77.9219 94.4219 80.2812 96.5156 82.1562C98.6406 84.0312 101.391 84.9688 104.766 84.9688ZM139.594 63.1719C139.594 55.2344 141.344 48.9531 144.844 44.3281C148.375 39.6719 153.156 37.3438 159.188 37.3438C166.094 37.3438 171.344 40.0938 174.938 45.5938L175.219 38.2812H180.469V87.9688C180.469 94.5 178.641 99.6719 174.984 103.484C171.328 107.297 166.375 109.203 160.125 109.203C156.594 109.203 153.219 108.406 150 106.812C146.812 105.25 144.297 103.156 142.453 100.531L145.594 97.1562C149.562 102.031 154.281 104.469 159.75 104.469C164.438 104.469 168.094 103.078 170.719 100.297C173.344 97.5469 174.703 93.7188 174.797 88.8125V82.4375C171.203 87.4375 165.969 89.9375 159.094 89.9375C153.219 89.9375 148.5 87.5938 144.938 82.9062C141.375 78.2188 139.594 71.8906 139.594 63.9219V63.1719ZM145.266 64.1562C145.266 70.625 146.562 75.7344 149.156 79.4844C151.75 83.2031 155.406 85.0625 160.125 85.0625C167.031 85.0625 171.922 81.9688 174.797 75.7812V52.2031C173.484 48.9531 171.594 46.4844 169.125 44.7969C166.656 43.0781 163.688 42.2188 160.219 42.2188C155.5 42.2188 151.828 44.0781 149.203 47.7969C146.578 51.4844 145.266 56.9375 145.266 64.1562ZM200.438 38.2812L200.625 46.9531C202.531 43.8281 204.906 41.4531 207.75 39.8281C210.594 38.1719 213.734 37.3438 217.172 37.3438C222.609 37.3438 226.656 38.875 229.312 41.9375C231.969 45 233.312 49.5938 233.344 55.7188V89H227.766V55.6719C227.734 51.1406 226.766 47.7656 224.859 45.5469C222.984 43.3281 219.969 42.2188 215.812 42.2188C212.344 42.2188 209.266 43.3125 206.578 45.5C203.922 47.6562 201.953 50.5781 200.672 54.2656V89H195.094V38.2812H200.438ZM267.516 89.9375C263.203 89.9375 259.297 88.875 255.797 86.75C252.328 84.625 249.625 81.6719 247.688 77.8906C245.75 74.0781 244.781 69.8125 244.781 65.0938V63.0781C244.781 58.2031 245.719 53.8125 247.594 49.9062C249.5 46 252.141 42.9375 255.516 40.7188C258.891 38.4688 262.547 37.3438 266.484 37.3438C272.641 37.3438 277.516 39.4531 281.109 43.6719C284.734 47.8594 286.547 53.5938 286.547 60.875V64.0156H250.359V65.0938C250.359 70.8438 252 75.6406 255.281 79.4844C258.594 83.2969 262.75 85.2031 267.75 85.2031C270.75 85.2031 273.391 84.6562 275.672 83.5625C277.984 82.4688 280.078 80.7188 281.953 78.3125L285.469 80.9844C281.344 86.9531 275.359 89.9375 267.516 89.9375ZM266.484 42.125C262.266 42.125 258.703 43.6719 255.797 46.7656C252.922 49.8594 251.172 54.0156 250.547 59.2344H280.969V58.625C280.812 53.75 279.422 49.7812 276.797 46.7188C274.172 43.6562 270.734 42.125 266.484 42.125ZM300.844 89V42.875H292.406V38.2812H300.844V33.0781C300.844 27.6719 302.312 23.4844 305.25 20.5156C308.188 17.5156 312.328 16.0156 317.672 16.0156C321.859 16.0156 326.172 16.9375 330.609 18.7812L329.672 23.6094C325.859 21.9531 321.984 21.125 318.047 21.125C310.328 21.125 306.469 25.1406 306.469 33.1719V38.2812H318.328V42.875H306.469V89H300.844ZM333.656 89H328.031V38.2812H333.656V89ZM367.781 85.2031C371.688 85.2031 374.953 84.1094 377.578 81.9219C380.234 79.7031 381.672 76.8438 381.891 73.3438H387.281C387.125 76.4375 386.156 79.2656 384.375 81.8281C382.594 84.3594 380.219 86.3438 377.25 87.7812C374.312 89.2188 371.156 89.9375 367.781 89.9375C361.125 89.9375 355.844 87.625 351.938 83C348.062 78.375 346.125 72.1562 346.125 64.3438V62.6562C346.125 57.6562 347 53.2344 348.75 49.3906C350.5 45.5469 353 42.5781 356.25 40.4844C359.531 38.3906 363.359 37.3438 367.734 37.3438C373.297 37.3438 377.875 39 381.469 42.3125C385.094 45.625 387.031 49.9844 387.281 55.3906H381.891C381.641 51.4219 380.203 48.2188 377.578 45.7812C374.984 43.3438 371.703 42.125 367.734 42.125C362.672 42.125 358.734 43.9531 355.922 47.6094C353.141 51.2656 351.75 56.3906 351.75 62.9844V64.625C351.75 71.0938 353.141 76.1406 355.922 79.7656C358.734 83.3906 362.688 85.2031 367.781 85.2031ZM395.438 62.8906C395.438 58.0156 396.375 53.625 398.25 49.7188C400.156 45.8125 402.828 42.7812 406.266 40.625C409.734 38.4375 413.656 37.3438 418.031 37.3438C424.781 37.3438 430.25 39.7188 434.438 44.4688C438.625 49.1875 440.719 55.4531 440.719 63.2656V64.4375C440.719 69.3438 439.766 73.7656 437.859 77.7031C435.984 81.6094 433.328 84.625 429.891 86.75C426.453 88.875 422.531 89.9375 418.125 89.9375C411.406 89.9375 405.938 87.5781 401.719 82.8594C397.531 78.1094 395.438 71.8281 395.438 64.0156V62.8906ZM401.062 64.4375C401.062 70.5 402.625 75.4844 405.75 79.3906C408.906 83.2656 413.031 85.2031 418.125 85.2031C423.188 85.2031 427.281 83.2656 430.406 79.3906C433.562 75.4844 435.141 70.3438 435.141 63.9688V62.8906C435.141 59.0156 434.422 55.4688 432.984 52.25C431.547 49.0312 429.531 46.5469 426.938 44.7969C424.344 43.0156 421.375 42.125 418.031 42.125C413.031 42.125 408.953 44.0938 405.797 48.0312C402.641 51.9375 401.062 57.0625 401.062 63.4062V64.4375Z" transform="translate(89 12)" fill="#1A237E"/>
</svg>
