<svg width="460" height="60" viewBox="0 0 281 37" fill="none" xmlns="http://www.w3.org/2000/svg">
<path d="M23.25 29.2266H8.46094V41.3203H25.6406V45H3.96094V10.875H25.4062V14.5781H8.46094V25.5469H23.25V29.2266ZM35.2734 45H30.9375V9H35.2734V45ZM52.7578 45.4688C49.3203 45.4688 46.5234 44.3438 44.3672 42.0938C42.2109 39.8281 41.1328 36.8047 41.1328 33.0234V32.2266C41.1328 29.7109 41.6094 27.4688 42.5625 25.5C43.5312 23.5156 44.875 21.9688 46.5938 20.8594C48.3281 19.7344 50.2031 19.1719 52.2188 19.1719C55.5156 19.1719 58.0781 20.2578 59.9062 22.4297C61.7344 24.6016 62.6484 27.7109 62.6484 31.7578V33.5625H45.4688C45.5312 36.0625 46.2578 38.0859 47.6484 39.6328C49.0547 41.1641 50.8359 41.9297 52.9922 41.9297C54.5234 41.9297 55.8203 41.6172 56.8828 40.9922C57.9453 40.3672 58.875 39.5391 59.6719 38.5078L62.3203 40.5703C60.1953 43.8359 57.0078 45.4688 52.7578 45.4688ZM52.2188 22.7344C50.4688 22.7344 49 23.375 47.8125 24.6562C46.625 25.9219 45.8906 27.7031 45.6094 30H58.3125V29.6719C58.1875 27.4688 57.5938 25.7656 56.5312 24.5625C55.4688 23.3438 54.0312 22.7344 52.2188 22.7344ZM77.8594 41.9297C79.4062 41.9297 80.7578 41.4609 81.9141 40.5234C83.0703 39.5859 83.7109 38.4141 83.8359 37.0078H87.9375C87.8594 38.4609 87.3594 39.8438 86.4375 41.1562C85.5156 42.4688 84.2812 43.5156 82.7344 44.2969C81.2031 45.0781 79.5781 45.4688 77.8594 45.4688C74.4062 45.4688 71.6562 44.3203 69.6094 42.0234C67.5781 39.7109 66.5625 36.5547 66.5625 32.5547V31.8281C66.5625 29.3594 67.0156 27.1641 67.9219 25.2422C68.8281 23.3203 70.125 21.8281 71.8125 20.7656C73.5156 19.7031 75.5234 19.1719 77.8359 19.1719C80.6797 19.1719 83.0391 20.0234 84.9141 21.7266C86.8047 23.4297 87.8125 25.6406 87.9375 28.3594H83.8359C83.7109 26.7188 83.0859 25.375 81.9609 24.3281C80.8516 23.2656 79.4766 22.7344 77.8359 22.7344C75.6328 22.7344 73.9219 23.5312 72.7031 25.125C71.5 26.7031 70.8984 28.9922 70.8984 31.9922V32.8125C70.8984 35.7344 71.5 37.9844 72.7031 39.5625C73.9062 41.1406 75.625 41.9297 77.8594 41.9297ZM98.6953 13.5V19.6406H103.43V22.9922H98.6953V38.7188C98.6953 39.7344 98.9062 40.5 99.3281 41.0156C99.75 41.5156 100.469 41.7656 101.484 41.7656C101.984 41.7656 102.672 41.6719 103.547 41.4844V45C102.406 45.3125 101.297 45.4688 100.219 45.4688C98.2812 45.4688 96.8203 44.8828 95.8359 43.7109C94.8516 42.5391 94.3594 40.875 94.3594 38.7188V22.9922H89.7422V19.6406H94.3594V13.5H98.6953ZM120.773 23.5312C120.117 23.4219 119.406 23.3672 118.641 23.3672C115.797 23.3672 113.867 24.5781 112.852 27V45H108.516V19.6406H112.734L112.805 22.5703C114.227 20.3047 116.242 19.1719 118.852 19.1719C119.695 19.1719 120.336 19.2812 120.773 19.5V23.5312ZM129.492 45H125.156V19.6406H129.492V45ZM124.805 12.9141C124.805 12.2109 125.016 11.6172 125.438 11.1328C125.875 10.6484 126.516 10.4062 127.359 10.4062C128.203 10.4062 128.844 10.6484 129.281 11.1328C129.719 11.6172 129.938 12.2109 129.938 12.9141C129.938 13.6172 129.719 14.2031 129.281 14.6719C128.844 15.1406 128.203 15.375 127.359 15.375C126.516 15.375 125.875 15.1406 125.438 14.6719C125.016 14.2031 124.805 13.6172 124.805 12.9141ZM193.5 34.1719C193.078 37.7812 191.742 40.5703 189.492 42.5391C187.258 44.4922 184.281 45.4688 180.562 45.4688C176.531 45.4688 173.297 44.0234 170.859 41.1328C168.438 38.2422 167.227 34.375 167.227 29.5312V26.25C167.227 23.0781 167.789 20.2891 168.914 17.8828C170.055 15.4766 171.664 13.6328 173.742 12.3516C175.82 11.0547 178.227 10.4062 180.961 10.4062C184.586 10.4062 187.492 11.4219 189.68 13.4531C191.867 15.4688 193.141 18.2656 193.5 21.8438H188.977C188.586 19.125 187.734 17.1562 186.422 15.9375C185.125 14.7188 183.305 14.1094 180.961 14.1094C178.086 14.1094 175.828 15.1719 174.188 17.2969C172.562 19.4219 171.75 22.4453 171.75 26.3672V29.6719C171.75 33.375 172.523 36.3203 174.07 38.5078C175.617 40.6953 177.781 41.7891 180.562 41.7891C183.062 41.7891 184.977 41.2266 186.305 40.1016C187.648 38.9609 188.539 36.9844 188.977 34.1719H193.5ZM203.32 22.7109C205.242 20.3516 207.742 19.1719 210.82 19.1719C216.18 19.1719 218.883 22.1953 218.93 28.2422V45H214.594V28.2188C214.578 26.3906 214.156 25.0391 213.328 24.1641C212.516 23.2891 211.242 22.8516 209.508 22.8516C208.102 22.8516 206.867 23.2266 205.805 23.9766C204.742 24.7266 203.914 25.7109 203.32 26.9297V45H198.984V9H203.32V22.7109ZM241.078 45C240.828 44.5 240.625 43.6094 240.469 42.3281C238.453 44.4219 236.047 45.4688 233.25 45.4688C230.75 45.4688 228.695 44.7656 227.086 43.3594C225.492 41.9375 224.695 40.1406 224.695 37.9688C224.695 35.3281 225.695 33.2812 227.695 31.8281C229.711 30.3594 232.539 29.625 236.18 29.625H240.398V27.6328C240.398 26.1172 239.945 24.9141 239.039 24.0234C238.133 23.1172 236.797 22.6641 235.031 22.6641C233.484 22.6641 232.188 23.0547 231.141 23.8359C230.094 24.6172 229.57 25.5625 229.57 26.6719H225.211C225.211 25.4062 225.656 24.1875 226.547 23.0156C227.453 21.8281 228.672 20.8906 230.203 20.2031C231.75 19.5156 233.445 19.1719 235.289 19.1719C238.211 19.1719 240.5 19.9062 242.156 21.375C243.812 22.8281 244.672 24.8359 244.734 27.3984V39.0703C244.734 41.3984 245.031 43.25 245.625 44.625V45H241.078ZM233.883 41.6953C235.242 41.6953 236.531 41.3438 237.75 40.6406C238.969 39.9375 239.852 39.0234 240.398 37.8984V32.6953H237C231.688 32.6953 229.031 34.25 229.031 37.3594C229.031 38.7188 229.484 39.7812 230.391 40.5469C231.297 41.3125 232.461 41.6953 233.883 41.6953ZM256.242 45H251.906V19.6406H256.242V45ZM251.555 12.9141C251.555 12.2109 251.766 11.6172 252.188 11.1328C252.625 10.6484 253.266 10.4062 254.109 10.4062C254.953 10.4062 255.594 10.6484 256.031 11.1328C256.469 11.6172 256.688 12.2109 256.688 12.9141C256.688 13.6172 256.469 14.2031 256.031 14.6719C255.594 15.1406 254.953 15.375 254.109 15.375C253.266 15.375 252.625 15.1406 252.188 14.6719C251.766 14.2031 251.555 13.6172 251.555 12.9141ZM267.305 19.6406L267.445 22.8281C269.383 20.3906 271.914 19.1719 275.039 19.1719C280.398 19.1719 283.102 22.1953 283.148 28.2422V45H278.812V28.2188C278.797 26.3906 278.375 25.0391 277.547 24.1641C276.734 23.2891 275.461 22.8516 273.727 22.8516C272.32 22.8516 271.086 23.2266 270.023 23.9766C268.961 24.7266 268.133 25.7109 267.539 26.9297V45H263.203V19.6406H267.305Z" transform="translate(-3 -9)" fill="#1A237E"/>
<path d="M162.234 34.1719C161.812 37.7812 160.477 40.5703 158.227 42.5391C155.992 44.4922 153.016 45.4688 149.297 45.4688C145.266 45.4688 142.031 44.0234 139.594 41.1328C137.172 38.2422 135.961 34.375 135.961 29.5312V26.25C135.961 23.0781 136.523 20.2891 137.648 17.8828C138.789 15.4766 140.398 13.6328 142.477 12.3516C144.555 11.0547 146.961 10.4062 149.695 10.4062C153.32 10.4062 156.227 11.4219 158.414 13.4531C160.602 15.4688 161.875 18.2656 162.234 21.8438H157.711C157.32 19.125 156.469 17.1562 155.156 15.9375C153.859 14.7188 152.039 14.1094 149.695 14.1094C146.82 14.1094 144.562 15.1719 142.922 17.2969C141.297 19.4219 140.484 22.4453 140.484 26.3672V29.6719C140.484 33.375 141.258 36.3203 142.805 38.5078C144.352 40.6953 146.516 41.7891 149.297 41.7891C151.797 41.7891 153.711 41.2266 155.039 40.1016C156.383 38.9609 157.273 36.9844 157.711 34.1719H162.234Z" transform="translate(-3 -9)" fill="#F57F17"/>
</svg>
