<svg width="458" height="71" viewBox="0 0 458 71" fill="none" xmlns="http://www.w3.org/2000/svg">
<path d="M47.25 72.2188C47.25 68.4375 45.9219 65.4531 43.2656 63.2656C40.6094 61.0469 35.75 58.9531 28.6875 56.9844C21.625 54.9844 16.4688 52.8125 13.2188 50.4688C8.59375 47.1562 6.28125 42.8125 6.28125 37.4375C6.28125 32.2188 8.42188 27.9844 12.7031 24.7344C17.0156 21.4531 22.5156 19.8125 29.2031 19.8125C33.7344 19.8125 37.7812 20.6875 41.3438 22.4375C44.9375 24.1875 47.7188 26.625 49.6875 29.75C51.6562 32.875 52.6406 36.3594 52.6406 40.2031H46.8281C46.8281 35.5469 45.2344 31.8125 42.0469 29C38.8594 26.1562 34.5781 24.7344 29.2031 24.7344C23.9844 24.7344 19.8281 25.9062 16.7344 28.25C13.6406 30.5625 12.0938 33.5938 12.0938 37.3438C12.0938 40.8125 13.4844 43.6406 16.2656 45.8281C19.0469 48.0156 23.5 49.9531 29.625 51.6406C35.75 53.2969 40.3906 55.0312 43.5469 56.8438C46.7031 58.625 49.0781 60.7656 50.6719 63.2656C52.2656 65.7656 53.0625 68.7188 53.0625 72.125C53.0625 77.5 50.9062 81.8125 46.5938 85.0625C42.3125 88.3125 36.6562 89.9375 29.625 89.9375C24.8125 89.9375 20.3906 89.0781 16.3594 87.3594C12.3594 85.6406 9.3125 83.2344 7.21875 80.1406C5.15625 77.0469 4.125 73.5 4.125 69.5H9.89062C9.89062 74.3125 11.6875 78.1094 15.2812 80.8906C18.875 83.6719 23.6562 85.0625 29.625 85.0625C34.9375 85.0625 39.2031 83.8906 42.4219 81.5469C45.6406 79.2031 47.25 76.0938 47.25 72.2188ZM115.969 58.5781C115.969 64.8594 114.875 70.375 112.688 75.125C110.531 79.875 107.438 83.5312 103.406 86.0938C99.375 88.6562 94.7188 89.9375 89.4375 89.9375C81.4688 89.9375 75.0312 87.0938 70.125 81.4062C65.2188 75.6875 62.7656 67.9844 62.7656 58.2969V51.2656C62.7656 45.0469 63.8594 39.5469 66.0469 34.7656C68.2656 29.9531 71.3906 26.2656 75.4219 23.7031C79.4531 21.1094 84.0938 19.8125 89.3438 19.8125C94.5938 19.8125 99.2188 21.0781 103.219 23.6094C107.25 26.1406 110.359 29.7187 112.547 34.3438C114.734 38.9688 115.875 44.3281 115.969 50.4219V58.5781ZM110.203 51.1719C110.203 42.9531 108.344 36.5156 104.625 31.8594C100.906 27.2031 95.8125 24.875 89.3438 24.875C83 24.875 77.9375 27.2188 74.1562 31.9062C70.4062 36.5625 68.5312 43.0781 68.5312 51.4531V58.5781C68.5312 66.6719 70.4062 73.0938 74.1562 77.8438C77.9062 82.5625 83 84.9219 89.4375 84.9219C95.9688 84.9219 101.062 82.5938 104.719 77.9375C108.375 73.25 110.203 66.7344 110.203 58.3906V51.1719ZM136.312 84.125H170.016V89H130.5V20.75H136.312V84.125ZM218.906 69.875H187.922L180.891 89H174.844L200.672 20.75H206.156L231.984 89H225.984L218.906 69.875ZM189.703 64.9531H217.078L203.391 27.7812L189.703 64.9531ZM267.562 60.5938H247.734V89H241.922V20.75H264.094C271.375 20.75 277.062 22.5156 281.156 26.0469C285.25 29.5781 287.297 34.5156 287.297 40.8594C287.297 45.2344 286.016 49.0938 283.453 52.4375C280.891 55.7812 277.453 58.0938 273.141 59.375L290.203 88.3906V89H284.062L267.562 60.5938ZM247.734 55.6719H265.406C270.25 55.6719 274.141 54.2969 277.078 51.5469C280.016 48.7969 281.484 45.2344 281.484 40.8594C281.484 36.0469 279.953 32.3125 276.891 29.6562C273.828 27 269.531 25.6719 264 25.6719H247.734V55.6719ZM308.812 84.125H342.516V89H303V20.75H308.812V84.125ZM398.109 20.75V67.3438C398.078 71.9375 397.062 75.9375 395.062 79.3438C393.062 82.75 390.234 85.375 386.578 87.2188C382.953 89.0312 378.781 89.9375 374.062 89.9375C366.875 89.9375 361.109 87.9844 356.766 84.0781C352.453 80.1406 350.219 74.7031 350.062 67.7656V20.75H355.781V66.9219C355.781 72.6719 357.422 77.1406 360.703 80.3281C363.984 83.4844 368.438 85.0625 374.062 85.0625C379.688 85.0625 384.125 83.4688 387.375 80.2812C390.656 77.0938 392.297 72.6562 392.297 66.9688V20.75H398.109ZM434.953 49.625L454.172 20.75H461.062L438.469 54.4062L461.766 89H454.828L434.953 59.1875L414.984 89H408.141L431.484 54.4062L408.844 20.75H415.734L434.953 49.625Z" transform="translate(-4 -19)" fill="#FF1744"/>
</svg>
