<svg xmlns="http://www.w3.org/2000/svg" xmlns:svg="http://www.w3.org/2000/svg" id="svg3403" width="1200" height="600" version="1.1" viewBox="0 0 60 30"><metadata id="metadata3422"/><clipPath id="t"><path id="path3406" d="M30,15 h30 v15 z v15 h-30 z h-30 v-15 z v-15 h30 z"/></clipPath><path id="path3408" fill="#00247d" d="m 1.7728048e-6,2e-6 0,29.999996 59.9999962271952,0 0,-29.999996 z"/><g id="g3504" transform="matrix(0.99923007,0,0,0.99796116,-41.704693,34.67408)"><path id="path3410" fill="#fff" fill-opacity="1" fill-rule="nonzero" stroke="none" stroke-dasharray="none" stroke-dashoffset="0" stroke-linecap="butt" stroke-linejoin="miter" stroke-miterlimit="4" stroke-opacity="1" stroke-width="6" d="m 41.743796,-34.736135 -0.0052,3.399613 23.299453,11.656015 -23.29292,11.6456408 -0.0083,3.3390294 6.709976,0.0081 23.299108,-11.6411232 23.34047,11.6413252 6.695117,0.0039 -1.9e-4,-3.3197576 -23.325557,-11.6770916 23.324297,-11.658534 0.003,-3.404701 -6.671587,-0.0012 -23.36561,11.710902 -23.408517,-11.705182 z" baseline-shift="baseline" clip-rule="nonzero" color="#000" color-interpolation="sRGB" color-interpolation-filters="linearRGB" color-rendering="auto" direction="ltr" display="inline" enable-background="accumulate" font-family="sans-serif" font-size="medium" font-stretch="normal" font-style="normal" font-variant="normal" font-weight="normal" image-rendering="auto" letter-spacing="normal" opacity="1" overflow="visible" shape-rendering="auto" text-anchor="start" text-decoration="none" text-rendering="auto" visibility="visible" word-spacing="normal" writing-mode="lr-tb" style="line-height:normal;text-indent:0;text-align:start;text-decoration-line:none;text-decoration-style:solid;text-decoration-color:#000;text-transform:none;block-progression:tb;white-space:normal;isolation:auto;mix-blend-mode:normal;solid-color:#000;solid-opacity:1"/><g id="g3475" transform="matrix(1.000467,0,0,1.0025461,-90.083492,-1.0167386)"><path id="path3473" fill="#cf142b" fill-opacity="1" stroke="none" stroke-dasharray="none" stroke-dashoffset="0" stroke-linejoin="round" stroke-miterlimit="4" stroke-opacity="1" stroke-width="0" d="m 161.74139,-18.612942 4.47326,-0.01609 25.56234,12.8005343 -0.0419,2.1537942 -29.99365,-14.9382355 z m 25.50494,-15.029538 4.33491,0.0062 -29.84225,15.030397 -0.002,-2.252586 25.50972,-12.784027 z m -42.74835,8.567988 -12.73919,-6.383243 0,-2.184788 29.98658,15.024487 -4.41926,0.0058 -12.82813,-6.46226 z m 17.24195,6.456629 0,2.184787 -25.50624,12.7726879 -4.46056,0.00281 29.9668,-14.9602819 z" opacity="1"/></g></g><g id="g3457" transform="matrix(0.99923007,0,0,0.99796116,-71.704693,6.7005857)"><g id="g3500"><path id="path3414" fill="#fff" fill-opacity="1" fill-rule="nonzero" stroke="none" stroke-dasharray="none" stroke-dashoffset="0" stroke-linecap="butt" stroke-linejoin="miter" stroke-miterlimit="4" stroke-opacity="1" stroke-width="10" d="m 96.779206,-6.714273 0,10.0204288 -25.019259,0 0,10.0204282 25.019259,0 0,10.020429 10.007704,0 0,-10.020429 25.01926,0 0,-10.0204282 -25.01926,0 0,-10.0204288 -10.007704,0 z" baseline-shift="baseline" clip-rule="nonzero" color="#000" color-interpolation="sRGB" color-interpolation-filters="linearRGB" color-rendering="auto" direction="ltr" display="inline" enable-background="accumulate" font-family="sans-serif" font-size="medium" font-stretch="normal" font-style="normal" font-variant="normal" font-weight="normal" image-rendering="auto" letter-spacing="normal" opacity="1" overflow="visible" shape-rendering="auto" text-anchor="start" text-decoration="none" text-rendering="auto" visibility="visible" word-spacing="normal" writing-mode="lr-tb" style="line-height:normal;text-indent:0;text-align:start;text-decoration-line:none;text-decoration-style:solid;text-decoration-color:#000;text-transform:none;block-progression:tb;white-space:normal;isolation:auto;mix-blend-mode:normal;solid-color:#000;solid-opacity:1"/><path id="path3416" fill="#cf142b" fill-opacity="1" fill-rule="nonzero" stroke="none" stroke-dasharray="none" stroke-dashoffset="0" stroke-linecap="butt" stroke-linejoin="miter" stroke-miterlimit="4" stroke-opacity="1" stroke-width="6" d="m 98.780746,-6.714273 0,12.0245146 -27.020799,0 0,6.0122564 27.020799,0 0,12.024515 6.004624,0 0,-12.024515 27.0208,0 0,-6.0122564 -27.0208,0 0,-12.0245146 -6.004624,0 z" baseline-shift="baseline" clip-rule="nonzero" color="#000" color-interpolation="sRGB" color-interpolation-filters="linearRGB" color-rendering="auto" direction="ltr" display="inline" enable-background="accumulate" font-family="sans-serif" font-size="medium" font-stretch="normal" font-style="normal" font-variant="normal" font-weight="normal" image-rendering="auto" letter-spacing="normal" opacity="1" overflow="visible" shape-rendering="auto" text-anchor="start" text-decoration="none" text-rendering="auto" visibility="visible" word-spacing="normal" writing-mode="lr-tb" style="line-height:normal;text-indent:0;text-align:start;text-decoration-line:none;text-decoration-style:solid;text-decoration-color:#000;text-transform:none;block-progression:tb;white-space:normal;isolation:auto;mix-blend-mode:normal;solid-color:#000;solid-opacity:1"/></g></g></svg>