<svg width="513" height="101" viewBox="0 0 513 101" fill="none" xmlns="http://www.w3.org/2000/svg">
<circle cx="33.5" cy="33.5" r="33.5" transform="translate(17 17)" fill="#FDA616"/>
<path d="M24.4272 9.83445C23.8067 8.75989 24.1746 7.38607 25.2489 6.76555C26.3229 6.14528 27.6973 6.5132 28.3175 7.5875L31.1538 12.4985C31.7743 13.5728 31.4064 14.9469 30.3321 15.5674C29.9784 15.7716 29.5918 15.8689 29.2106 15.8689C28.4343 15.8689 27.6793 15.466 27.2632 14.7454L24.4272 9.83445ZM12.499 69.846L7.58777 72.6815C6.51321 73.3018 6.1453 74.6756 6.76557 75.7502C7.18166 76.471 7.93672 76.8739 8.71299 76.8739C9.09414 76.8739 9.48053 76.7766 9.83422 76.5724L14.7455 73.7369C15.82 73.1166 16.1879 71.7428 15.5677 70.6682C14.9474 69.5937 13.5731 69.2258 12.499 69.846ZM14.7455 27.2631L9.83422 24.4276C8.75967 23.8073 7.38584 24.1753 6.76557 25.2498C6.1453 26.3244 6.51321 27.6982 7.58777 28.3185L12.499 31.154C12.8527 31.3582 13.2388 31.4555 13.6202 31.4555C14.3965 31.4555 15.1516 31.0526 15.5677 30.3318C16.1879 29.2572 15.8198 27.8834 14.7455 27.2631ZM87.38 31.4555C87.7612 31.4555 88.1475 31.3582 88.5012 31.154L93.4125 28.3185C94.487 27.6982 94.855 26.3244 94.2347 25.2498C93.6144 24.1753 92.2403 23.8073 91.166 24.4276L86.2548 27.2631C85.1802 27.8834 84.8123 29.2572 85.4326 30.3318C85.8487 31.0524 86.6037 31.4555 87.38 31.4555ZM70.6681 15.5674C71.0218 15.7716 71.408 15.8689 71.7894 15.8689C72.5657 15.8689 73.321 15.4658 73.7371 14.7452L76.5723 9.83419C77.1926 8.75964 76.8244 7.38582 75.7501 6.76555C74.6756 6.14553 73.3017 6.51345 72.6815 7.58775L69.8462 12.4987C69.2257 13.5733 69.5936 14.9474 70.6681 15.5674ZM50.5 10.1697C51.7408 10.1697 52.7465 9.16401 52.7465 7.92322V2.24645C52.7465 1.00566 51.7408 0 50.5 0C49.2592 0 48.2535 1.00566 48.2535 2.24645V7.92322C48.2535 9.16401 49.2595 10.1697 50.5 10.1697ZM10.1699 50.4999C10.1699 49.2591 9.16428 48.2534 7.92349 48.2534H2.24645C1.00566 48.2534 0 49.2591 0 50.4999C0 51.7407 1.00566 52.7463 2.24645 52.7463H7.92324C9.16403 52.7463 10.1699 51.7407 10.1699 50.4999ZM93.4125 72.6818L88.5012 69.8463C87.4267 69.2263 86.0531 69.5937 85.4326 70.6685C84.8123 71.743 85.1802 73.1169 86.2548 73.7371L91.166 76.5726C91.5197 76.7768 91.9061 76.8742 92.2873 76.8742C93.0635 76.8742 93.8186 76.4713 94.2347 75.7504C94.855 74.6759 94.4868 73.3021 93.4125 72.6818ZM98.7535 48.2534H93.0773C91.8365 48.2534 90.8308 49.2591 90.8308 50.4999C90.8308 51.7407 91.8365 52.7463 93.0773 52.7463H98.7535C99.9943 52.7463 101 51.7407 101 50.4999C101 49.2591 99.9943 48.2534 98.7535 48.2534ZM84.5637 50.4999C84.5637 69.2824 69.2828 84.5632 50.5003 84.5632C31.7177 84.5632 16.4365 69.2824 16.4365 50.4999C16.4365 31.7173 31.7174 16.4368 50.5 16.4368C69.2826 16.4368 84.5637 31.7173 84.5637 50.4999ZM80.0708 50.4999C80.0708 34.1947 66.8055 20.9294 50.5003 20.9294C34.195 20.9294 20.9294 34.1947 20.9294 50.4999C20.9294 66.8051 34.1948 80.0704 50.5 80.0704C66.8052 80.0704 80.0708 66.8053 80.0708 50.4999ZM30.3321 85.4326C29.2578 84.8126 27.8837 85.1803 27.2634 86.2548L24.4282 91.1658C23.8079 92.2404 24.1761 93.6142 25.2504 94.2344C25.6041 94.4386 25.9905 94.536 26.3716 94.536C27.1479 94.536 27.9032 94.1329 28.3193 93.4122L31.1546 88.5013C31.7746 87.4267 31.4064 86.0526 30.3321 85.4326ZM60.9036 53.2345C60.76 52.968 60.5609 52.7269 60.3095 52.5307C60.0986 52.3657 59.8575 52.2371 59.5959 52.1555L59.5929 52.1545C59.364 52.0836 59.1281 52.0502 58.8942 52.0539H46.1596C45.936 52.0522 45.5306 52.0489 45.0968 52.0372C45.2176 51.847 45.3516 51.6393 45.4991 51.4149C46.2527 50.2667 50.5127 43.8644 53.9184 38.7485L54.9864 44.1602C55.2265 45.3775 56.4082 46.168 57.6252 45.9294C58.8423 45.689 59.6346 44.5076 59.3942 43.2905L57.2835 32.5952C57.1842 32.0054 56.8507 31.4562 56.3136 31.0983C56.1346 30.9792 55.9449 30.8891 55.75 30.827C55.4003 30.7149 55.0176 30.6877 54.6325 30.7636L43.8742 32.8865C42.6571 33.1269 41.8649 34.3082 42.1053 35.5253C42.3456 36.7424 43.5275 37.5329 44.7441 37.2945L50.2065 36.2167C46.7921 41.3451 42.5041 47.7897 41.7431 48.9496C40.4326 50.9449 39.1951 52.8294 40.1738 54.6605C41.1617 56.5086 43.4616 56.5266 46.1419 56.5473H54.7306C52.105 60.4913 48.5411 65.8473 47.9153 66.8003C47.2344 67.8374 47.5232 69.2302 48.5603 69.9112C48.9405 70.1608 49.368 70.2801 49.7911 70.2801C50.5225 70.2801 51.2398 69.9234 51.6712 69.2662C52.5173 67.9772 58.8321 58.4937 60.778 55.5716C60.9091 55.3809 61.0114 55.1692 61.079 54.9423C61.1577 54.6788 61.1859 54.4064 61.1662 54.1381C61.1427 53.8126 61.0503 53.5066 60.9036 53.2345ZM50.5 90.8303C49.2592 90.8303 48.2535 91.836 48.2535 93.0768V98.7536C48.2535 99.9943 49.2592 101 50.5 101C51.7408 101 52.7465 99.9943 52.7465 98.7536V93.0768C52.7465 91.836 51.7408 90.8303 50.5 90.8303ZM73.7368 86.2543C73.1165 85.18 71.7429 84.8121 70.6681 85.4324C69.5938 86.0526 69.2257 87.4267 69.8462 88.501L72.682 93.412C73.0981 94.1329 73.8531 94.5357 74.6294 94.5357C75.0105 94.5357 75.3969 94.4384 75.7506 94.2342C76.8252 93.6139 77.1931 92.2399 76.5726 91.1656L73.7368 86.2543Z" fill="#FDA616"/>
<path d="M21.0818 22.5138C20.9382 22.2473 20.7391 22.0062 20.4877 21.81C20.2768 21.645 20.0357 21.5164 19.7741 21.4348L19.7711 21.4338C19.5422 21.3629 19.3063 21.3295 19.0724 21.3332H6.33778C6.11418 21.3315 5.70878 21.3282 5.27498 21.3165C5.39578 21.1263 5.52978 20.9186 5.67728 20.6942C6.43088 19.546 10.6909 13.1437 14.0966 8.02776L15.1646 13.4395C15.4047 14.6568 16.5864 15.4473 17.8034 15.2087C19.0205 14.9683 19.8128 13.7869 19.5724 12.5698L17.4617 1.87446C17.3624 1.28466 17.0289 0.735463 16.4918 0.377563C16.3128 0.258463 16.1231 0.168362 15.9282 0.106262C15.5785 -0.00583784 15.1958 -0.0330381 14.8107 0.0428619L4.05238 2.16576C2.83528 2.40616 2.04308 3.58746 2.28348 4.80456C2.52378 6.02166 3.70568 6.81216 4.92228 6.57376L10.3847 5.49596C6.97028 10.6244 2.68228 17.069 1.92128 18.2289C0.610782 20.2242 -0.626715 22.1087 0.351985 23.9398C1.33988 25.7879 3.63978 25.8059 6.32008 25.8266H14.9088C12.2832 29.7706 8.71928 35.1266 8.09348 36.0796C7.41258 37.1167 7.70138 38.5095 8.73848 39.1905C9.11868 39.4401 9.54618 39.5594 9.96928 39.5594C10.7007 39.5594 11.418 39.2027 11.8494 38.5455C12.6955 37.2565 19.0103 27.773 20.9562 24.8509C21.0873 24.6602 21.1896 24.4485 21.2572 24.2216C21.3359 23.9581 21.3641 23.6857 21.3444 23.4174C21.3209 23.0919 21.2285 22.7859 21.0818 22.5138Z" transform="translate(39 30)" fill="white"/>
<path d="M43.125 55.2188C43.125 51.4375 41.7969 48.4531 39.1406 46.2656C36.4844 44.0469 31.625 41.9531 24.5625 39.9844C17.5 37.9844 12.3438 35.8125 9.0938 33.4688C4.46875 30.1562 2.15625 25.8125 2.15625 20.4375C2.15625 15.2188 4.29688 10.9844 8.5781 7.7344C12.8906 4.4531 18.3906 2.8125 25.0781 2.8125C29.6094 2.8125 33.6562 3.6875 37.2188 5.4375C40.8125 7.1875 43.5938 9.625 45.5625 12.75C47.5312 15.875 48.5156 19.3594 48.5156 23.2031H42.7031C42.7031 18.5469 41.1094 14.8125 37.9219 12C34.7344 9.1562 30.4531 7.7344 25.0781 7.7344C19.8594 7.7344 15.7031 8.9062 12.6094 11.25C9.5156 13.5625 7.9688 16.5938 7.9688 20.3438C7.9688 23.8125 9.3594 26.6406 12.1406 28.8281C14.9219 31.0156 19.375 32.9531 25.5 34.6406C31.625 36.2969 36.2656 38.0312 39.4219 39.8438C42.5781 41.625 44.9531 43.7656 46.5469 46.2656C48.1406 48.7656 48.9375 51.7188 48.9375 55.125C48.9375 60.5 46.7812 64.8125 42.4688 68.0625C38.1875 71.3125 32.5312 72.9375 25.5 72.9375C20.6875 72.9375 16.2656 72.0781 12.2344 70.3594C8.2344 68.6406 5.1875 66.2344 3.09375 63.1406C1.03125 60.0469 0 56.5 0 52.5H5.76562C5.76562 57.3125 7.5625 61.1094 11.1562 63.8906C14.75 66.6719 19.5312 68.0625 25.5 68.0625C30.8125 68.0625 35.0781 66.8906 38.2969 64.5469C41.5156 62.2031 43.125 59.0938 43.125 55.2188ZM57 45.8906C57 41.0156 57.9375 36.625 59.8125 32.7188C61.7188 28.8125 64.3906 25.7812 67.8281 23.625C71.2969 21.4375 75.2188 20.3438 79.5938 20.3438C86.3438 20.3438 91.8125 22.7188 96 27.4688C100.187 32.1875 102.281 38.4531 102.281 46.2656V47.4375C102.281 52.3438 101.328 56.7656 99.422 60.7031C97.547 64.6094 94.8906 67.625 91.4531 69.75C88.0156 71.875 84.0938 72.9375 79.6875 72.9375C72.9688 72.9375 67.5 70.5781 63.2812 65.8594C59.0938 61.1094 57 54.8281 57 47.0156V45.8906ZM62.625 47.4375C62.625 53.5 64.1875 58.4844 67.3125 62.3906C70.4688 66.2656 74.5938 68.2031 79.6875 68.2031C84.75 68.2031 88.8438 66.2656 91.9688 62.3906C95.125 58.4844 96.703 53.3438 96.703 46.9688V45.8906C96.703 42.0156 95.984 38.4688 94.5469 35.25C93.1094 32.0312 91.0938 29.5469 88.5 27.7969C85.9062 26.0156 82.9375 25.125 79.5938 25.125C74.5938 25.125 70.5156 27.0938 67.3594 31.0312C64.2031 34.9375 62.625 40.0625 62.625 46.4062V47.4375ZM120.187 72H114.563V0H120.187V72ZM167.484 72C166.922 70.4062 166.563 68.0469 166.406 64.9219C164.437 67.4844 161.922 69.4688 158.859 70.875C155.828 72.25 152.609 72.9375 149.203 72.9375C144.328 72.9375 140.375 71.5781 137.344 68.8594C134.344 66.1406 132.844 62.7031 132.844 58.5469C132.844 53.6094 134.891 49.7031 138.984 46.8281C143.109 43.9531 148.844 42.5156 156.187 42.5156H166.359V36.75C166.359 33.125 165.234 30.2812 162.984 28.2188C160.766 26.125 157.516 25.0781 153.234 25.0781C149.328 25.0781 146.094 26.0781 143.531 28.0781C140.969 30.0781 139.687 32.4844 139.687 35.2969L134.063 35.25C134.063 31.2188 135.937 27.7344 139.687 24.7969C143.437 21.8281 148.047 20.3438 153.516 20.3438C159.172 20.3438 163.625 21.7656 166.875 24.6094C170.156 27.4219 171.844 31.3594 171.937 36.4219V60.4219C171.937 65.3281 172.453 69 173.484 71.4375V72H167.484ZM149.859 67.9688C153.609 67.9688 156.953 67.0625 159.891 65.25C162.859 63.4375 165.016 61.0156 166.359 57.9844V46.8281H156.328C150.734 46.8906 146.359 47.9219 143.203 49.9219C140.047 51.8906 138.469 54.6094 138.469 58.0781C138.469 60.9219 139.516 63.2812 141.609 65.1562C143.734 67.0312 146.484 67.9688 149.859 67.9688ZM210.375 26.0625C209.187 25.8438 207.922 25.7344 206.578 25.7344C203.078 25.7344 200.109 26.7188 197.672 28.6875C195.266 30.625 193.547 33.4531 192.516 37.1719V72H186.937V21.2812H192.422L192.516 29.3438C195.484 23.3438 200.25 20.3438 206.813 20.3438C208.375 20.3438 209.609 20.5469 210.516 20.9531L210.375 26.0625ZM269.859 63.8906C267.859 66.7344 264.719 68.9531 260.437 70.5469C256.187 72.1406 251.422 72.9375 246.141 72.9375C240.797 72.9375 236.047 71.6562 231.891 69.0938C227.734 66.5312 224.516 62.9062 222.234 58.2188C219.953 53.5312 218.797 48.1562 218.766 42.0938V33.4688C218.766 24 221.156 16.5312 225.937 11.0625C230.719 5.5625 237.141 2.8125 245.203 2.8125C252.234 2.8125 257.891 4.6094 262.172 8.2031C266.453 11.7656 269 16.6875 269.813 22.9688H264.047C263.203 17.9688 261.156 14.1875 257.906 11.625C254.687 9.0313 250.469 7.7344 245.25 7.7344C238.875 7.7344 233.828 10 230.109 14.5312C226.391 19.0625 224.531 25.4531 224.531 33.7031V41.7656C224.531 46.9531 225.406 51.5469 227.156 55.5469C228.937 59.5156 231.469 62.5938 234.75 64.7812C238.063 66.9688 241.859 68.0625 246.141 68.0625C251.109 68.0625 255.375 67.2812 258.937 65.7188C261.25 64.6875 262.969 63.4844 264.094 62.1094V44.4844H245.766V39.6094H269.859V63.8906ZM316.922 72C316.359 70.4062 316 68.0469 315.844 64.9219C313.875 67.4844 311.359 69.4688 308.297 70.875C305.266 72.25 302.047 72.9375 298.641 72.9375C293.766 72.9375 289.813 71.5781 286.781 68.8594C283.781 66.1406 282.281 62.7031 282.281 58.5469C282.281 53.6094 284.328 49.7031 288.422 46.8281C292.547 43.9531 298.281 42.5156 305.625 42.5156H315.797V36.75C315.797 33.125 314.672 30.2812 312.422 28.2188C310.203 26.125 306.953 25.0781 302.672 25.0781C298.766 25.0781 295.531 26.0781 292.969 28.0781C290.406 30.0781 289.125 32.4844 289.125 35.2969L283.5 35.25C283.5 31.2188 285.375 27.7344 289.125 24.7969C292.875 21.8281 297.484 20.3438 302.953 20.3438C308.609 20.3438 313.063 21.7656 316.313 24.6094C319.594 27.4219 321.281 31.3594 321.375 36.4219V60.4219C321.375 65.3281 321.891 69 322.922 71.4375V72H316.922ZM299.297 67.9688C303.047 67.9688 306.391 67.0625 309.328 65.25C312.297 63.4375 314.453 61.0156 315.797 57.9844V46.8281H305.766C300.172 46.8906 295.797 47.9219 292.641 49.9219C289.484 51.8906 287.906 54.6094 287.906 58.0781C287.906 60.9219 288.953 63.2812 291.047 65.1562C293.172 67.0312 295.922 67.9688 299.297 67.9688ZM342.656 72H337.031V21.2812H342.656V72ZM336.047 6.6094C336.047 5.5469 336.391 4.6562 337.078 3.9375C337.766 3.1875 338.703 2.8125 339.891 2.8125C341.078 2.8125 342.016 3.1875 342.703 3.9375C343.422 4.6562 343.781 5.5469 343.781 6.6094C343.781 7.6719 343.422 8.5625 342.703 9.2812C342.016 10 341.078 10.3594 339.891 10.3594C338.703 10.3594 337.766 10 337.078 9.2812C336.391 8.5625 336.047 7.6719 336.047 6.6094ZM363.281 21.2812L363.469 29.9531C365.375 26.8281 367.75 24.4531 370.594 22.8281C373.437 21.1719 376.578 20.3438 380.016 20.3438C385.453 20.3438 389.5 21.875 392.156 24.9375C394.813 28 396.156 32.5938 396.187 38.7188V72H390.609V38.6719C390.578 34.1406 389.609 30.7656 387.703 28.5469C385.828 26.3281 382.813 25.2188 378.656 25.2188C375.187 25.2188 372.109 26.3125 369.422 28.5C366.766 30.6562 364.797 33.5781 363.516 37.2656V72H357.937V21.2812H363.281Z" transform="translate(116.125 17)" fill="#FDA616"/>
</svg>
