<svg width="40" height="40" viewBox="0 0 101 101" fill="none" xmlns="http://www.w3.org/2000/svg"><path d="M24.427 9.834a2.247 2.247 0 0 1 3.89-2.246l2.837 4.91a2.247 2.247 0 1 1-3.89 2.247l-2.837-4.91zM12.5 69.846l-4.911 2.835a2.246 2.246 0 1 0 2.246 3.891l4.912-2.835a2.246 2.246 0 0 0-2.247-3.891zm2.246-42.583l-4.91-2.835a2.246 2.246 0 1 0-2.247 3.89l4.911 2.836a2.245 2.245 0 0 0 2.246-3.89zm72.635 4.192c.381 0 .767-.097 1.121-.301l4.911-2.835a2.246 2.246 0 1 0-2.246-3.891l-4.911 2.835a2.246 2.246 0 0 0 1.125 4.192zM70.668 15.568a2.246 2.246 0 0 0 3.069-.822l2.835-4.91a2.246 2.246 0 0 0-3.89-2.247l-2.836 4.91a2.246 2.246 0 0 0 .822 3.07zM50.5 10.17a2.246 2.246 0 0 0 2.246-2.247V2.246a2.246 2.246 0 1 0-4.492 0v5.677A2.247 2.247 0 0 0 50.5 10.17zM10.17 50.5a2.246 2.246 0 0 0-2.247-2.247H2.246a2.246 2.246 0 1 0 0 4.493h5.677A2.246 2.246 0 0 0 10.17 50.5zm83.242 22.182l-4.91-2.836a2.246 2.246 0 1 0-2.247 3.891l4.911 2.836a2.245 2.245 0 0 0 2.246-3.89zm5.341-24.429h-5.676a2.246 2.246 0 1 0 0 4.493h5.677a2.246 2.246 0 1 0 0-4.493zM84.564 50.5c0 18.782-15.28 34.063-34.063 34.063-18.782 0-34.063-15.28-34.063-34.063S31.717 16.437 50.5 16.437 84.564 31.717 84.564 50.5zm-4.492 0c0-16.305-13.266-29.57-29.57-29.57-16.306 0-29.572 13.265-29.572 29.57S34.195 80.07 50.5 80.07 80.07 66.805 80.07 50.5zM30.332 85.433a2.247 2.247 0 0 0-3.069.822l-2.835 4.91a2.246 2.246 0 1 0 3.891 2.247l2.836-4.91a2.247 2.247 0 0 0-.823-3.07zm30.572-32.199a2.237 2.237 0 0 0-1.308-1.078l-.003-.002a2.242 2.242 0 0 0-.699-.1H46.16a55.004 55.004 0 0 1-1.063-.017c.12-.19.255-.398.402-.622.754-1.148 5.014-7.55 8.42-12.666l1.067 5.411a2.247 2.247 0 0 0 4.408-.87l-2.11-10.695a2.24 2.24 0 0 0-1.534-1.768 2.236 2.236 0 0 0-1.117-.063l-10.759 2.122a2.246 2.246 0 0 0 .87 4.408l5.462-1.077a5673.158 5673.158 0 0 0-8.463 12.733c-1.31 1.995-2.548 3.88-1.57 5.71.989 1.849 3.289 1.867 5.969 1.887h8.589c-2.626 3.944-6.19 9.3-6.816 10.253a2.247 2.247 0 0 0 3.756 2.466c.846-1.289 7.161-10.772 9.107-13.694a2.239 2.239 0 0 0 .126-2.338zM50.5 90.83a2.246 2.246 0 0 0-2.246 2.247v5.677a2.246 2.246 0 1 0 4.492 0v-5.677A2.246 2.246 0 0 0 50.5 90.83zm23.237-4.576a2.246 2.246 0 0 0-3.89 2.247l2.835 4.911a2.245 2.245 0 0 0 3.069.822 2.246 2.246 0 0 0 .822-3.068l-2.836-4.912z" fill="#fff"/></svg>