<svg xmlns="http://www.w3.org/2000/svg" width="402" height="93" fill="none" viewBox="0 0 402 93"><path fill="#1565C0" d="M42.6094 71.4219C42.6094 68.4219 41.5469 66.1094 39.4219 64.4844C37.3281 62.8594 33.5312 61.2188 28.0312 59.5625C22.5312 57.9062 18.1562 56.0625 14.9062 54.0312C8.6875 50.125 5.57812 45.0312 5.57812 38.75C5.57812 33.25 7.8125 28.7188 12.2812 25.1562C16.7812 21.5938 22.6094 19.8125 29.7656 19.8125C34.5156 19.8125 38.75 20.6875 42.4688 22.4375C46.1875 24.1875 49.1094 26.6875 51.2344 29.9375C53.3594 33.1562 54.4219 36.7344 54.4219 40.6719H42.6094C42.6094 37.1094 41.4844 34.3281 39.2344 32.3281C37.0156 30.2969 33.8281 29.2812 29.6719 29.2812C25.7969 29.2812 22.7812 30.1094 20.625 31.7656C18.5 33.4219 17.4375 35.7344 17.4375 38.7031C17.4375 41.2031 18.5938 43.2969 20.9062 44.9844C23.2188 46.6406 27.0312 48.2656 32.3438 49.8594C37.6562 51.4219 41.9219 53.2188 45.1406 55.25C48.3594 57.25 50.7188 59.5625 52.2188 62.1875C53.7188 64.7812 54.4688 67.8281 54.4688 71.3281C54.4688 77.0156 52.2812 81.5469 47.9062 84.9219C43.5625 88.2656 37.6562 89.9375 30.1875 89.9375C25.25 89.9375 20.7031 89.0312 16.5469 87.2188C12.4219 85.375 9.20312 82.8438 6.89062 79.625C4.60938 76.4062 3.46875 72.6562 3.46875 68.375H15.3281C15.3281 72.25 16.6094 75.25 19.1719 77.375C21.7344 79.5 25.4062 80.5625 30.1875 80.5625C34.3125 80.5625 37.4062 79.7344 39.4688 78.0781C41.5625 76.3906 42.6094 74.1719 42.6094 71.4219ZM61.6406 63.1719C61.6406 58.2031 62.625 53.7344 64.5938 49.7656C66.5625 45.7656 69.3281 42.7031 72.8906 40.5781C76.4531 38.4219 80.5469 37.3438 85.1719 37.3438C92.0156 37.3438 97.5625 39.5469 101.812 43.9531C106.094 48.3594 108.406 54.2031 108.75 61.4844L108.797 64.1562C108.797 69.1562 107.828 73.625 105.891 77.5625C103.984 81.5 101.234 84.5469 97.6406 86.7031C94.0781 88.8594 89.9531 89.9375 85.2656 89.9375C78.1094 89.9375 72.375 87.5625 68.0625 82.8125C63.7812 78.0312 61.6406 71.6719 61.6406 63.7344V63.1719ZM73.0312 64.1562C73.0312 69.375 74.1094 73.4688 76.2656 76.4375C78.4219 79.375 81.4219 80.8438 85.2656 80.8438C89.1094 80.8438 92.0938 79.3438 94.2188 76.3438C96.375 73.3438 97.4531 68.9531 97.4531 63.1719C97.4531 58.0469 96.3438 53.9844 94.125 50.9844C91.9375 47.9844 88.9531 46.4844 85.1719 46.4844C81.4531 46.4844 78.5 47.9688 76.3125 50.9375C74.125 53.875 73.0312 58.2812 73.0312 64.1562ZM130.547 89H119.156V17H130.547V89ZM163.828 80.8438C166.672 80.8438 169.031 80.0156 170.906 78.3594C172.781 76.7031 173.781 74.6562 173.906 72.2188H184.641C184.516 75.375 183.531 78.3281 181.688 81.0781C179.844 83.7969 177.344 85.9531 174.188 87.5469C171.031 89.1406 167.625 89.9375 163.969 89.9375C156.875 89.9375 151.25 87.6406 147.094 83.0469C142.938 78.4531 140.859 72.1094 140.859 64.0156V62.8438C140.859 55.125 142.922 48.9531 147.047 44.3281C151.172 39.6719 156.797 37.3438 163.922 37.3438C169.953 37.3438 174.859 39.1094 178.641 42.6406C182.453 46.1406 184.453 50.75 184.641 56.4688H173.906C173.781 53.5625 172.781 51.1719 170.906 49.2969C169.062 47.4219 166.703 46.4844 163.828 46.4844C160.141 46.4844 157.297 47.8281 155.297 50.5156C153.297 53.1719 152.281 57.2188 152.25 62.6562V64.4844C152.25 69.9844 153.234 74.0938 155.203 76.8125C157.203 79.5 160.078 80.8438 163.828 80.8438ZM219.797 48.6875C218.297 48.4375 216.75 48.3125 215.156 48.3125C209.938 48.3125 206.422 50.3125 204.609 54.3125V89H193.219V38.2812H204.094L204.375 43.9531C207.125 39.5469 210.938 37.3438 215.812 37.3438C217.438 37.3438 218.781 37.5625 219.844 38L219.797 48.6875ZM245.578 72.6875L255.891 38.2812H268.031L247.875 96.6875C244.781 105.219 239.531 109.484 232.125 109.484C230.469 109.484 228.641 109.203 226.641 108.641V99.8281L228.797 99.9688C231.672 99.9688 233.828 99.4375 235.266 98.375C236.734 97.3438 237.891 95.5938 238.734 93.125L240.375 88.7656L222.562 38.2812H234.844L245.578 72.6875ZM319.031 64.1562C319.031 72 317.25 78.2656 313.688 82.9531C310.125 87.6094 305.344 89.9375 299.344 89.9375C293.781 89.9375 289.328 88.1094 285.984 84.4531V108.5H274.594V38.2812H285.094L285.562 43.4375C288.906 39.375 293.453 37.3438 299.203 37.3438C305.391 37.3438 310.234 39.6562 313.734 44.2812C317.266 48.875 319.031 55.2656 319.031 63.4531V64.1562ZM307.688 63.1719C307.688 58.1094 306.672 54.0938 304.641 51.125C302.641 48.1562 299.766 46.6719 296.016 46.6719C291.359 46.6719 288.016 48.5938 285.984 52.4375V74.9375C288.047 78.875 291.422 80.8438 296.109 80.8438C299.734 80.8438 302.562 79.3906 304.594 76.4844C306.656 73.5469 307.688 69.1094 307.688 63.1719ZM342.984 25.9531V38.2812H351.938V46.7188H342.984V75.0312C342.984 76.9688 343.359 78.375 344.109 79.25C344.891 80.0938 346.266 80.5156 348.234 80.5156C349.547 80.5156 350.875 80.3594 352.219 80.0469V88.8594C349.625 89.5781 347.125 89.9375 344.719 89.9375C335.969 89.9375 331.594 85.1094 331.594 75.4531V46.7188H323.25V38.2812H331.594V25.9531H342.984ZM357.141 63.1719C357.141 58.2031 358.125 53.7344 360.094 49.7656C362.062 45.7656 364.828 42.7031 368.391 40.5781C371.953 38.4219 376.047 37.3438 380.672 37.3438C387.516 37.3438 393.062 39.5469 397.312 43.9531C401.594 48.3594 403.906 54.2031 404.25 61.4844L404.297 64.1562C404.297 69.1562 403.328 73.625 401.391 77.5625C399.484 81.5 396.734 84.5469 393.141 86.7031C389.578 88.8594 385.453 89.9375 380.766 89.9375C373.609 89.9375 367.875 87.5625 363.562 82.8125C359.281 78.0312 357.141 71.6719 357.141 63.7344V63.1719ZM368.531 64.1562C368.531 69.375 369.609 73.4688 371.766 76.4375C373.922 79.375 376.922 80.8438 380.766 80.8438C384.609 80.8438 387.594 79.3438 389.719 76.3438C391.875 73.3438 392.953 68.9531 392.953 63.1719C392.953 58.0469 391.844 53.9844 389.625 50.9844C387.438 47.9844 384.453 46.4844 380.672 46.4844C376.953 46.4844 374 47.9688 371.812 50.9375C369.625 53.875 368.531 58.2812 368.531 64.1562Z" transform="translate(-3 -17)"/></svg>