<svg width="460" height="60" viewBox="0 0 281 37" fill="none" xmlns="http://www.w3.org/2000/svg"><path d="M20.25 20.227H5.46V32.32h17.18V36H.96V1.875h21.446v3.703H5.461v10.969H20.25v3.68zM32.273 36h-4.336V0h4.336v36zm17.485.469c-3.438 0-6.235-1.125-8.39-3.375-2.157-2.266-3.235-5.29-3.235-9.07v-.797c0-2.516.476-4.758 1.43-6.727.968-1.984 2.312-3.531 4.03-4.64 1.735-1.126 3.61-1.688 5.626-1.688 3.297 0 5.86 1.086 7.687 3.258 1.828 2.172 2.742 5.28 2.742 9.328v1.805h-17.18c.063 2.5.79 4.523 2.18 6.07 1.407 1.531 3.188 2.297 5.344 2.297 1.531 0 2.828-.313 3.89-.938a9.775 9.775 0 0 0 2.79-2.484l2.648 2.062c-2.125 3.266-5.312 4.899-9.562 4.899zm-.54-22.735c-1.75 0-3.218.641-4.406 1.922-1.187 1.266-1.921 3.047-2.203 5.344h12.703v-.328c-.124-2.203-.718-3.906-1.78-5.11-1.063-1.218-2.5-1.828-4.313-1.828zM74.86 32.93c1.547 0 2.899-.47 4.055-1.407 1.156-.937 1.797-2.109 1.922-3.515h4.102c-.079 1.453-.579 2.836-1.5 4.148-.922 1.313-2.157 2.36-3.704 3.14a10.581 10.581 0 0 1-4.875 1.173c-3.453 0-6.203-1.149-8.25-3.446-2.03-2.312-3.046-5.468-3.046-9.468v-.727c0-2.469.453-4.664 1.359-6.586.906-1.922 2.203-3.414 3.89-4.476 1.704-1.063 3.711-1.594 6.024-1.594 2.844 0 5.203.851 7.078 2.555 1.89 1.703 2.898 3.914 3.023 6.632h-4.101c-.125-1.64-.75-2.984-1.875-4.03-1.11-1.063-2.484-1.595-4.125-1.595-2.203 0-3.914.797-5.133 2.391-1.203 1.578-1.805 3.867-1.805 6.867v.82c0 2.922.602 5.172 1.805 6.75 1.203 1.579 2.922 2.368 5.156 2.368zM95.695 4.5v6.14h4.735v3.352h-4.735V29.72c0 1.015.211 1.781.633 2.297.422.5 1.141.75 2.156.75.5 0 1.188-.094 2.063-.282V36c-1.141.313-2.25.469-3.328.469-1.938 0-3.399-.586-4.383-1.758-.984-1.172-1.477-2.836-1.477-4.992V13.992h-4.617v-3.351h4.617V4.5h4.336zm22.078 10.031a12.995 12.995 0 0 0-2.132-.164c-2.844 0-4.774 1.211-5.789 3.633v18h-4.336V10.64h4.218l.071 2.93c1.422-2.265 3.437-3.398 6.047-3.398.843 0 1.484.11 1.921.328v4.031zM126.492 36h-4.336V10.64h4.336V36zm-4.687-32.086c0-.703.211-1.297.633-1.781.437-.485 1.078-.727 1.921-.727.844 0 1.485.242 1.922.727.438.484.657 1.078.657 1.781 0 .703-.219 1.29-.657 1.758-.437.469-1.078.703-1.922.703-.843 0-1.484-.234-1.921-.703-.422-.469-.633-1.055-.633-1.758zM190.5 25.172c-.422 3.61-1.758 6.398-4.008 8.367-2.234 1.953-5.211 2.93-8.93 2.93-4.031 0-7.265-1.446-9.703-4.336-2.421-2.89-3.632-6.758-3.632-11.602V17.25c0-3.172.562-5.96 1.687-8.367 1.141-2.406 2.75-4.25 4.828-5.531 2.078-1.297 4.485-1.946 7.219-1.946 3.625 0 6.531 1.016 8.719 3.047 2.187 2.016 3.461 4.813 3.82 8.39h-4.523c-.391-2.718-1.243-4.687-2.555-5.905-1.297-1.22-3.117-1.829-5.461-1.829-2.875 0-5.133 1.063-6.773 3.188-1.626 2.125-2.438 5.148-2.438 9.07v3.305c0 3.703.773 6.648 2.32 8.836 1.547 2.187 3.711 3.281 6.492 3.281 2.5 0 4.415-.562 5.743-1.687 1.343-1.141 2.234-3.118 2.672-5.93h4.523zm9.82-11.461c1.922-2.36 4.422-3.54 7.5-3.54 5.36 0 8.063 3.024 8.11 9.071V36h-4.336V19.219c-.016-1.828-.438-3.18-1.266-4.055-.812-.875-2.086-1.312-3.82-1.312-1.406 0-2.641.375-3.703 1.125-1.063.75-1.891 1.734-2.485 2.953V36h-4.336V0h4.336v13.71zM238.078 36c-.25-.5-.453-1.39-.609-2.672-2.016 2.094-4.422 3.14-7.219 3.14-2.5 0-4.555-.702-6.164-2.109-1.594-1.422-2.391-3.218-2.391-5.39 0-2.64 1-4.688 3-6.14 2.016-1.47 4.844-2.204 8.485-2.204h4.218v-1.992c0-1.516-.453-2.719-1.359-3.61-.906-.906-2.242-1.359-4.008-1.359-1.547 0-2.843.39-3.89 1.172-1.047.781-1.571 1.726-1.571 2.836h-4.359c0-1.266.445-2.485 1.336-3.656.906-1.188 2.125-2.125 3.656-2.813 1.547-.687 3.242-1.031 5.086-1.031 2.922 0 5.211.734 6.867 2.203 1.656 1.453 2.516 3.46 2.578 6.023V30.07c0 2.328.297 4.18.891 5.555V36h-4.547zm-7.195-3.305c1.359 0 2.648-.351 3.867-1.054 1.219-.703 2.102-1.618 2.648-2.743v-5.203H234c-5.312 0-7.969 1.555-7.969 4.664 0 1.36.453 2.422 1.36 3.188.906.765 2.07 1.148 3.492 1.148zM253.242 36h-4.336V10.64h4.336V36zm-4.687-32.086c0-.703.211-1.297.633-1.781.437-.485 1.078-.727 1.921-.727.844 0 1.485.242 1.922.727.438.484.657 1.078.657 1.781 0 .703-.219 1.29-.657 1.758-.437.469-1.078.703-1.922.703-.843 0-1.484-.234-1.921-.703-.422-.469-.633-1.055-.633-1.758zm15.75 6.727l.14 3.187c1.938-2.437 4.469-3.656 7.594-3.656 5.359 0 8.063 3.023 8.109 9.07V36h-4.336V19.219c-.015-1.828-.437-3.18-1.265-4.055-.813-.875-2.086-1.312-3.82-1.312-1.407 0-2.641.375-3.704 1.125-1.062.75-1.89 1.734-2.484 2.953V36h-4.336V10.64h4.102z" fill="#1A237E"/><path d="M159.234 25.172c-.422 3.61-1.757 6.398-4.007 8.367-2.235 1.953-5.211 2.93-8.93 2.93-4.031 0-7.266-1.446-9.703-4.336-2.422-2.89-3.633-6.758-3.633-11.602V17.25c0-3.172.562-5.96 1.687-8.367 1.141-2.406 2.75-4.25 4.829-5.531 2.078-1.297 4.484-1.946 7.218-1.946 3.625 0 6.532 1.016 8.719 3.047 2.188 2.016 3.461 4.813 3.82 8.39h-4.523c-.391-2.718-1.242-4.687-2.555-5.905-1.297-1.22-3.117-1.829-5.461-1.829-2.875 0-5.133 1.063-6.773 3.188-1.625 2.125-2.438 5.148-2.438 9.07v3.305c0 3.703.774 6.648 2.321 8.836 1.547 2.187 3.711 3.281 6.492 3.281 2.5 0 4.414-.562 5.742-1.687 1.344-1.141 2.234-3.118 2.672-5.93h4.523z" fill="#F57F17"/></svg>