<svg width="402" height="93" fill="none" xmlns="http://www.w3.org/2000/svg"><path d="M39.61 54.422c0-3-1.063-5.313-3.188-6.938-2.094-1.625-5.89-3.265-11.39-4.922-5.5-1.656-9.876-3.5-13.126-5.53-6.219-3.907-9.328-9-9.328-15.282 0-5.5 2.235-10.031 6.703-13.594 4.5-3.562 10.328-5.344 17.485-5.344 4.75 0 8.984.876 12.703 2.626 3.718 1.75 6.64 4.25 8.765 7.5 2.125 3.218 3.188 6.796 3.188 10.734H39.609c0-3.563-1.125-6.344-3.375-8.344-2.218-2.031-5.406-3.047-9.562-3.047-3.875 0-6.89.828-9.047 2.485-2.125 1.656-3.188 3.968-3.188 6.937 0 2.5 1.157 4.594 3.47 6.281 2.312 1.657 6.124 3.282 11.437 4.875 5.312 1.563 9.578 3.36 12.797 5.391 3.218 2 5.578 4.313 7.078 6.938 1.5 2.593 2.25 5.64 2.25 9.14 0 5.688-2.188 10.219-6.563 13.594-4.343 3.344-10.25 5.016-17.718 5.016-4.938 0-9.485-.907-13.641-2.72-4.125-1.843-7.344-4.374-9.656-7.593C1.609 59.406.469 55.656.469 51.375h11.86c0 3.875 1.28 6.875 3.843 9 2.562 2.125 6.234 3.188 11.015 3.188 4.125 0 7.22-.829 9.282-2.485 2.093-1.687 3.14-3.906 3.14-6.656zm19.03-8.25c0-4.969.985-9.438 2.954-13.406 1.968-4 4.734-7.063 8.297-9.188 3.562-2.156 7.656-3.234 12.28-3.234 6.845 0 12.391 2.203 16.641 6.61 4.282 4.405 6.594 10.25 6.938 17.53l.047 2.672c0 5-.969 9.469-2.906 13.407-1.907 3.937-4.657 6.984-8.25 9.14-3.563 2.156-7.688 3.234-12.375 3.234-7.157 0-12.891-2.374-17.204-7.124-4.28-4.782-6.421-11.141-6.421-19.079v-.562zm11.391.984c0 5.219 1.078 9.313 3.235 12.282 2.156 2.937 5.156 4.406 9 4.406 3.843 0 6.828-1.5 8.953-4.5 2.156-3 3.234-7.39 3.234-13.172 0-5.125-1.11-9.188-3.328-12.188-2.188-3-5.172-4.5-8.953-4.5-3.719 0-6.672 1.485-8.86 4.453-2.187 2.938-3.28 7.344-3.28 13.22zM127.547 72h-11.391V0h11.391v72zm33.281-8.156c2.844 0 5.203-.828 7.078-2.485 1.875-1.656 2.875-3.703 3-6.14h10.735c-.125 3.156-1.11 6.11-2.953 8.86-1.844 2.718-4.344 4.874-7.5 6.468-3.157 1.594-6.563 2.39-10.219 2.39-7.094 0-12.719-2.296-16.875-6.89-4.156-4.594-6.235-10.938-6.235-19.031v-1.172c0-7.719 2.063-13.89 6.188-18.516 4.125-4.656 9.75-6.984 16.875-6.984 6.031 0 10.937 1.765 14.719 5.297 3.812 3.5 5.812 8.109 6 13.828h-10.735c-.125-2.907-1.125-5.297-3-7.172-1.844-1.875-4.203-2.813-7.078-2.813-3.687 0-6.531 1.344-8.531 4.032-2 2.656-3.016 6.703-3.047 12.14v1.828c0 5.5.984 9.61 2.953 12.328 2 2.688 4.875 4.032 8.625 4.032zm55.969-32.157a28.19 28.19 0 0 0-4.641-.375c-5.218 0-8.734 2-10.547 6V72h-11.39V21.281h10.875l.281 5.672c2.75-4.406 6.563-6.61 11.437-6.61 1.626 0 2.969.22 4.032.657l-.047 10.688zm25.781 24l10.313-34.406h12.14l-20.156 58.407c-3.094 8.531-8.344 12.796-15.75 12.796-1.656 0-3.484-.281-5.484-.843v-8.813l2.156.14c2.875 0 5.031-.53 6.469-1.593 1.468-1.031 2.625-2.781 3.468-5.25l1.641-4.36-17.813-50.484h12.282l10.734 34.407zm73.453-8.53c0 7.843-1.781 14.109-5.343 18.796-3.563 4.656-8.344 6.984-14.344 6.984-5.563 0-10.016-1.828-13.36-5.484V91.5h-11.39V21.281h10.5l.468 5.157c3.344-4.063 7.891-6.094 13.641-6.094 6.188 0 11.031 2.312 14.531 6.937 3.532 4.594 5.297 10.985 5.297 19.172v.703zm-11.343-.985c0-5.063-1.016-9.078-3.047-12.047-2-2.969-4.875-4.453-8.625-4.453-4.657 0-8 1.922-10.032 5.765v22.5c2.063 3.938 5.438 5.907 10.125 5.907 3.625 0 6.453-1.453 8.485-4.36 2.062-2.937 3.094-7.375 3.094-13.312zm35.296-37.219v12.328h8.954v8.438h-8.954V58.03c0 1.938.375 3.344 1.125 4.219.782.844 2.157 1.266 4.125 1.266a17.55 17.55 0 0 0 3.985-.47v8.813c-2.594.72-5.094 1.079-7.5 1.079-8.75 0-13.125-4.829-13.125-14.485V29.72h-8.344V21.28h8.344V8.953h11.39zm14.157 37.219c0-4.969.984-9.438 2.953-13.406 1.968-4 4.734-7.063 8.297-9.188 3.562-2.156 7.656-3.234 12.281-3.234 6.844 0 12.39 2.203 16.64 6.61 4.282 4.405 6.594 10.25 6.938 17.53l.047 2.672c0 5-.969 9.469-2.906 13.407-1.907 3.937-4.657 6.984-8.25 9.14-3.563 2.156-7.688 3.234-12.375 3.234-7.157 0-12.891-2.374-17.204-7.124-4.281-4.782-6.421-11.141-6.421-19.079v-.562zm11.39.984c0 5.219 1.078 9.313 3.235 12.282 2.156 2.937 5.156 4.406 9 4.406 3.843 0 6.828-1.5 8.953-4.5 2.156-3 3.234-7.39 3.234-13.172 0-5.125-1.109-9.188-3.328-12.188-2.187-3-5.172-4.5-8.953-4.5-3.719 0-6.672 1.485-8.86 4.453-2.187 2.938-3.281 7.344-3.281 13.22z" fill="#1565C0"/></svg>