<svg width="530" height="122" fill="none" xmlns="http://www.w3.org/2000/svg"><ellipse cx="21.725" cy="8.5" rx="21.725" ry="8.5" transform="rotate(-15.33 126.916 24.646)" fill="#757575"/><ellipse cx="19.461" cy="8.352" rx="19.461" ry="8.352" transform="rotate(-32.223 55.51 -57.43)" fill="#1A237E"/><ellipse cx="13" cy="9.5" rx="13" ry="9.5" transform="translate(18.4 100.944)" fill="#757575"/><path d="M45.9 36.952c4 20.992 30.499 41.492-1.017 64" stroke="#7E827E" stroke-width="3"/><path d="M105.266 32.75l25.172 60.234 25.265-60.234h7.688V101h-5.766V71.281l.469-30.469L132.687 101h-4.453l-25.312-59.953.469 30.047V101h-5.766V32.75h7.64zM211.39 101c-.563-1.594-.922-3.953-1.079-7.078-1.968 2.562-4.484 4.547-7.546 5.953-3.032 1.375-6.25 2.063-9.657 2.063-4.875 0-8.828-1.36-11.859-4.079-3-2.718-4.5-6.156-4.5-10.312 0-4.938 2.047-8.844 6.14-11.719 4.126-2.875 9.86-4.312 17.204-4.312h10.172V65.75c0-3.625-1.125-6.469-3.375-8.531-2.219-2.094-5.469-3.14-9.75-3.14-3.907 0-7.141 1-9.703 3-2.563 2-3.844 4.405-3.844 7.218l-5.625-.047c0-4.031 1.875-7.516 5.625-10.453 3.75-2.969 8.359-4.453 13.828-4.453 5.656 0 10.109 1.422 13.359 4.265 3.281 2.813 4.969 6.75 5.063 11.813v24c0 4.906.515 8.578 1.547 11.016V101h-6zm-17.625-4.031c3.75 0 7.093-.906 10.031-2.719 2.969-1.813 5.125-4.234 6.469-7.266V75.828h-10.032c-5.593.063-9.968 1.094-13.125 3.094-3.156 1.969-4.734 4.687-4.734 8.156 0 2.844 1.047 5.203 3.14 7.078 2.126 1.875 4.876 2.813 8.251 2.813zm34.828-21.797c0-7.938 1.75-14.219 5.25-18.844 3.531-4.656 8.312-6.984 14.344-6.984 6.906 0 12.156 2.75 15.75 8.25l.281-7.313h5.25V99.97c0 6.531-1.828 11.703-5.485 15.515-3.656 3.813-8.609 5.719-14.859 5.719-3.531 0-6.906-.797-10.125-2.391-3.188-1.562-5.703-3.656-7.547-6.281l3.141-3.375c3.968 4.875 8.687 7.313 14.156 7.313 4.688 0 8.344-1.391 10.969-4.172 2.625-2.75 3.984-6.578 4.078-11.485v-6.375c-3.594 5-8.828 7.5-15.703 7.5-5.875 0-10.594-2.343-14.156-7.03-3.563-4.688-5.344-11.016-5.344-18.985v-.75zm5.672.984c0 6.469 1.296 11.578 3.89 15.328 2.594 3.72 6.25 5.578 10.969 5.578 6.906 0 11.797-3.093 14.672-9.28V64.202c-1.313-3.25-3.203-5.719-5.672-7.406-2.469-1.719-5.437-2.578-8.906-2.578-4.719 0-8.391 1.86-11.016 5.578-2.625 3.687-3.937 9.14-3.937 16.36zm55.172-25.875l.187 8.672c1.906-3.125 4.281-5.5 7.125-7.125 2.844-1.656 5.984-2.484 9.422-2.484 5.437 0 9.484 1.531 12.14 4.593 2.657 3.063 4 7.657 4.032 13.782V101h-5.578V67.672c-.032-4.531-1-7.906-2.907-10.125-1.875-2.219-4.89-3.328-9.047-3.328-3.468 0-6.546 1.093-9.234 3.281-2.656 2.156-4.625 5.078-5.906 8.766V101h-5.578V50.281h5.344zm67.078 51.656c-4.313 0-8.219-1.062-11.719-3.187-3.469-2.125-6.172-5.078-8.109-8.86-1.938-3.812-2.907-8.078-2.907-12.796v-2.016c0-4.875.938-9.266 2.813-13.172 1.906-3.906 4.547-6.969 7.922-9.187 3.375-2.25 7.031-3.375 10.968-3.375 6.157 0 11.032 2.11 14.625 6.328 3.625 4.187 5.438 9.922 5.438 17.203v3.14h-36.188v1.079c0 5.75 1.641 10.547 4.922 14.39 3.313 3.813 7.469 5.72 12.469 5.72 3 0 5.641-.548 7.922-1.642 2.312-1.093 4.406-2.843 6.281-5.25l3.516 2.672c-4.125 5.97-10.11 8.953-17.953 8.953zm-1.032-47.812c-4.218 0-7.781 1.547-10.687 4.64-2.875 3.094-4.625 7.25-5.25 12.47h30.422v-.61c-.157-4.875-1.547-8.844-4.172-11.906-2.625-3.063-6.063-4.594-10.313-4.594zM389.844 101V54.875h-8.438v-4.594h8.438v-5.203c0-5.406 1.468-9.594 4.406-12.562 2.938-3 7.078-4.5 12.422-4.5 4.187 0 8.5.921 12.937 2.765l-.937 4.828c-3.813-1.656-7.688-2.484-11.625-2.484-7.719 0-11.578 4.016-11.578 12.047v5.11h11.859v4.593h-11.859V101h-5.625zm32.812 0h-5.625V50.281h5.625V101zm34.125-3.797c3.907 0 7.172-1.094 9.797-3.281 2.656-2.219 4.094-5.078 4.313-8.578h5.39c-.156 3.093-1.125 5.922-2.906 8.484-1.781 2.531-4.156 4.516-7.125 5.953-2.938 1.438-6.094 2.156-9.469 2.156-6.656 0-11.937-2.312-15.843-6.937-3.876-4.625-5.813-10.844-5.813-18.656v-1.688c0-5 .875-9.422 2.625-13.265 1.75-3.844 4.25-6.813 7.5-8.907 3.281-2.093 7.109-3.14 11.484-3.14 5.563 0 10.141 1.656 13.735 4.968 3.625 3.313 5.562 7.672 5.812 13.079h-5.39c-.25-3.97-1.688-7.172-4.313-9.61-2.594-2.437-5.875-3.656-9.844-3.656-5.062 0-9 1.828-11.812 5.484-2.781 3.657-4.172 8.782-4.172 15.375v1.641c0 6.469 1.391 11.516 4.172 15.14 2.812 3.626 6.766 5.438 11.859 5.438zm27.657-22.312c0-4.875.937-9.266 2.812-13.172 1.906-3.907 4.578-6.938 8.016-9.094 3.468-2.188 7.39-3.281 11.765-3.281 6.75 0 12.219 2.375 16.407 7.125 4.187 4.718 6.281 10.984 6.281 18.797v1.171c0 4.907-.953 9.329-2.86 13.266-1.875 3.906-4.531 6.922-7.968 9.047-3.438 2.125-7.36 3.187-11.766 3.187-6.719 0-12.187-2.359-16.406-7.078-4.188-4.75-6.281-11.03-6.281-18.843V74.89zm5.624 1.546c0 6.063 1.563 11.047 4.688 14.954 3.156 3.875 7.281 5.812 12.375 5.812 5.063 0 9.156-1.937 12.281-5.812 3.156-3.907 4.735-9.047 4.735-15.422V74.89c0-3.875-.719-7.422-2.157-10.641-1.437-3.219-3.453-5.703-6.046-7.453-2.594-1.781-5.563-2.672-8.907-2.672-5 0-9.078 1.969-12.234 5.906-3.156 3.906-4.735 9.031-4.735 15.375v1.031z" fill="#1A237E"/></svg>