<svg width="458" height="71" fill="none" xmlns="http://www.w3.org/2000/svg"><path d="M43.25 53.219c0-3.782-1.328-6.766-3.984-8.953-2.657-2.22-7.516-4.313-14.578-6.282-7.063-2-12.22-4.172-15.47-6.515-4.624-3.313-6.937-7.657-6.937-13.032 0-5.218 2.14-9.453 6.422-12.703 4.313-3.28 9.813-4.921 16.5-4.921 4.531 0 8.578.875 12.14 2.625 3.594 1.75 6.376 4.187 8.344 7.312 1.97 3.125 2.954 6.61 2.954 10.453h-5.813c0-4.656-1.594-8.39-4.781-11.203-3.188-2.844-7.469-4.266-12.844-4.266-5.219 0-9.375 1.172-12.469 3.516-3.093 2.313-4.64 5.344-4.64 9.094 0 3.468 1.39 6.297 4.172 8.484 2.78 2.188 7.234 4.125 13.359 5.813 6.125 1.656 10.766 3.39 13.922 5.203 3.156 1.781 5.531 3.922 7.125 6.422 1.594 2.5 2.39 5.453 2.39 8.859 0 5.375-2.156 9.688-6.468 12.938-4.282 3.25-9.938 4.874-16.969 4.874-4.813 0-9.234-.859-13.266-2.578-4-1.718-7.046-4.125-9.14-7.218C1.156 58.047.125 54.5.125 50.5h5.766c0 4.813 1.796 8.61 5.39 11.39 3.594 2.782 8.375 4.172 14.344 4.172 5.313 0 9.578-1.171 12.797-3.515 3.219-2.344 4.828-5.453 4.828-9.328zm68.719-13.64c0 6.28-1.094 11.796-3.281 16.546-2.157 4.75-5.25 8.406-9.282 10.969-4.031 2.562-8.687 3.844-13.969 3.844-7.968 0-14.406-2.844-19.312-8.532-4.906-5.718-7.36-13.422-7.36-23.11v-7.03c0-6.22 1.094-11.72 3.282-16.5 2.219-4.813 5.344-8.5 9.375-11.063C75.453 2.11 80.094.813 85.344.813s9.875 1.265 13.875 3.796c4.031 2.532 7.14 6.11 9.328 10.735 2.187 4.625 3.328 9.984 3.422 16.078v8.156zm-5.766-7.407c0-8.219-1.859-14.656-5.578-19.313-3.719-4.656-8.813-6.984-15.281-6.984-6.344 0-11.406 2.344-15.188 7.031-3.75 4.656-5.625 11.172-5.625 19.547v7.125c0 8.094 1.875 14.516 5.625 19.266 3.75 4.718 8.844 7.078 15.281 7.078 6.532 0 11.625-2.328 15.282-6.984 3.656-4.688 5.484-11.204 5.484-19.547v-7.22zm26.109 32.953h33.704V70H126.5V1.75h5.812v63.375zm82.594-14.25h-30.984L176.891 70h-6.047l25.828-68.25h5.484L227.984 70h-6l-7.078-19.125zm-29.203-4.922h27.375L199.391 8.781l-13.688 37.172zm77.859-4.36h-19.828V70h-5.812V1.75h22.172c7.281 0 12.968 1.766 17.062 5.297 4.094 3.531 6.141 8.469 6.141 14.812 0 4.375-1.281 8.235-3.844 11.578-2.562 3.344-6 5.657-10.312 6.938l17.062 29.016V70h-6.141l-16.5-28.406zm-19.828-4.921h17.672c4.844 0 8.735-1.375 11.672-4.125 2.938-2.75 4.406-6.313 4.406-10.688 0-4.812-1.531-8.547-4.593-11.203C269.828 8 265.531 6.672 260 6.672h-16.266v30zm61.078 28.453h33.704V70H299V1.75h5.812v63.375zM394.109 1.75v46.594c-.031 4.593-1.047 8.593-3.047 12-2 3.406-4.828 6.031-8.484 7.875-3.625 1.812-7.797 2.719-12.516 2.719-7.187 0-12.953-1.954-17.296-5.86-4.313-3.937-6.547-9.375-6.704-16.312V1.75h5.719v46.172c0 5.75 1.641 10.219 4.922 13.406 3.281 3.156 7.735 4.734 13.359 4.734 5.626 0 10.063-1.593 13.313-4.78 3.281-3.188 4.922-7.626 4.922-13.313V1.75h5.812zm36.844 28.875L450.172 1.75h6.89l-22.593 33.656L457.766 70h-6.938l-19.875-29.813L410.984 70h-6.843l23.343-34.594-22.64-33.656h6.89l19.219 28.875z" fill="#FF1744"/></svg>