<svg width="320" height="63" viewBox="0 0 513 101" fill="none" xmlns="http://www.w3.org/2000/svg"><path d="M24.427 9.834a2.247 2.247 0 0 1 3.89-2.246l2.837 4.91a2.247 2.247 0 1 1-3.89 2.247l-2.837-4.91zM12.5 69.846l-4.911 2.835a2.246 2.246 0 1 0 2.246 3.891l4.912-2.835a2.246 2.246 0 0 0-2.247-3.891zm2.246-42.583l-4.91-2.835a2.246 2.246 0 1 0-2.247 3.89l4.911 2.836a2.245 2.245 0 0 0 2.246-3.89zm72.635 4.192c.381 0 .767-.097 1.121-.301l4.911-2.835a2.246 2.246 0 1 0-2.246-3.891l-4.911 2.835a2.246 2.246 0 0 0 1.125 4.192zM70.668 15.568a2.246 2.246 0 0 0 3.069-.822l2.835-4.91a2.246 2.246 0 0 0-3.89-2.247l-2.836 4.91a2.246 2.246 0 0 0 .822 3.07zM50.5 10.17a2.246 2.246 0 0 0 2.246-2.247V2.246a2.246 2.246 0 1 0-4.492 0v5.677A2.247 2.247 0 0 0 50.5 10.17zM10.17 50.5a2.246 2.246 0 0 0-2.247-2.247H2.246a2.246 2.246 0 1 0 0 4.493h5.677A2.246 2.246 0 0 0 10.17 50.5zm83.242 22.182l-4.91-2.836a2.246 2.246 0 1 0-2.247 3.891l4.911 2.836a2.245 2.245 0 0 0 2.246-3.89zm5.341-24.429h-5.676a2.246 2.246 0 1 0 0 4.493h5.677a2.246 2.246 0 1 0 0-4.493zM84.564 50.5c0 18.782-15.28 34.063-34.063 34.063-18.782 0-34.063-15.28-34.063-34.063S31.717 16.437 50.5 16.437 84.564 31.717 84.564 50.5zm-4.492 0c0-16.305-13.266-29.57-29.57-29.57-16.306 0-29.572 13.265-29.572 29.57S34.195 80.07 50.5 80.07 80.07 66.805 80.07 50.5zM30.332 85.433a2.247 2.247 0 0 0-3.069.822l-2.835 4.91a2.246 2.246 0 1 0 3.891 2.247l2.836-4.91a2.247 2.247 0 0 0-.823-3.07zm30.572-32.199a2.237 2.237 0 0 0-1.308-1.078l-.003-.002a2.242 2.242 0 0 0-.699-.1H46.16a55.004 55.004 0 0 1-1.063-.017c.12-.19.255-.398.402-.622.754-1.148 5.014-7.55 8.42-12.666l1.067 5.411a2.247 2.247 0 0 0 4.408-.87l-2.11-10.695a2.24 2.24 0 0 0-1.534-1.768 2.236 2.236 0 0 0-1.117-.063l-10.759 2.122a2.246 2.246 0 0 0 .87 4.408l5.462-1.077a5673.158 5673.158 0 0 0-8.463 12.733c-1.31 1.995-2.548 3.88-1.57 5.71.989 1.849 3.289 1.867 5.969 1.887h8.589c-2.626 3.944-6.19 9.3-6.816 10.253a2.247 2.247 0 0 0 3.756 2.466c.846-1.289 7.161-10.772 9.107-13.694a2.239 2.239 0 0 0 .126-2.338zM50.5 90.83a2.246 2.246 0 0 0-2.246 2.247v5.677a2.246 2.246 0 1 0 4.492 0v-5.677A2.246 2.246 0 0 0 50.5 90.83zm23.237-4.576a2.246 2.246 0 0 0-3.89 2.247l2.835 4.911a2.245 2.245 0 0 0 3.069.822 2.246 2.246 0 0 0 .822-3.068l-2.836-4.912zM159.25 72.219c0-3.781-1.328-6.766-3.984-8.953-2.657-2.22-7.516-4.313-14.578-6.282-7.063-2-12.22-4.172-15.47-6.515-4.624-3.313-6.937-7.657-6.937-13.032 0-5.218 2.14-9.453 6.422-12.703 4.313-3.28 9.813-4.922 16.5-4.922 4.531 0 8.578.875 12.14 2.625 3.595 1.75 6.376 4.188 8.345 7.313 1.968 3.125 2.953 6.61 2.953 10.453h-5.813c0-4.656-1.594-8.39-4.781-11.203-3.188-2.844-7.469-4.266-12.844-4.266-5.219 0-9.375 1.172-12.469 3.516-3.093 2.313-4.64 5.344-4.64 9.094 0 3.468 1.39 6.297 4.172 8.484 2.78 2.188 7.234 4.125 13.359 5.813 6.125 1.656 10.766 3.39 13.922 5.203 3.156 1.781 5.531 3.922 7.125 6.422 1.594 2.5 2.39 5.453 2.39 8.859 0 5.375-2.156 9.688-6.468 12.938-4.282 3.25-9.938 4.874-16.969 4.874-4.813 0-9.234-.859-13.266-2.578-4-1.718-7.047-4.125-9.14-7.218-2.063-3.094-3.094-6.641-3.094-10.641h5.766c0 4.813 1.796 8.61 5.39 11.39 3.594 2.782 8.375 4.172 14.344 4.172 5.313 0 9.578-1.171 12.797-3.515 3.219-2.344 4.828-5.453 4.828-9.328zm13.875-9.328c0-4.875.938-9.266 2.813-13.172 1.906-3.907 4.578-6.938 8.015-9.094 3.469-2.188 7.39-3.281 11.766-3.281 6.75 0 12.218 2.375 16.406 7.125 4.187 4.718 6.281 10.984 6.281 18.797v1.172c0 4.906-.953 9.328-2.859 13.265-1.875 3.906-4.531 6.922-7.969 9.047-3.437 2.125-7.36 3.188-11.766 3.188-6.718 0-12.187-2.36-16.406-7.079-4.187-4.75-6.281-11.03-6.281-18.843V62.89zm5.625 1.547c0 6.062 1.563 11.046 4.688 14.953 3.156 3.875 7.28 5.812 12.375 5.812 5.062 0 9.156-1.937 12.28-5.812 3.157-3.907 4.735-9.047 4.735-15.422V62.89c0-3.875-.719-7.422-2.156-10.641-1.438-3.219-3.453-5.703-6.047-7.453-2.594-1.781-5.563-2.672-8.906-2.672-5 0-9.078 1.969-12.235 5.906-3.156 3.907-4.734 9.032-4.734 15.375v1.032zM236.312 89h-5.624V17h5.624v72zm47.297 0c-.562-1.594-.921-3.953-1.078-7.078-1.969 2.562-4.484 4.547-7.547 5.953-3.031 1.375-6.25 2.063-9.656 2.063-4.875 0-8.828-1.36-11.859-4.079-3-2.718-4.5-6.156-4.5-10.312 0-4.938 2.047-8.844 6.14-11.719 4.125-2.875 9.86-4.312 17.203-4.312h10.172V53.75c0-3.625-1.125-6.469-3.375-8.531-2.218-2.094-5.468-3.14-9.75-3.14-3.906 0-7.14 1-9.703 3-2.562 2-3.844 4.405-3.844 7.218l-5.624-.047c0-4.031 1.874-7.516 5.624-10.453 3.75-2.969 8.36-4.453 13.829-4.453 5.656 0 10.109 1.422 13.359 4.265 3.281 2.813 4.969 6.75 5.062 11.813v24c0 4.906.516 8.578 1.547 11.016V89h-6zm-17.625-4.031c3.75 0 7.094-.906 10.032-2.719 2.968-1.813 5.125-4.234 6.468-7.266V63.828h-10.031c-5.594.063-9.969 1.094-13.125 3.094-3.156 1.969-4.734 4.687-4.734 8.156 0 2.844 1.047 5.203 3.14 7.078 2.125 1.875 4.875 2.813 8.25 2.813zM326.5 43.063a20.959 20.959 0 0 0-3.797-.329c-3.5 0-6.469.985-8.906 2.953-2.406 1.938-4.125 4.766-5.156 8.485V89h-5.579V38.281h5.485l.094 8.063c2.968-6 7.734-9 14.297-9 1.562 0 2.796.203 3.703.61l-.141 5.108zm59.484 37.828c-2 2.843-5.14 5.062-9.422 6.656-4.25 1.594-9.015 2.39-14.296 2.39-5.344 0-10.094-1.28-14.25-3.843-4.157-2.563-7.375-6.188-9.657-10.875-2.281-4.688-3.437-10.063-3.468-16.125v-8.625c0-9.469 2.39-16.938 7.171-22.407 4.782-5.5 11.204-8.25 19.266-8.25 7.031 0 12.688 1.797 16.969 5.391 4.281 3.563 6.828 8.485 7.641 14.766h-5.766c-.844-5-2.891-8.782-6.141-11.344-3.219-2.594-7.437-3.89-12.656-3.89-6.375 0-11.422 2.265-15.141 6.796-3.718 4.532-5.578 10.922-5.578 19.172v8.063c0 5.187.875 9.78 2.625 13.78 1.781 3.97 4.313 7.048 7.594 9.235 3.313 2.188 7.109 3.281 11.391 3.281 4.968 0 9.234-.78 12.796-2.343 2.313-1.031 4.032-2.235 5.157-3.61V61.484h-18.328V56.61h24.093v24.282zM433.047 89c-.563-1.594-.922-3.953-1.078-7.078-1.969 2.562-4.485 4.547-7.547 5.953-3.031 1.375-6.25 2.063-9.656 2.063-4.875 0-8.828-1.36-11.86-4.079-3-2.718-4.5-6.156-4.5-10.312 0-4.938 2.047-8.844 6.141-11.719 4.125-2.875 9.859-4.312 17.203-4.312h10.172V53.75c0-3.625-1.125-6.469-3.375-8.531-2.219-2.094-5.469-3.14-9.75-3.14-3.906 0-7.141 1-9.703 3-2.563 2-3.844 4.405-3.844 7.218l-5.625-.047c0-4.031 1.875-7.516 5.625-10.453 3.75-2.969 8.359-4.453 13.828-4.453 5.656 0 10.11 1.422 13.36 4.265 3.281 2.813 4.968 6.75 5.062 11.813v24c0 4.906.516 8.578 1.547 11.016V89h-6zm-17.625-4.031c3.75 0 7.094-.906 10.031-2.719 2.969-1.813 5.125-4.234 6.469-7.266V63.828h-10.031c-5.594.063-9.969 1.094-13.125 3.094-3.157 1.969-4.735 4.687-4.735 8.156 0 2.844 1.047 5.203 3.141 7.078 2.125 1.875 4.875 2.813 8.25 2.813zM458.781 89h-5.625V38.281h5.625V89zm-6.609-65.39c0-1.063.344-1.954 1.031-2.672.688-.75 1.625-1.125 2.813-1.125 1.187 0 2.125.375 2.812 1.125.719.718 1.078 1.609 1.078 2.671 0 1.063-.359 1.953-1.078 2.672-.687.719-1.625 1.078-2.812 1.078-1.188 0-2.125-.359-2.813-1.078-.687-.718-1.031-1.61-1.031-2.672zm27.234 14.671l.188 8.672c1.906-3.125 4.281-5.5 7.125-7.125 2.843-1.656 5.984-2.484 9.422-2.484 5.437 0 9.484 1.531 12.14 4.593 2.657 3.063 4 7.657 4.031 13.782V89h-5.578V55.672c-.031-4.531-1-7.906-2.906-10.125-1.875-2.219-4.89-3.328-9.047-3.328-3.469 0-6.547 1.093-9.234 3.281-2.656 2.156-4.625 5.078-5.906 8.766V89h-5.579V38.281h5.344z" fill="#FF6F00"/></svg>