<svg xmlns="http://www.w3.org/2000/svg" viewBox="0 0 512.006 512.006"><path d="M59.435 379.857c101.342 0 184.748 57.849 195.339 132.131-95.384-.448-178.421-53.06-222.089-130.763a262.51 262.51 0 0 1 26.75-1.368z" fill="#75bd80"/><path d="M353.827 317.315c52.018 0 100.415 11.547 140.868 31.377C457.554 444.257 364.695 512 256.003 512c-56.674 0-109.037-18.431-151.452-49.608 27.944-83.346 128.94-145.083 249.276-145.083v.006z" fill="#83cf8f"/><g fill="#fefefe"><path d="M316.238 352.162h32.751v142.424a253.97 253.97 0 0 1-32.751 10.275V352.162zM106.809 351.356h11.22v48.797c-1.259 1.81-7.442 2.198-11.22 1.09v-49.887z"/></g><g fill="#e4e7ed"><path d="M316.238 352.162h32.751v92.18l-32.751-51.461z"/><path d="M345.071 352.162h3.911v142.424c-1.296.509-2.604.999-3.911 1.49V352.162z"/></g><path fill="#fefefe" d="M77.594 276.965l84.158-14.889-30.045 95.281-73.374-17.572z"/><g fill="#8597b1"><path d="M78.738 279.92l-4.19 14.774 70.032-6.8 6.424-19.733zM73.931 296.02l-3.615 12.825 68.046-.134 5.709-18.964zM69.953 310.177l-3.972 13.472 65.314 7.92 6.352-20.654zM65.333 325.52l-3.663 12.025 63.322 14.296 5.425-18.032z"/></g><g fill="#ecf0f1"><path d="M80.924 286.938l1.684-1.49 1.713-6.436.503-.085-1.774 6.539 1.035.933-1.768 1.816-3.433 12.861 1.047 1.175-1.78 1.592-3.427 12.849 1.084 1.404-1.829 1.381-3.469 13.024.963 1.617-1.714 1.193-.89 3.33-.412-.115.914-3.427-.914-1.314 1.593-1.235 3.536-13.267-.896-1.289 1.58-1.278 3.475-13.042-.902-1.242 1.599-1.35 3.469-13.024zM92.386 285.164l1.829-1.877 1.665-6.164.503-.073-1.69 6.249 1.12 1.011-1.925 1.98-3.796 14.017 1.126 1.314-1.944 1.701-3.784 13.993 1.096 1.454-1.92 1.58-3.73 13.787 1.054 1.804-1.883 1.254-1.09 4.032-.448-.127 1.12-4.135-.896-1.569 1.641-1.211 3.802-14.041-.865-1.502 1.628-1.301 3.845-14.211-.938-1.175 1.701-1.641 3.839-14.187zM103.903 283.226l1.968-2.034 1.538-5.934.532-.091-1.55 6.043 1.139 1.187-1.986 2.046-4.118 15.664 1.236 1.102-2.005 1.811-3.875 14.798 1.302 1.623-2.156 1.659-3.972 15.113 1.127 1.683-1.992 1.623-1.266 4.826-.484-.14 1.295-4.934-1.102-1.847 1.89-1.157 4.032-15.397-1.138-1.466 1.931-1.556 3.93-15.034-1.066-1.381 1.787-1.32 4.165-15.852zM117.872 280.901l2.125-2.18 1.635-5.776.611-.103-1.701 5.897 1.247 1.175-2.246 2.295-4.753 16.518 1.283 1.774-2.295 1.719-4.601 15.992 1.223 1.78-2.241 1.744-4.674 16.209 1.235 1.774-2.252 1.774-1.29 4.468-.509-.145 1.32-4.59-.914-2.089 1.847-1.138 4.753-16.512-.999-1.465 1.938-1.78 4.68-16.246-1.102-1.35 2.047-1.907 4.813-16.718zM133.239 278.406l2.246-2.004 1.775-6.006.623-.085-1.81 6.115 1.326 1.266-2.331 2.167-5.298 17.863 1.32 1.998-2.435 1.78-5.189 17.523 1.296 1.835-2.422 1.967-5.044 17.057 1.248 2.047-2.38 1.78-1.556 5.262-.551-.158 1.598-5.395-1.041-2.125 2.071-1.35 5.14-17.378-1.059-1.707 2.101-1.799 5.262-17.795-.909-1.544 1.956-1.992 5.365-18.074z"/><path d="M76.323 287.386l72.368-12.255-.405 1.229-72.127 11.589zM71.933 302.402l69.535-3.911-.412 1.229-69.287 3.239zM67.652 317.485l67.179 3.251-.442 1.466-66.895-4.178zM63.165 332.562l64.491 10.384-.405 1.229-64.255-11.05z"/></g><path fill="#fefefe" d="M229.797 135.031l240.539-43.456-85.883 278.091-209.695-51.273z"/><path fill="#c6cbd6" d="M469.549 91.363l12.055 10.439-86.343 286.556-214.363-59.914-6.14-10.051 209.695 51.273z"/><path d="M113.276 47.846a71.615 71.615 0 0 1 16.258 4.347c8.913-4.293 16.681-10.427 23.009-18.897-4.178 9.712-5.607 19.515-4.862 29.391a72.796 72.796 0 0 1 11.88 11.88c9.876.739 19.679-.684 29.391-4.862-8.471 6.321-14.605 14.09-18.897 23.003a71.926 71.926 0 0 1 4.354 16.258c8.174 5.577 17.378 9.24 27.871 10.475-10.499 1.241-19.703 4.905-27.877 10.481a72.17 72.17 0 0 1-4.347 16.251c4.293 8.913 10.427 16.687 18.904 23.015-9.718-4.178-19.521-5.607-29.397-4.862a72.76 72.76 0 0 1-11.874 11.88c-.739 9.87.684 19.679 4.862 29.397-6.321-8.471-14.096-14.605-23.003-18.897a72.06 72.06 0 0 1-16.264 4.354c-5.577 8.18-9.234 17.378-10.475 27.871-1.235-10.499-4.905-19.697-10.475-27.877a71.815 71.815 0 0 1-16.251-4.354c-8.913 4.293-16.687 10.427-23.009 18.904 4.178-9.718 5.607-19.521 4.862-29.397a72.76 72.76 0 0 1-11.874-11.88c-9.876-.739-19.679.684-29.397 4.862 8.471-6.321 14.598-14.096 18.897-23.003a71.6 71.6 0 0 1-4.347-16.264c-8.18-5.571-17.378-9.234-27.877-10.475 10.499-1.235 19.703-4.905 27.877-10.481a72.17 72.17 0 0 1 4.347-16.251C31.268 83.8 25.134 76.026 16.663 69.698c9.718 4.178 19.521 5.607 29.397 4.862a72.96 72.96 0 0 1 11.874-11.874c.745-9.876-.678-19.679-4.862-29.397 6.321 8.471 14.096 14.605 23.003 18.897a71.55 71.55 0 0 1 16.258-4.347c5.577-8.18 9.24-17.378 10.475-27.877 1.241 10.499 4.905 19.703 10.481 27.877l-.013.007z" fill="#fcd34e"/><circle cx="102.795" cy="119.452" r="57.958" fill="#ffe356"/><g fill="#8597b1"><path d="M235.598 143.654l-12.54 43.129 209.701-19.848 19.23-57.595zM221.211 190.646l-10.826 37.432 203.743-.394 17.093-55.342zM209.283 231.959l-11.886 39.333 195.575 23.111 19.025-60.283zM195.466 276.747l-10.978 35.107 189.617 41.718 16.239-52.623z"/></g><g fill="#ecf0f1"><path d="M242.137 164.143l5.05-4.335 5.135-18.807 1.501-.236-5.316 19.079 3.1 2.719-5.292 5.304-10.269 37.547 3.118 3.433-5.328 4.644-10.257 37.486 3.251 4.1-5.479 4.038-10.403 38.019 2.901 4.705-5.135 3.488-2.664 9.724-1.242-.345 2.737-9.997-2.743-3.839 4.778-3.609 10.59-38.709-2.682-3.772 4.734-3.724 10.415-38.067-2.707-3.633 4.772-3.93 10.402-38.001zM276.463 158.96l5.479-5.485 4.978-17.984 1.507-.211-5.05 18.243 3.349 2.961-5.771 5.776-11.359 40.902 3.373 3.838-5.819 4.959-11.335 40.841 3.282 4.232-5.746 4.632-11.171 40.229 3.148 5.28-5.631 3.645-3.27 11.777-1.344-.369 3.349-12.08-2.677-4.571 4.935-3.542 11.377-40.98-2.591-4.378 4.862-3.796 11.516-41.471-2.803-3.427 5.086-4.807 11.498-41.404zM310.958 153.299l5.891-5.934 4.59-17.323 1.598-.254-4.626 17.632 3.385 3.469-5.928 5.976-12.328 45.715 3.694 3.221-6.007 5.274-11.589 43.202 3.875 4.729-6.448 4.838-11.874 44.123 3.367 4.904-5.964 4.747-3.785 14.084-1.471-.4 3.875-14.417-3.288-5.382 5.649-3.379 12.092-44.94-3.421-4.281 5.795-4.541 11.771-43.88-3.21-4.033 5.359-3.851 12.473-46.259zM352.773 146.524l6.382-6.37 4.886-16.863 1.823-.291-5.08 17.208 3.724 3.433-6.721 6.709-14.242 48.21 3.857 5.177-6.872 5.001-13.793 46.678 3.663 5.195-6.709 5.092-13.987 47.313 3.7 5.171-6.757 5.189-3.851 13.037-1.526-.43 3.96-13.388-2.749-6.109 5.528-3.306 14.247-48.191-2.997-4.281 5.801-5.201 14.011-47.405-3.294-3.954 6.109-5.57 14.417-48.797zM398.803 139.246l6.715-5.85 5.322-17.529 1.859-.266-5.419 17.856 3.972 3.7-6.976 6.327-15.87 52.133 3.954 5.825-7.302 5.201-15.519 51.14 3.869 5.371-7.241 5.734-15.113 49.778 3.742 5.982-7.133 5.195L343 345.192l-1.634-.46 4.777-15.737-3.13-6.2 6.212-3.954 15.398-50.722-3.185-4.965 6.291-5.268 15.761-51.939-2.725-4.499 5.855-5.813 16.064-52.756z"/><path d="M228.362 165.451l216.695-35.766-1.217 3.578-215.974 33.829zM215.229 209.271l208.193-11.401-1.217 3.578-207.472 9.464zM202.399 253.29l201.163 9.501-1.332 4.28-200.31-12.194zM188.957 297.298l193.122 30.317-1.223 3.578-192.396-32.254z"/></g><path fill="#e4e7ed" d="M106.809 355.013l11.22 2.749v8.023z"/><path fill="#c6cbd6" d="M161.752 262.076l3.288 2.84-30.39 97.533-74.646-19.927-1.671-2.737 73.374 17.572z"/></svg>