<svg width="536" height="401" viewBox="0 0 536 401" fill="none" xmlns="http://www.w3.org/2000/svg">
<rect width="536" height="401" fill="#F8F8F8"/>
<path d="M-1.82813e-08 111.569C-1.82813e-08 152.473 33.2803 185.751 74.1878 185.751H143.483C147.835 185.751 151.21 181.614 151.21 178.052V42.1141C151.21 33.5266 158.198 26.5378 166.784 26.5378C172.292 26.5378 177.426 29.4581 180.177 34.1625C180.522 34.7545 201.502 70.9223 223.712 109.217C244.933 145.809 266.88 183.648 267.225 184.242C268.335 186.135 270.506 187.357 272.759 187.357C276.327 187.357 279.232 184.455 279.232 180.885V42.1141C279.232 33.5266 286.215 26.5378 294.806 26.5378C300.314 26.5378 305.447 29.4581 308.196 34.1625C308.545 34.7545 329.507 70.9223 351.703 109.219C372.905 145.803 394.832 183.632 395.185 184.242C396.295 186.135 398.466 187.357 400.719 187.357C404.287 187.357 407.188 184.455 407.188 180.885V0.970773H379.874V108.065C379.874 108.065 330.384 22.8899 328.782 20.151C321.557 7.80207 307.857 0 293.277 0C270.436 0 251.914 18.5284 251.914 41.3645V108.065C251.914 108.065 202.427 22.8899 200.822 20.151C193.597 7.80207 179.898 0 165.317 0C142.477 0 123.955 18.5284 123.955 41.3645V150.966C123.969 154.955 120.97 158.431 116.604 158.439H74.4809C48.5947 158.439 27.6086 137.455 27.6086 111.569C27.6086 85.6833 48.5947 64.699 74.4809 64.699H109.765V37.3878H74.1878C33.2803 37.3878 -1.82813e-08 70.6652 -1.82813e-08 111.569Z" transform="translate(64.3906 89)" fill="#CC0000"/>
<path d="M452.684 -1.1832e-08V179.916C452.684 188.505 445.701 195.492 437.111 195.492C431.603 195.492 426.469 192.572 423.718 187.87C423.373 187.278 402.407 151.108 380.215 112.813C359.01 76.2306 337.089 38.3984 336.73 37.7904C335.623 35.8967 333.448 34.6728 331.196 34.6728C327.627 34.6728 324.727 37.5751 324.727 41.1433V179.916C324.727 188.505 317.739 195.492 309.151 195.492C303.643 195.492 298.514 192.572 295.758 187.87C295.414 187.278 274.434 151.11 252.223 112.813C231 76.2227 209.055 38.3845 208.708 37.7904C207.598 35.8968 205.427 34.6728 203.174 34.6728C199.606 34.6728 196.705 37.5751 196.705 41.1433V177.083C196.705 186.034 188.841 193.886 179.876 193.886H110.58C64.6527 193.886 27.2857 156.526 27.2857 110.598C27.2857 64.6751 64.6527 27.3133 110.58 27.3133H146.155V-1.1832e-08H110.612C49.5237 -1.1832e-08 0 49.5155 0 110.598C0 171.683 49.5237 221.201 110.612 221.201H180.571C207.074 221.215 224.116 205.688 224.081 177.05V113.965C224.081 113.965 273.923 199.746 275.175 201.881C282.4 214.228 296.099 222.03 310.68 222.03C333.522 222.03 352.04 203.502 352.04 180.668V113.965C352.04 113.965 401.53 199.142 403.133 201.881C410.359 214.228 424.059 222.03 438.64 222.03C461.48 222.03 480 203.502 480 180.668V-1.1832e-08H452.684Z" transform="translate(28 89.9699)" fill="#CC0000"/>
<path d="M9.14063e-10 110.598C9.14063e-10 156.524 37.365 193.886 83.2923 193.886H152.588C161.553 193.886 169.42 186.034 169.42 177.081V41.1433C169.42 37.5751 172.32 34.6728 175.889 34.6728C178.141 34.6728 180.312 35.8947 181.423 37.7884C181.768 38.3845 203.714 76.2227 224.938 112.813C247.148 151.108 268.126 187.276 268.473 187.87C271.226 192.572 276.355 195.49 281.863 195.49C290.454 195.49 297.441 188.504 297.441 179.914V41.1433C297.441 37.5751 300.342 34.6728 303.91 34.6728C306.163 34.6728 308.336 35.8947 309.444 37.7884C309.801 38.3984 331.724 76.2287 352.929 112.811C375.122 151.106 396.086 187.276 396.433 187.87C399.184 192.572 404.315 195.49 409.823 195.49C418.413 195.49 425.399 188.504 425.399 179.914V-6.52093e-09H416.292V179.914C416.292 183.484 413.392 186.387 409.823 186.387C407.571 186.387 405.4 185.165 404.289 183.271C403.934 182.661 382.009 144.833 360.808 108.248C338.612 69.9515 317.65 33.7838 317.301 33.1917C314.55 28.4874 309.418 25.5671 303.91 25.5671C295.32 25.5671 288.335 32.5558 288.335 41.1433V179.914C288.335 183.484 285.432 186.387 281.863 186.387C279.611 186.387 277.44 185.165 276.329 183.271C275.984 182.677 254.038 144.839 232.814 108.246C210.604 69.9515 189.626 33.7838 189.279 33.1917C186.528 28.4874 181.397 25.5671 175.889 25.5671C167.3 25.5671 160.315 32.5558 160.315 41.1433V177.082C160.315 180.644 156.94 184.78 152.588 184.78H83.2923C42.3848 184.78 9.10452 151.503 9.10452 110.598C9.10452 69.6944 42.3848 36.417 83.2923 36.417H118.867V27.3113H83.2923C37.365 27.3113 9.14063e-10 64.6731 9.14063e-10 110.598Z" transform="translate(55.2865 89.9708)" fill="white"/>
</svg>
