<svg width="536" height="401" viewBox="0 0 536 401" fill="none" xmlns="http://www.w3.org/2000/svg">
<rect width="536" height="401" fill="#F8F8F8"/>
<path d="M185.368 204.322H120.419C119.822 204.322 118.731 201.698 118.42 201.153C109.486 185.024 100.553 168.818 91.6714 152.716C82.1664 169.857 72.9216 187.284 63.4428 204.451C42.174 204.503 21.0868 204.348 1.26803e-05 204.4C2.38892 199.932 4.93415 195.569 7.47913 191.18C25.2161 160.533 42.6934 129.471 60.4563 98.7986C41.5767 65.8145 22.4114 33.0902 3.42768 0.184049C3.376 0.184049 3.24616 -0.023725 3.37601 0.0022467H68.6366C76.6609 14.5983 84.4779 29.3762 92.3723 44.0762C100.579 29.5061 108.499 14.6503 116.628 0.0022467H179.707C179.758 0.261964 179.577 0.547652 179.447 0.755426C161.035 33.1162 142.181 65.5808 123.795 97.9935C144.233 133.471 165.06 168.922 185.368 204.322Z" transform="translate(320.632 98.3094)" fill="#002885"/>
<path d="M317.315 79.6033C318.977 86.3559 319.938 93.7838 319.938 101.601C319.938 125.988 312.874 144.065 303.058 158.765C301.396 161.259 299.708 163.648 297.89 165.933C292.566 172.686 286.126 178.841 278.933 183.958C274.102 187.386 269.064 190.502 263.481 193.126C252.366 198.346 238.94 202.423 223.462 202.423C199.259 202.423 181.392 195.047 166.927 184.918C152.462 174.764 141.192 161.336 133.531 144.403C128.389 133.053 125.013 119.963 124.623 104.017C124.441 96.1213 125.428 88.3297 126.857 81.5771C130.492 64.5397 137.634 51.1902 146.671 39.6848C155.708 28.2053 167.161 19.2191 181.002 12.4404C186.43 9.79133 192.507 7.53179 199.129 5.89558C205.751 4.25936 213.074 3.14258 220.995 3.14258H221.125C228.864 2.77897 237.07 4.02561 243.51 5.45406C250.21 6.93444 256.417 9.19398 261.949 11.6873C279.088 19.4268 291.865 31.0102 302.149 45.4764C308.927 54.9561 314.017 66.3317 317.315 79.6033ZM239.407 147.285C240.031 144.792 239.849 141.598 239.849 138.299V63.2411C239.849 60.0206 239.485 57.5273 238.55 55.1899C237.693 53.0602 236.369 51.1123 234.811 49.528C231.772 46.4374 227.202 43.6584 221.463 44.0999C218.684 44.3077 216.373 45.1908 214.347 46.4634C210.582 48.8528 207.725 52.5148 206.556 57.3715C205.959 59.8388 205.985 62.9814 205.985 66.2278V141.286C205.985 142.896 205.907 144.455 206.115 145.831C206.661 149.779 208.426 152.947 210.737 155.311C213.724 158.349 218.347 160.895 224.32 160.245C232.032 159.414 237.694 154.298 239.407 147.285ZM127.272 56.0469H58.2719C57.9863 64.6176 58.22 74.0973 58.1421 82.7199C76.788 82.8757 95.7195 82.7458 114.495 82.7718V138.689C95.5897 138.741 76.5283 138.611 57.7266 138.741C57.7525 160.92 57.8564 182.685 57.8564 204.865C57.8564 204.943 57.8302 204.969 57.8045 204.995H0.282648C0.178771 205.021 0.178771 204.943 0.100864 204.943C-0.0289825 136.845 -0.0289825 68.3056 0.0751541 0.181802C0.0751541 0.103887 0.0751541 0 0.126833 0H123.351C123.429 0 123.455 0 123.481 0.0519434C124.779 18.6996 126.026 37.3733 127.272 56.0469V56.0469Z" transform="translate(31 98)" fill="#002885"/>
</svg>
