<svg width="320" height="63" viewBox="0 0 513 101" fill="none" xmlns="http://www.w3.org/2000/svg">
<path d="M24.4272 9.83445C23.8067 8.75989 24.1746 7.38607 25.2489 6.76555C26.3229 6.14528 27.6973 6.5132 28.3175 7.5875L31.1538 12.4985C31.7743 13.5728 31.4064 14.9469 30.3321 15.5674C29.9784 15.7716 29.5918 15.8689 29.2106 15.8689C28.4343 15.8689 27.6793 15.466 27.2632 14.7454L24.4272 9.83445ZM12.499 69.846L7.58777 72.6815C6.51321 73.3018 6.1453 74.6756 6.76557 75.7502C7.18166 76.471 7.93672 76.8739 8.71299 76.8739C9.09414 76.8739 9.48053 76.7766 9.83422 76.5724L14.7455 73.7369C15.82 73.1166 16.1879 71.7428 15.5677 70.6682C14.9474 69.5937 13.5731 69.2258 12.499 69.846ZM14.7455 27.2631L9.83422 24.4276C8.75967 23.8073 7.38584 24.1753 6.76557 25.2498C6.1453 26.3244 6.51321 27.6982 7.58777 28.3185L12.499 31.154C12.8527 31.3582 13.2388 31.4555 13.6202 31.4555C14.3965 31.4555 15.1516 31.0526 15.5677 30.3318C16.1879 29.2572 15.8198 27.8834 14.7455 27.2631ZM87.38 31.4555C87.7612 31.4555 88.1475 31.3582 88.5012 31.154L93.4125 28.3185C94.487 27.6982 94.855 26.3244 94.2347 25.2498C93.6144 24.1753 92.2403 23.8073 91.166 24.4276L86.2548 27.2631C85.1802 27.8834 84.8123 29.2572 85.4326 30.3318C85.8487 31.0524 86.6037 31.4555 87.38 31.4555ZM70.6681 15.5674C71.0218 15.7716 71.408 15.8689 71.7894 15.8689C72.5657 15.8689 73.321 15.4658 73.7371 14.7452L76.5723 9.83419C77.1926 8.75964 76.8244 7.38582 75.7501 6.76555C74.6756 6.14553 73.3017 6.51345 72.6815 7.58775L69.8462 12.4987C69.2257 13.5733 69.5936 14.9474 70.6681 15.5674ZM50.5 10.1697C51.7408 10.1697 52.7465 9.16401 52.7465 7.92322V2.24645C52.7465 1.00566 51.7408 0 50.5 0C49.2592 0 48.2535 1.00566 48.2535 2.24645V7.92322C48.2535 9.16401 49.2595 10.1697 50.5 10.1697ZM10.1699 50.4999C10.1699 49.2591 9.16428 48.2534 7.92349 48.2534H2.24645C1.00566 48.2534 0 49.2591 0 50.4999C0 51.7407 1.00566 52.7463 2.24645 52.7463H7.92324C9.16403 52.7463 10.1699 51.7407 10.1699 50.4999ZM93.4125 72.6818L88.5012 69.8463C87.4267 69.2263 86.0531 69.5937 85.4326 70.6685C84.8123 71.743 85.1802 73.1169 86.2548 73.7371L91.166 76.5726C91.5197 76.7768 91.9061 76.8742 92.2873 76.8742C93.0635 76.8742 93.8186 76.4713 94.2347 75.7504C94.855 74.6759 94.4868 73.3021 93.4125 72.6818ZM98.7535 48.2534H93.0773C91.8365 48.2534 90.8308 49.2591 90.8308 50.4999C90.8308 51.7407 91.8365 52.7463 93.0773 52.7463H98.7535C99.9943 52.7463 101 51.7407 101 50.4999C101 49.2591 99.9943 48.2534 98.7535 48.2534ZM84.5637 50.4999C84.5637 69.2824 69.2828 84.5632 50.5003 84.5632C31.7177 84.5632 16.4365 69.2824 16.4365 50.4999C16.4365 31.7173 31.7174 16.4368 50.5 16.4368C69.2826 16.4368 84.5637 31.7173 84.5637 50.4999ZM80.0708 50.4999C80.0708 34.1947 66.8055 20.9294 50.5003 20.9294C34.195 20.9294 20.9294 34.1947 20.9294 50.4999C20.9294 66.8051 34.1948 80.0704 50.5 80.0704C66.8052 80.0704 80.0708 66.8053 80.0708 50.4999ZM30.3321 85.4326C29.2578 84.8126 27.8837 85.1803 27.2634 86.2548L24.4282 91.1658C23.8079 92.2404 24.1761 93.6142 25.2504 94.2344C25.6041 94.4386 25.9905 94.536 26.3716 94.536C27.1479 94.536 27.9032 94.1329 28.3193 93.4122L31.1546 88.5013C31.7746 87.4267 31.4064 86.0526 30.3321 85.4326ZM60.9036 53.2345C60.76 52.968 60.5609 52.7269 60.3095 52.5307C60.0986 52.3657 59.8575 52.2371 59.5959 52.1555C59.5951 52.1558 59.5941 52.155 59.5929 52.1545C59.364 52.0836 59.1281 52.0502 58.8942 52.0539H46.1596C45.936 52.0522 45.5306 52.0489 45.0968 52.0372C45.2176 51.847 45.3516 51.6393 45.4991 51.4149C46.2527 50.2667 50.5127 43.8644 53.9184 38.7485L54.9864 44.1602C55.2265 45.3775 56.4082 46.168 57.6252 45.9294C58.8423 45.689 59.6346 44.5076 59.3942 43.2905L57.2835 32.5952C57.1842 32.0054 56.8507 31.4562 56.3136 31.0983C56.1346 30.9792 55.9449 30.8891 55.75 30.827C55.4003 30.7149 55.0176 30.6877 54.6325 30.7636L43.8742 32.8865C42.6571 33.1269 41.8649 34.3082 42.1053 35.5253C42.3456 36.7424 43.5275 37.5329 44.7441 37.2945L50.2065 36.2167C46.7921 41.3451 42.5041 47.7897 41.7431 48.9496C40.4326 50.9449 39.1951 52.8294 40.1738 54.6605C41.1617 56.5086 43.4616 56.5266 46.1419 56.5473H54.7306C52.105 60.4913 48.5411 65.8473 47.9153 66.8003C47.2344 67.8374 47.5232 69.2302 48.5603 69.9112C48.9405 70.1608 49.368 70.2801 49.7911 70.2801C50.5225 70.2801 51.2398 69.9234 51.6712 69.2662C52.5173 67.9772 58.8321 58.4937 60.778 55.5716C60.9091 55.3809 61.0114 55.1692 61.079 54.9423C61.1577 54.6788 61.1859 54.4064 61.1662 54.1381C61.1427 53.8126 61.0503 53.5066 60.9036 53.2345ZM50.5 90.8303C49.2592 90.8303 48.2535 91.836 48.2535 93.0768V98.7536C48.2535 99.9943 49.2592 101 50.5 101C51.7408 101 52.7465 99.9943 52.7465 98.7536V93.0768C52.7465 91.836 51.7408 90.8303 50.5 90.8303ZM73.7368 86.2543C73.1165 85.18 71.7429 84.8121 70.6681 85.4324C69.5938 86.0526 69.2257 87.4267 69.8462 88.501L72.682 93.412C73.0981 94.1329 73.8531 94.5357 74.6294 94.5357C75.0105 94.5357 75.3969 94.4384 75.7506 94.2342C76.8252 93.6139 77.1931 92.2399 76.5726 91.1656L73.7368 86.2543Z" fill="#FF6F00"/>
<path d="M47.25 72.2188C47.25 68.4375 45.9219 65.4531 43.2656 63.2656C40.6094 61.0469 35.75 58.9531 28.6875 56.9844C21.625 54.9844 16.4688 52.8125 13.2188 50.4688C8.59375 47.1562 6.28125 42.8125 6.28125 37.4375C6.28125 32.2188 8.42188 27.9844 12.7031 24.7344C17.0156 21.4531 22.5156 19.8125 29.2031 19.8125C33.7344 19.8125 37.7812 20.6875 41.3438 22.4375C44.9375 24.1875 47.7188 26.625 49.6875 29.75C51.6562 32.875 52.6406 36.3594 52.6406 40.2031H46.8281C46.8281 35.5469 45.2344 31.8125 42.0469 29C38.8594 26.1562 34.5781 24.7344 29.2031 24.7344C23.9844 24.7344 19.8281 25.9062 16.7344 28.25C13.6406 30.5625 12.0938 33.5938 12.0938 37.3438C12.0938 40.8125 13.4844 43.6406 16.2656 45.8281C19.0469 48.0156 23.5 49.9531 29.625 51.6406C35.75 53.2969 40.3906 55.0312 43.5469 56.8438C46.7031 58.625 49.0781 60.7656 50.6719 63.2656C52.2656 65.7656 53.0625 68.7188 53.0625 72.125C53.0625 77.5 50.9062 81.8125 46.5938 85.0625C42.3125 88.3125 36.6562 89.9375 29.625 89.9375C24.8125 89.9375 20.3906 89.0781 16.3594 87.3594C12.3594 85.6406 9.3125 83.2344 7.21875 80.1406C5.15625 77.0469 4.125 73.5 4.125 69.5H9.89062C9.89062 74.3125 11.6875 78.1094 15.2812 80.8906C18.875 83.6719 23.6562 85.0625 29.625 85.0625C34.9375 85.0625 39.2031 83.8906 42.4219 81.5469C45.6406 79.2031 47.25 76.0938 47.25 72.2188ZM61.125 62.8906C61.125 58.0156 62.0625 53.625 63.9375 49.7188C65.8438 45.8125 68.5156 42.7812 71.9531 40.625C75.4219 38.4375 79.3438 37.3438 83.7188 37.3438C90.4688 37.3438 95.9375 39.7188 100.125 44.4688C104.312 49.1875 106.406 55.4531 106.406 63.2656V64.4375C106.406 69.3438 105.453 73.7656 103.547 77.7031C101.672 81.6094 99.0156 84.625 95.5781 86.75C92.1406 88.875 88.2188 89.9375 83.8125 89.9375C77.0938 89.9375 71.625 87.5781 67.4062 82.8594C63.2188 78.1094 61.125 71.8281 61.125 64.0156V62.8906ZM66.75 64.4375C66.75 70.5 68.3125 75.4844 71.4375 79.3906C74.5938 83.2656 78.7188 85.2031 83.8125 85.2031C88.875 85.2031 92.9688 83.2656 96.0938 79.3906C99.25 75.4844 100.828 70.3438 100.828 63.9688V62.8906C100.828 59.0156 100.109 55.4688 98.6719 52.25C97.2344 49.0312 95.2188 46.5469 92.625 44.7969C90.0312 43.0156 87.0625 42.125 83.7188 42.125C78.7188 42.125 74.6406 44.0938 71.4844 48.0312C68.3281 51.9375 66.75 57.0625 66.75 63.4062V64.4375ZM124.312 89H118.688V17H124.312V89ZM171.609 89C171.047 87.4062 170.688 85.0469 170.531 81.9219C168.562 84.4844 166.047 86.4688 162.984 87.875C159.953 89.25 156.734 89.9375 153.328 89.9375C148.453 89.9375 144.5 88.5781 141.469 85.8594C138.469 83.1406 136.969 79.7031 136.969 75.5469C136.969 70.6094 139.016 66.7031 143.109 63.8281C147.234 60.9531 152.969 59.5156 160.312 59.5156H170.484V53.75C170.484 50.125 169.359 47.2812 167.109 45.2188C164.891 43.125 161.641 42.0781 157.359 42.0781C153.453 42.0781 150.219 43.0781 147.656 45.0781C145.094 47.0781 143.812 49.4844 143.812 52.2969L138.188 52.25C138.188 48.2188 140.062 44.7344 143.812 41.7969C147.562 38.8281 152.172 37.3438 157.641 37.3438C163.297 37.3438 167.75 38.7656 171 41.6094C174.281 44.4219 175.969 48.3594 176.062 53.4219V77.4219C176.062 82.3281 176.578 86 177.609 88.4375V89H171.609ZM153.984 84.9688C157.734 84.9688 161.078 84.0625 164.016 82.25C166.984 80.4375 169.141 78.0156 170.484 74.9844V63.8281H160.453C154.859 63.8906 150.484 64.9219 147.328 66.9219C144.172 68.8906 142.594 71.6094 142.594 75.0781C142.594 77.9219 143.641 80.2812 145.734 82.1562C147.859 84.0312 150.609 84.9688 153.984 84.9688ZM214.5 43.0625C213.312 42.8438 212.047 42.7344 210.703 42.7344C207.203 42.7344 204.234 43.7188 201.797 45.6875C199.391 47.625 197.672 50.4531 196.641 54.1719V89H191.062V38.2812H196.547L196.641 46.3438C199.609 40.3438 204.375 37.3438 210.938 37.3438C212.5 37.3438 213.734 37.5469 214.641 37.9531L214.5 43.0625ZM273.984 80.8906C271.984 83.7344 268.844 85.9531 264.562 87.5469C260.312 89.1406 255.547 89.9375 250.266 89.9375C244.922 89.9375 240.172 88.6562 236.016 86.0938C231.859 83.5312 228.641 79.9062 226.359 75.2188C224.078 70.5312 222.922 65.1562 222.891 59.0938V50.4688C222.891 41 225.281 33.5312 230.062 28.0625C234.844 22.5625 241.266 19.8125 249.328 19.8125C256.359 19.8125 262.016 21.6094 266.297 25.2031C270.578 28.7656 273.125 33.6875 273.938 39.9688H268.172C267.328 34.9688 265.281 31.1875 262.031 28.625C258.812 26.0313 254.594 24.7344 249.375 24.7344C243 24.7344 237.953 27 234.234 31.5312C230.516 36.0625 228.656 42.4531 228.656 50.7031V58.7656C228.656 63.9531 229.531 68.5469 231.281 72.5469C233.062 76.5156 235.594 79.5938 238.875 81.7812C242.188 83.9688 245.984 85.0625 250.266 85.0625C255.234 85.0625 259.5 84.2812 263.062 82.7188C265.375 81.6875 267.094 80.4844 268.219 79.1094V61.4844H249.891V56.6094H273.984V80.8906ZM321.047 89C320.484 87.4062 320.125 85.0469 319.969 81.9219C318 84.4844 315.484 86.4688 312.422 87.875C309.391 89.25 306.172 89.9375 302.766 89.9375C297.891 89.9375 293.938 88.5781 290.906 85.8594C287.906 83.1406 286.406 79.7031 286.406 75.5469C286.406 70.6094 288.453 66.7031 292.547 63.8281C296.672 60.9531 302.406 59.5156 309.75 59.5156H319.922V53.75C319.922 50.125 318.797 47.2812 316.547 45.2188C314.328 43.125 311.078 42.0781 306.797 42.0781C302.891 42.0781 299.656 43.0781 297.094 45.0781C294.531 47.0781 293.25 49.4844 293.25 52.2969L287.625 52.25C287.625 48.2188 289.5 44.7344 293.25 41.7969C297 38.8281 301.609 37.3438 307.078 37.3438C312.734 37.3438 317.188 38.7656 320.438 41.6094C323.719 44.4219 325.406 48.3594 325.5 53.4219V77.4219C325.5 82.3281 326.016 86 327.047 88.4375V89H321.047ZM303.422 84.9688C307.172 84.9688 310.516 84.0625 313.453 82.25C316.422 80.4375 318.578 78.0156 319.922 74.9844V63.8281H309.891C304.297 63.8906 299.922 64.9219 296.766 66.9219C293.609 68.8906 292.031 71.6094 292.031 75.0781C292.031 77.9219 293.078 80.2812 295.172 82.1562C297.297 84.0312 300.047 84.9688 303.422 84.9688ZM346.781 89H341.156V38.2812H346.781V89ZM340.172 23.6094C340.172 22.5469 340.516 21.6562 341.203 20.9375C341.891 20.1875 342.828 19.8125 344.016 19.8125C345.203 19.8125 346.141 20.1875 346.828 20.9375C347.547 21.6562 347.906 22.5469 347.906 23.6094C347.906 24.6719 347.547 25.5625 346.828 26.2812C346.141 27 345.203 27.3594 344.016 27.3594C342.828 27.3594 341.891 27 341.203 26.2812C340.516 25.5625 340.172 24.6719 340.172 23.6094ZM367.406 38.2812L367.594 46.9531C369.5 43.8281 371.875 41.4531 374.719 39.8281C377.562 38.1719 380.703 37.3438 384.141 37.3438C389.578 37.3438 393.625 38.875 396.281 41.9375C398.938 45 400.281 49.5938 400.312 55.7188V89H394.734V55.6719C394.703 51.1406 393.734 47.7656 391.828 45.5469C389.953 43.3281 386.938 42.2188 382.781 42.2188C379.312 42.2188 376.234 43.3125 373.547 45.5C370.891 47.6562 368.922 50.5781 367.641 54.2656V89H362.062V38.2812H367.406Z" transform="translate(112)" fill="#FF6F00"/>
</svg>
