<svg width="536" height="401" viewBox="0 0 536 401" fill="none" xmlns="http://www.w3.org/2000/svg">
<rect width="536" height="401" fill="white"/>
<path d="M73.943 52.1735H30.3305L-7.31695e-09 1.68024e-06H104.35L73.943 52.1735Z" transform="translate(22 126)" fill="#E60000"/>
<path d="M85.9853 1.05503e-06L116.637 52.1573L62.8048 147.737H-4.19505e-07L85.9853 1.05503e-06" transform="translate(45.1017 126.263)" fill="#E60000"/>
<path d="M290.671 63.3905C288.783 63.2577 285.693 62.809 284.238 62.4563C277.758 60.8854 274.511 57.9865 273.052 52.47C272.685 51.0804 272.638 50.5542 272.569 47.0717C272.516 44.326 272.547 43.1135 272.679 42.8673C272.861 42.5267 272.918 42.5221 276.409 42.5643L279.954 42.6076L279.97 45.5685C279.982 47.8325 280.049 48.7555 280.257 49.4898C281.151 52.6523 283.126 54.5615 286.463 55.489C290.239 56.5387 292.372 56.6464 307.934 56.5739C322.496 56.506 323.504 56.4522 327.033 55.5559C331.086 54.5265 333.144 52.5388 334.017 48.8102C334.431 47.0444 334.428 41.9488 334.012 40.4597C333.229 37.6515 331.849 36.1602 329.273 35.3373C326.644 34.4975 326.52 34.4921 307.135 34.371C289.839 34.2629 288.984 34.2439 286.97 33.9209C283.158 33.3095 281.131 32.7147 278.949 31.5662C275.387 29.6923 273.208 26.1583 272.53 21.1594C272.26 19.1634 272.401 13.7229 272.765 12.1174C273.403 9.3034 274.581 7.03947 276.298 5.32451C278.136 3.48887 280.333 2.37986 283.927 1.47333C287.523 0.566312 290.312 0.289106 297.959 0.0789574C305.793 -0.136473 322.922 0.117208 326.316 0.498772C334.044 1.36738 337.787 3.76064 339.52 8.94169C340.185 10.9281 340.48 13.1479 340.427 15.7655L340.382 17.9593H333.189L333.086 16.1187C332.905 12.9043 332.276 10.991 330.926 9.54572C329.686 8.21809 328.017 7.54907 324.68 7.04155C322.974 6.7821 321.38 6.75569 307.455 6.75569C291.057 6.75569 289.98 6.79795 286.976 7.5582C284.071 8.29332 282.411 9.47674 281.4 11.532C280.58 13.1984 280.306 14.879 280.406 17.6392C280.634 23.9202 282.841 26.1102 289.948 27.1057C291.504 27.3235 294.525 27.3818 309.373 27.4804C327.494 27.6006 328.24 27.6283 331.578 28.3006C337.927 29.5795 341.132 33.2208 341.889 40.0149C342.139 42.2604 342.104 47.7494 341.828 49.5695C341.006 54.9903 338.648 58.62 334.628 60.6528C332.571 61.6927 329.128 62.5963 325.212 63.1237C323.551 63.3473 321.041 63.3883 307.375 63.415C298.627 63.4326 291.111 63.4214 290.671 63.3905V63.3905ZM3.43409e-06 31.7243V0.754217H12.1486L39.9077 28.0031C55.1753 42.9901 67.7623 55.2752 67.8791 55.3035C68.055 55.3464 68.0983 50.6654 68.1318 28.0947L68.1723 0.834243H75.6848L75.7251 31.7643L75.7656 62.6944H64.4937L37.5616 36.2721C22.7489 21.7398 10.0337 9.26179 9.3058 8.543C8.23534 7.48601 7.95306 7.28211 7.82982 7.47641C7.73456 7.62638 7.67637 18.0415 7.67477 35.2055L7.67238 62.6944H3.43409e-06V31.7243V31.7243ZM91.149 31.7643L91.1894 0.834243H151.929L151.972 4.23487L152.015 7.6355L125.359 7.67599L98.702 7.71649V27.0828L124.24 27.1233L149.778 27.1638L149.734 30.5644L149.691 33.9651L124.197 34.0451L98.702 34.1251L98.6607 44.9682L98.6198 55.8112L125.274 55.8517L151.929 55.8922L151.972 59.2933L152.015 62.6944H91.1089L91.149 31.7643V31.7643ZM179.582 62.0161C177.453 56.7448 156.032 1.00005 156.096 0.896661C156.144 0.818235 157.868 0.754056 159.927 0.754056C163.634 0.754056 163.672 0.757417 163.898 1.11417C164.024 1.31216 168.816 13.6103 174.548 28.4431C180.28 43.2759 185.041 55.5457 185.128 55.7091C185.214 55.8725 185.342 55.9447 185.411 55.8692C185.48 55.7936 190.086 43.452 195.647 28.4431C201.209 13.4342 205.831 1.06328 205.919 0.951879C206.042 0.794868 207.207 0.759016 211.12 0.791827L216.162 0.834082L226.275 28.2661C231.837 43.3537 236.461 55.7715 236.55 55.8612C236.661 55.9718 236.761 55.9002 236.863 55.638C238.96 50.2302 256.939 4.10875 257.478 2.75471L258.243 0.834082L262.208 0.791187L266.174 0.748292L266.102 1.12794C266.062 1.33697 260.683 15.2746 254.148 32.1009L242.267 62.6944H236.715C232.422 62.6944 231.148 62.6491 231.089 62.4944C231.048 62.3843 226.607 50.4824 221.221 36.0457C215.835 21.609 211.363 9.62335 211.283 9.41096C211.176 9.12447 211.092 9.07133 210.958 9.2053C210.859 9.30453 206.309 21.3621 200.847 36L190.916 62.6144L185.387 62.6565L179.858 62.6986L179.582 62.0161V62.0161Z" transform="translate(171.943 176.485)" fill="black"/>
</svg>
